<svg width="39" height="39" viewBox="0 0 39 39" fill="none" xmlns="http://www.w3.org/2000/svg">
<circle cx="19.5" cy="19.5" r="18" stroke="#FFE6D0" stroke-width="3"/>
<mask id="path-2-inside-1" fill="white">
<path d="M39 19.5C39 15.1571 37.5502 10.9384 34.8805 7.51296C32.2109 4.0875 28.4741 1.65127 24.2627 0.590556L23.5459 3.43646C27.1235 4.33753 30.2979 6.4071 32.5657 9.31703C34.8336 12.227 36.0652 15.8107 36.0652 19.5H39Z"/>
</mask>
<path d="M39 19.5C39 15.1571 37.5502 10.9384 34.8805 7.51296C32.2109 4.0875 28.4741 1.65127 24.2627 0.590556L23.5459 3.43646C27.1235 4.33753 30.2979 6.4071 32.5657 9.31703C34.8336 12.227 36.0652 15.8107 36.0652 19.5H39Z" stroke="#FF8C28" stroke-width="4" mask="url(#path-2-inside-1)"/>
</svg>
