<svg width="500" height="409" viewBox="0 0 500 409" fill="none" xmlns="http://www.w3.org/2000/svg">
<rect width="500" height="409" rx="10" fill="white"/>
<path d="M97.3315 160.56H102.687C103.713 160.56 104.495 160.887 105.032 161.54C105.592 162.193 105.848 163.068 105.802 164.165C105.662 167.362 104.53 169.847 102.407 171.62C100.307 173.37 97.8449 174.245 95.0215 174.245C92.9449 174.245 90.9499 173.732 89.0365 172.705C87.1699 171.678 85.6182 170.185 84.3815 168.225C83.1682 166.312 82.5615 164.153 82.5615 161.75C82.5615 158.203 83.8215 155.24 86.3415 152.86C88.8849 150.457 91.7432 149.255 94.9165 149.255C97.0399 149.255 98.8832 149.675 100.447 150.515C102.173 151.565 103.037 152.685 103.037 153.875C103.037 154.645 102.78 155.275 102.267 155.765C101.753 156.232 101.123 156.465 100.377 156.465C99.7465 156.465 99.0232 156.22 98.2065 155.73C98.1832 155.73 98.0665 155.672 97.8565 155.555C97.6699 155.415 97.4599 155.298 97.2265 155.205C97.0165 155.088 96.7015 154.983 96.2815 154.89C95.8849 154.773 95.4649 154.715 95.0215 154.715C93.2482 154.715 91.7315 155.403 90.4715 156.78C89.2115 158.133 88.5815 159.79 88.5815 161.75C88.5815 163.71 89.1999 165.378 90.4365 166.755C91.6965 168.108 93.2249 168.785 95.0215 168.785C96.1415 168.785 97.2382 168.47 98.3115 167.84C99.3849 167.21 100.015 166.335 100.202 165.215H97.3315C96.6549 165.215 96.0715 164.993 95.5815 164.55C95.0915 164.107 94.8465 163.558 94.8465 162.905C94.8465 162.228 95.0799 161.668 95.5465 161.225C96.0365 160.782 96.6315 160.56 97.3315 160.56ZM118.22 155.59C119.62 155.59 121.02 155.928 122.42 156.605C123.843 157.282 125.068 158.367 126.095 159.86C127.145 161.33 127.67 163.033 127.67 164.97C127.67 166.417 127.367 167.758 126.76 168.995C126.177 170.232 125.395 171.223 124.415 171.97C122.455 173.487 120.39 174.245 118.22 174.245C116.097 174.245 114.02 173.487 111.99 171.97C111.01 171.223 110.217 170.232 109.61 168.995C109.027 167.758 108.735 166.417 108.735 164.97C108.735 163.5 109.038 162.147 109.645 160.91C110.252 159.673 111.022 158.682 111.955 157.935C112.912 157.188 113.927 156.617 115 156.22C116.097 155.8 117.17 155.59 118.22 155.59ZM114.265 164.97C114.265 166.277 114.638 167.35 115.385 168.19C116.155 169.007 117.1 169.415 118.22 169.415C119.317 169.415 120.25 168.995 121.02 168.155C121.79 167.315 122.175 166.253 122.175 164.97C122.175 163.64 121.79 162.555 121.02 161.715C120.273 160.852 119.34 160.42 118.22 160.42C117.077 160.42 116.132 160.852 115.385 161.715C114.638 162.555 114.265 163.64 114.265 164.97ZM139.275 155.59C140.675 155.59 142.075 155.928 143.475 156.605C144.898 157.282 146.123 158.367 147.15 159.86C148.2 161.33 148.725 163.033 148.725 164.97C148.725 166.417 148.421 167.758 147.815 168.995C147.231 170.232 146.45 171.223 145.47 171.97C143.51 173.487 141.445 174.245 139.275 174.245C137.151 174.245 135.075 173.487 133.045 171.97C132.065 171.223 131.271 170.232 130.665 168.995C130.081 167.758 129.79 166.417 129.79 164.97C129.79 163.5 130.093 162.147 130.7 160.91C131.306 159.673 132.076 158.682 133.01 157.935C133.966 157.188 134.981 156.617 136.055 156.22C137.151 155.8 138.225 155.59 139.275 155.59ZM135.32 164.97C135.32 166.277 135.693 167.35 136.44 168.19C137.21 169.007 138.155 169.415 139.275 169.415C140.371 169.415 141.305 168.995 142.075 168.155C142.845 167.315 143.23 166.253 143.23 164.97C143.23 163.64 142.845 162.555 142.075 161.715C141.328 160.852 140.395 160.42 139.275 160.42C138.131 160.42 137.186 160.852 136.44 161.715C135.693 162.555 135.32 163.64 135.32 164.97ZM166.594 149.01C167.364 149.01 168.029 149.29 168.589 149.85C169.173 150.387 169.464 151.028 169.464 151.775V171.445C169.464 172.215 169.173 172.868 168.589 173.405C168.029 173.942 167.364 174.21 166.594 174.21C165.941 174.21 165.358 174.012 164.844 173.615C164.331 173.195 164.004 172.67 163.864 172.04C163.491 172.647 162.896 173.172 162.079 173.615C161.263 174.035 160.318 174.245 159.244 174.245C157.051 174.245 155.103 173.428 153.399 171.795C151.696 170.162 150.844 167.863 150.844 164.9C150.844 162.007 151.708 159.732 153.434 158.075C155.208 156.418 157.144 155.59 159.244 155.59C160.318 155.59 161.274 155.847 162.114 156.36C162.954 156.85 163.514 157.445 163.794 158.145V158.46C163.794 158.25 163.806 158.11 163.829 158.04V151.775C163.829 151.028 164.098 150.387 164.634 149.85C165.194 149.29 165.848 149.01 166.594 149.01ZM160.294 169.485C161.274 169.485 162.138 169.123 162.884 168.4C163.654 167.653 164.039 166.487 164.039 164.9C164.039 163.337 163.643 162.193 162.849 161.47C162.056 160.723 161.204 160.35 160.294 160.35C159.198 160.35 158.276 160.77 157.529 161.61C156.806 162.427 156.444 163.523 156.444 164.9C156.444 166.277 156.806 167.385 157.529 168.225C158.276 169.065 159.198 169.485 160.294 169.485ZM188.624 151.81V171.41C188.624 172.18 188.344 172.833 187.784 173.37C187.247 173.907 186.594 174.175 185.824 174.175C185.054 174.175 184.389 173.907 183.829 173.37C183.292 172.833 183.024 172.18 183.024 171.41V151.81C183.024 151.04 183.304 150.387 183.864 149.85C184.424 149.29 185.077 149.01 185.824 149.01C186.57 149.01 187.224 149.29 187.784 149.85C188.344 150.387 188.624 151.04 188.624 151.81ZM199.343 174.21C197.337 174.21 195.75 173.475 194.583 172.005C193.417 170.535 192.833 168.377 192.833 165.53V158.425C192.833 157.655 193.102 157.002 193.638 156.465C194.198 155.928 194.863 155.66 195.633 155.66C196.38 155.66 197.022 155.928 197.558 156.465C198.118 157.002 198.398 157.655 198.398 158.425V165.53C198.398 166.837 198.667 167.828 199.203 168.505C199.763 169.158 200.533 169.485 201.513 169.485C202.167 169.485 202.738 169.333 203.228 169.03C203.742 168.727 204.115 168.377 204.348 167.98C204.582 167.56 204.745 167.198 204.838 166.895C204.955 166.568 205.013 166.335 205.013 166.195V158.425C205.013 157.655 205.282 157.002 205.818 156.465C206.378 155.928 207.043 155.66 207.813 155.66C208.583 155.66 209.237 155.928 209.773 156.465C210.333 157.002 210.613 157.655 210.613 158.425V171.305C210.613 172.075 210.333 172.74 209.773 173.3C209.213 173.86 208.56 174.14 207.813 174.14C207.067 174.14 206.413 173.86 205.853 173.3C205.293 172.74 205.013 172.075 205.013 171.305V170.22C204.943 171.013 204.383 171.888 203.333 172.845C202.283 173.755 200.953 174.21 199.343 174.21ZM230.246 170.115C230.246 170.745 230.036 171.305 229.616 171.795C229.499 171.912 229.313 172.087 229.056 172.32C228.799 172.553 228.648 172.693 228.601 172.74C227.154 173.697 225.486 174.175 223.596 174.175C221.309 174.175 219.198 173.428 217.261 171.935C216.304 171.165 215.534 170.162 214.951 168.925C214.391 167.688 214.111 166.347 214.111 164.9C214.111 163.383 214.403 162.018 214.986 160.805C215.569 159.592 216.328 158.612 217.261 157.865C218.194 157.118 219.198 156.558 220.271 156.185C221.368 155.788 222.476 155.59 223.596 155.59C225.486 155.59 227.154 156.068 228.601 157.025C228.648 157.072 228.741 157.153 228.881 157.27C229.021 157.387 229.149 157.515 229.266 157.655C229.406 157.772 229.523 157.888 229.616 158.005C230.036 158.425 230.246 158.973 230.246 159.65C230.176 160.63 229.721 161.283 228.881 161.61C228.064 161.913 227.084 161.703 225.941 160.98C225.358 160.607 224.634 160.42 223.771 160.42C222.488 160.42 221.473 160.828 220.726 161.645C220.003 162.438 219.641 163.523 219.641 164.9C219.641 166.253 220.014 167.338 220.761 168.155C221.508 168.948 222.511 169.345 223.771 169.345C224.634 169.345 225.358 169.158 225.941 168.785C227.084 168.062 228.064 167.863 228.881 168.19C229.721 168.493 230.176 169.135 230.246 170.115ZM244.526 163.885L249.986 170.08C250.43 170.523 250.651 171.083 250.651 171.76C250.651 172.413 250.418 172.985 249.951 173.475C249.485 173.942 248.913 174.175 248.236 174.175C247.466 174.175 246.895 173.918 246.521 173.405L241.026 167.035L239.346 168.54V171.41C239.346 172.18 239.066 172.833 238.506 173.37C237.97 173.907 237.316 174.175 236.546 174.175C235.776 174.175 235.111 173.907 234.551 173.37C234.015 172.833 233.746 172.18 233.746 171.41V151.81C233.746 151.04 234.026 150.387 234.586 149.85C235.146 149.29 235.8 149.01 236.546 149.01C237.293 149.01 237.946 149.29 238.506 149.85C239.066 150.387 239.346 151.04 239.346 151.81V162.03L245.156 156.5C245.693 155.963 246.323 155.695 247.046 155.695C247.746 155.695 248.33 155.94 248.796 156.43C249.286 156.92 249.531 157.515 249.531 158.215C249.531 158.938 249.298 159.533 248.831 160L244.526 163.885ZM287.224 155.695C287.971 155.695 288.589 155.952 289.079 156.465C289.593 156.955 289.849 157.573 289.849 158.32L289.814 158.46C289.791 158.553 289.744 158.717 289.674 158.95C289.604 159.16 289.534 159.382 289.464 159.615L285.054 171.935C284.611 173.358 283.724 174.07 282.394 174.07C281.111 174.07 280.178 173.358 279.594 171.935L275.884 163.605L272.174 171.935C271.591 173.358 270.658 174.07 269.374 174.07C268.044 174.07 267.158 173.358 266.714 171.935L262.339 159.615C262.083 158.915 261.954 158.483 261.954 158.32C261.954 157.573 262.211 156.955 262.724 156.465C263.238 155.952 263.856 155.695 264.579 155.695C265.093 155.695 265.571 155.835 266.014 156.115C266.458 156.395 266.761 156.745 266.924 157.165L269.759 166.16L273.399 157.375C273.843 156.255 274.671 155.695 275.884 155.695C277.098 155.695 277.938 156.255 278.404 157.375L282.009 166.16L284.879 157.165C285.019 156.745 285.311 156.395 285.754 156.115C286.221 155.835 286.711 155.695 287.224 155.695ZM293.014 151.425C293.014 150.678 293.294 150.037 293.854 149.5C294.437 148.94 295.102 148.66 295.849 148.66C296.596 148.66 297.249 148.94 297.809 149.5C298.392 150.037 298.684 150.678 298.684 151.425C298.684 152.148 298.392 152.79 297.809 153.35C297.249 153.887 296.596 154.155 295.849 154.155C295.102 154.155 294.437 153.887 293.854 153.35C293.294 152.79 293.014 152.148 293.014 151.425ZM298.649 158.53V171.375C298.649 172.145 298.369 172.81 297.809 173.37C297.272 173.93 296.619 174.21 295.849 174.21C295.079 174.21 294.414 173.93 293.854 173.37C293.317 172.81 293.049 172.145 293.049 171.375V158.53C293.049 157.737 293.317 157.072 293.854 156.535C294.414 155.975 295.079 155.695 295.849 155.695C296.619 155.695 297.272 155.975 297.809 156.535C298.369 157.072 298.649 157.737 298.649 158.53ZM312.307 169.275C312.914 169.275 313.392 169.45 313.742 169.8C314.092 170.15 314.267 170.652 314.267 171.305C314.267 172.215 313.882 172.927 313.112 173.44C312.365 173.93 311.292 174.175 309.892 174.175C308.422 174.175 307.185 173.802 306.182 173.055C305.015 172.145 304.432 170.313 304.432 167.56V160.105H303.732C303.055 160.105 302.507 159.907 302.087 159.51C301.69 159.113 301.492 158.6 301.492 157.97C301.492 157.34 301.69 156.827 302.087 156.43C302.507 156.01 303.055 155.8 303.732 155.8H304.432V153.77C304.432 153 304.712 152.347 305.272 151.81C305.832 151.25 306.485 150.97 307.232 150.97C307.979 150.97 308.632 151.25 309.192 151.81C309.752 152.347 310.032 153 310.032 153.77V155.8H312.062C312.739 155.8 313.275 156.01 313.672 156.43C314.069 156.827 314.267 157.34 314.267 157.97C314.267 158.6 314.069 159.113 313.672 159.51C313.275 159.907 312.739 160.105 312.062 160.105H310.032V167.84C310.032 168.867 310.347 169.38 310.977 169.38C311 169.38 311.199 169.357 311.572 169.31C311.945 169.263 312.19 169.252 312.307 169.275ZM328.688 155.625C330.695 155.625 332.282 156.36 333.448 157.83C334.615 159.3 335.198 161.458 335.198 164.305V171.41C335.198 172.18 334.918 172.833 334.358 173.37C333.822 173.907 333.168 174.175 332.398 174.175C331.652 174.175 330.998 173.907 330.438 173.37C329.902 172.833 329.633 172.18 329.633 171.41V164.305C329.633 162.998 329.353 162.018 328.793 161.365C328.257 160.688 327.498 160.35 326.518 160.35C325.865 160.35 325.282 160.502 324.768 160.805C324.278 161.108 323.917 161.47 323.683 161.89C323.45 162.287 323.275 162.648 323.158 162.975C323.065 163.278 323.018 163.5 323.018 163.64V171.41C323.018 172.18 322.738 172.833 322.178 173.37C321.642 173.907 320.988 174.175 320.218 174.175C319.448 174.175 318.783 173.907 318.223 173.37C317.687 172.833 317.418 172.18 317.418 171.41V151.81C317.418 151.04 317.698 150.387 318.258 149.85C318.818 149.29 319.472 149.01 320.218 149.01C320.965 149.01 321.618 149.29 322.178 149.85C322.738 150.387 323.018 151.04 323.018 151.81V159.615C323.088 158.798 323.648 157.935 324.698 157.025C325.725 156.092 327.055 155.625 328.688 155.625ZM363.916 155.695C364.663 155.695 365.281 155.94 365.771 156.43C366.261 156.897 366.506 157.48 366.506 158.18C366.506 158.623 366.389 159.067 366.156 159.51L357.371 178.83C356.764 180.16 355.878 180.825 354.711 180.825C354.011 180.825 353.416 180.58 352.926 180.09C352.459 179.623 352.226 179.04 352.226 178.34C352.226 177.967 352.331 177.523 352.541 177.01L354.326 173.055L348.026 159.51C347.816 158.973 347.711 158.53 347.711 158.18C347.711 157.503 347.956 156.92 348.446 156.43C348.936 155.94 349.543 155.695 350.266 155.695C351.456 155.695 352.343 156.36 352.926 157.69L357.021 167.07L361.256 157.69C361.839 156.36 362.726 155.695 363.916 155.695ZM376.311 155.59C377.711 155.59 379.111 155.928 380.511 156.605C381.934 157.282 383.159 158.367 384.186 159.86C385.236 161.33 385.761 163.033 385.761 164.97C385.761 166.417 385.457 167.758 384.851 168.995C384.267 170.232 383.486 171.223 382.506 171.97C380.546 173.487 378.481 174.245 376.311 174.245C374.187 174.245 372.111 173.487 370.081 171.97C369.101 171.223 368.307 170.232 367.701 168.995C367.117 167.758 366.826 166.417 366.826 164.97C366.826 163.5 367.129 162.147 367.736 160.91C368.342 159.673 369.112 158.682 370.046 157.935C371.002 157.188 372.017 156.617 373.091 156.22C374.187 155.8 375.261 155.59 376.311 155.59ZM372.356 164.97C372.356 166.277 372.729 167.35 373.476 168.19C374.246 169.007 375.191 169.415 376.311 169.415C377.407 169.415 378.341 168.995 379.111 168.155C379.881 167.315 380.266 166.253 380.266 164.97C380.266 163.64 379.881 162.555 379.111 161.715C378.364 160.852 377.431 160.42 376.311 160.42C375.167 160.42 374.222 160.852 373.476 161.715C372.729 162.555 372.356 163.64 372.356 164.97ZM395.774 174.21C393.767 174.21 392.181 173.475 391.014 172.005C389.847 170.535 389.264 168.377 389.264 165.53V158.425C389.264 157.655 389.532 157.002 390.069 156.465C390.629 155.928 391.294 155.66 392.064 155.66C392.811 155.66 393.452 155.928 393.989 156.465C394.549 157.002 394.829 157.655 394.829 158.425V165.53C394.829 166.837 395.097 167.828 395.634 168.505C396.194 169.158 396.964 169.485 397.944 169.485C398.597 169.485 399.169 169.333 399.659 169.03C400.172 168.727 400.546 168.377 400.779 167.98C401.012 167.56 401.176 167.198 401.269 166.895C401.386 166.568 401.444 166.335 401.444 166.195V158.425C401.444 157.655 401.712 157.002 402.249 156.465C402.809 155.928 403.474 155.66 404.244 155.66C405.014 155.66 405.667 155.928 406.204 156.465C406.764 157.002 407.044 157.655 407.044 158.425V171.305C407.044 172.075 406.764 172.74 406.204 173.3C405.644 173.86 404.991 174.14 404.244 174.14C403.497 174.14 402.844 173.86 402.284 173.3C401.724 172.74 401.444 172.075 401.444 171.305V170.22C401.374 171.013 400.814 171.888 399.764 172.845C398.714 173.755 397.384 174.21 395.774 174.21ZM421.847 155.625C422.617 155.625 423.223 155.87 423.667 156.36C424.133 156.827 424.367 157.422 424.367 158.145C424.367 159.895 423.188 160.77 420.832 160.77C419.688 160.77 418.755 161.097 418.032 161.75C417.262 162.427 416.865 163.057 416.842 163.64V171.41C416.842 172.157 416.562 172.81 416.002 173.37C415.442 173.907 414.788 174.175 414.042 174.175C413.295 174.175 412.642 173.907 412.082 173.37C411.522 172.81 411.242 172.157 411.242 171.41V158.53C411.242 157.737 411.522 157.072 412.082 156.535C412.642 155.975 413.295 155.695 414.042 155.695C414.788 155.695 415.442 155.975 416.002 156.535C416.562 157.072 416.842 157.737 416.842 158.53V159.615C416.912 158.868 417.437 158.017 418.417 157.06C419.443 156.103 420.587 155.625 421.847 155.625ZM191.721 211.275C192.328 211.275 192.806 211.45 193.156 211.8C193.506 212.15 193.681 212.652 193.681 213.305C193.681 214.215 193.296 214.927 192.526 215.44C191.779 215.93 190.706 216.175 189.306 216.175C187.836 216.175 186.599 215.802 185.596 215.055C184.429 214.145 183.846 212.313 183.846 209.56V202.105H183.146C182.469 202.105 181.921 201.907 181.501 201.51C181.104 201.113 180.906 200.6 180.906 199.97C180.906 199.34 181.104 198.827 181.501 198.43C181.921 198.01 182.469 197.8 183.146 197.8H183.846V195.77C183.846 195 184.126 194.347 184.686 193.81C185.246 193.25 185.899 192.97 186.646 192.97C187.393 192.97 188.046 193.25 188.606 193.81C189.166 194.347 189.446 195 189.446 195.77V197.8H191.476C192.153 197.8 192.689 198.01 193.086 198.43C193.483 198.827 193.681 199.34 193.681 199.97C193.681 200.6 193.483 201.113 193.086 201.51C192.689 201.907 192.153 202.105 191.476 202.105H189.446V209.84C189.446 210.867 189.761 211.38 190.391 211.38C190.414 211.38 190.613 211.357 190.986 211.31C191.359 211.263 191.604 211.252 191.721 211.275ZM204.934 197.59C206.334 197.59 207.734 197.928 209.134 198.605C210.557 199.282 211.782 200.367 212.809 201.86C213.859 203.33 214.384 205.033 214.384 206.97C214.384 208.417 214.08 209.758 213.474 210.995C212.89 212.232 212.109 213.223 211.129 213.97C209.169 215.487 207.104 216.245 204.934 216.245C202.81 216.245 200.734 215.487 198.704 213.97C197.724 213.223 196.93 212.232 196.324 210.995C195.74 209.758 195.449 208.417 195.449 206.97C195.449 205.5 195.752 204.147 196.359 202.91C196.965 201.673 197.735 200.682 198.669 199.935C199.625 199.188 200.64 198.617 201.714 198.22C202.81 197.8 203.884 197.59 204.934 197.59ZM200.979 206.97C200.979 208.277 201.352 209.35 202.099 210.19C202.869 211.007 203.814 211.415 204.934 211.415C206.03 211.415 206.964 210.995 207.734 210.155C208.504 209.315 208.889 208.253 208.889 206.97C208.889 205.64 208.504 204.555 207.734 203.715C206.987 202.852 206.054 202.42 204.934 202.42C203.79 202.42 202.845 202.852 202.099 203.715C201.352 204.555 200.979 205.64 200.979 206.97ZM232.254 191.01C233.024 191.01 233.689 191.29 234.249 191.85C234.832 192.387 235.124 193.028 235.124 193.775V213.445C235.124 214.215 234.832 214.868 234.249 215.405C233.689 215.942 233.024 216.21 232.254 216.21C231.6 216.21 231.017 216.012 230.504 215.615C229.99 215.195 229.664 214.67 229.524 214.04C229.15 214.647 228.555 215.172 227.739 215.615C226.922 216.035 225.977 216.245 224.904 216.245C222.71 216.245 220.762 215.428 219.059 213.795C217.355 212.162 216.504 209.863 216.504 206.9C216.504 204.007 217.367 201.732 219.094 200.075C220.867 198.418 222.804 197.59 224.904 197.59C225.977 197.59 226.934 197.847 227.774 198.36C228.614 198.85 229.174 199.445 229.454 200.145V200.46C229.454 200.25 229.465 200.11 229.489 200.04V193.775C229.489 193.028 229.757 192.387 230.294 191.85C230.854 191.29 231.507 191.01 232.254 191.01ZM225.954 211.485C226.934 211.485 227.797 211.123 228.544 210.4C229.314 209.653 229.699 208.487 229.699 206.9C229.699 205.337 229.302 204.193 228.509 203.47C227.715 202.723 226.864 202.35 225.954 202.35C224.857 202.35 223.935 202.77 223.189 203.61C222.465 204.427 222.104 205.523 222.104 206.9C222.104 208.277 222.465 209.385 223.189 210.225C223.935 211.065 224.857 211.485 225.954 211.485ZM248.103 197.59C249.503 197.59 250.903 197.928 252.303 198.605C253.726 199.282 254.951 200.367 255.978 201.86C257.028 203.33 257.553 205.033 257.553 206.97C257.553 208.417 257.249 209.758 256.643 210.995C256.059 212.232 255.278 213.223 254.298 213.97C252.338 215.487 250.273 216.245 248.103 216.245C245.979 216.245 243.903 215.487 241.873 213.97C240.893 213.223 240.099 212.232 239.493 210.995C238.909 209.758 238.618 208.417 238.618 206.97C238.618 205.5 238.921 204.147 239.528 202.91C240.134 201.673 240.904 200.682 241.838 199.935C242.794 199.188 243.809 198.617 244.883 198.22C245.979 197.8 247.053 197.59 248.103 197.59ZM244.148 206.97C244.148 208.277 244.521 209.35 245.268 210.19C246.038 211.007 246.983 211.415 248.103 211.415C249.199 211.415 250.133 210.995 250.903 210.155C251.673 209.315 252.058 208.253 252.058 206.97C252.058 205.64 251.673 204.555 250.903 203.715C250.156 202.852 249.223 202.42 248.103 202.42C246.959 202.42 246.014 202.852 245.268 203.715C244.521 204.555 244.148 205.64 244.148 206.97ZM269.157 197.59C270.557 197.59 271.957 197.928 273.357 198.605C274.781 199.282 276.006 200.367 277.032 201.86C278.082 203.33 278.607 205.033 278.607 206.97C278.607 208.417 278.304 209.758 277.697 210.995C277.114 212.232 276.332 213.223 275.352 213.97C273.392 215.487 271.327 216.245 269.157 216.245C267.034 216.245 264.957 215.487 262.927 213.97C261.947 213.223 261.154 212.232 260.547 210.995C259.964 209.758 259.672 208.417 259.672 206.97C259.672 205.5 259.976 204.147 260.582 202.91C261.189 201.673 261.959 200.682 262.892 199.935C263.849 199.188 264.864 198.617 265.937 198.22C267.034 197.8 268.107 197.59 269.157 197.59ZM265.202 206.97C265.202 208.277 265.576 209.35 266.322 210.19C267.092 211.007 268.037 211.415 269.157 211.415C270.254 211.415 271.187 210.995 271.957 210.155C272.727 209.315 273.112 208.253 273.112 206.97C273.112 205.64 272.727 204.555 271.957 203.715C271.211 202.852 270.277 202.42 269.157 202.42C268.014 202.42 267.069 202.852 266.322 203.715C265.576 204.555 265.202 205.64 265.202 206.97ZM290.212 197.59C291.612 197.59 293.012 197.928 294.412 198.605C295.835 199.282 297.06 200.367 298.087 201.86C299.137 203.33 299.662 205.033 299.662 206.97C299.662 208.417 299.359 209.758 298.752 210.995C298.169 212.232 297.387 213.223 296.407 213.97C294.447 215.487 292.382 216.245 290.212 216.245C288.089 216.245 286.012 215.487 283.982 213.97C283.002 213.223 282.209 212.232 281.602 210.995C281.019 209.758 280.727 208.417 280.727 206.97C280.727 205.5 281.03 204.147 281.637 202.91C282.244 201.673 283.014 200.682 283.947 199.935C284.904 199.188 285.919 198.617 286.992 198.22C288.089 197.8 289.162 197.59 290.212 197.59ZM286.257 206.97C286.257 208.277 286.63 209.35 287.377 210.19C288.147 211.007 289.092 211.415 290.212 211.415C291.309 211.415 292.242 210.995 293.012 210.155C293.782 209.315 294.167 208.253 294.167 206.97C294.167 205.64 293.782 204.555 293.012 203.715C292.265 202.852 291.332 202.42 290.212 202.42C289.069 202.42 288.124 202.852 287.377 203.715C286.63 204.555 286.257 205.64 286.257 206.97ZM308.887 197.59C310.077 197.59 311.197 197.812 312.247 198.255C313.297 198.675 314.102 199.258 314.662 200.005C315.129 200.542 315.362 201.125 315.362 201.755C315.362 202.385 315.164 202.887 314.767 203.26C314.37 203.633 313.857 203.82 313.227 203.82C312.317 203.82 311.559 203.482 310.952 202.805C310.345 202.245 309.727 201.965 309.097 201.965C308.14 201.965 307.662 202.327 307.662 203.05V203.085C307.662 203.202 307.674 203.307 307.697 203.4C307.72 203.493 307.825 203.633 308.012 203.82C308.222 204.007 308.525 204.158 308.922 204.275L310.987 204.905C312.644 205.418 313.892 206.095 314.732 206.935C315.595 207.752 316.027 208.86 316.027 210.26C316.027 212.173 315.304 213.643 313.857 214.67C312.434 215.673 310.719 216.175 308.712 216.175C307.732 216.175 306.799 216.035 305.912 215.755C305.002 215.428 304.395 215.16 304.092 214.95C303.952 214.857 303.52 214.518 302.797 213.935C302.004 213.142 301.607 212.267 301.607 211.31C301.56 211.007 301.607 210.715 301.747 210.435C301.887 210.132 302.097 209.875 302.377 209.665C302.657 209.455 302.972 209.327 303.322 209.28C303.672 209.21 304.08 209.28 304.547 209.49C305.014 209.677 305.48 210.003 305.947 210.47C306.834 211.287 307.755 211.695 308.712 211.695C309.902 211.695 310.497 211.322 310.497 210.575C310.497 210.458 310.485 210.353 310.462 210.26C310.439 210.143 310.299 209.968 310.042 209.735C309.785 209.502 309.424 209.315 308.957 209.175L307.312 208.685C303.882 207.682 302.167 205.815 302.167 203.085C302.167 201.335 302.832 199.982 304.162 199.025C305.539 198.068 307.114 197.59 308.887 197.59ZM322.552 191.395C323.392 191.395 324.115 191.71 324.722 192.34C325.352 192.97 325.667 193.717 325.667 194.58V204.94C325.667 205.803 325.352 206.55 324.722 207.18C324.115 207.81 323.392 208.125 322.552 208.125C321.688 208.125 320.942 207.81 320.312 207.18C319.705 206.55 319.402 205.803 319.402 204.94V194.58C319.402 193.717 319.705 192.97 320.312 192.34C320.942 191.71 321.688 191.395 322.552 191.395ZM322.552 216.175C321.665 216.175 320.907 215.872 320.277 215.265C319.67 214.635 319.367 213.877 319.367 212.99C319.367 212.127 319.682 211.392 320.312 210.785C320.942 210.155 321.688 209.84 322.552 209.84C323.415 209.84 324.15 210.155 324.757 210.785C325.387 211.392 325.702 212.127 325.702 212.99C325.702 213.877 325.387 214.635 324.757 215.265C324.15 215.872 323.415 216.175 322.552 216.175Z" fill="#FF8C28"/>
<circle cx="282.5" cy="276.5" r="1.5" fill="#F9DD96"/>
<path d="M278.242 239.93H274.477C273.506 239.93 272.719 239.143 272.719 238.172C272.719 237.201 273.506 236.414 274.477 236.414H278.242C279.213 236.414 280 237.201 280 238.172C280 239.143 279.213 239.93 278.242 239.93Z" fill="#FDB442"/>
<path d="M261.247 275.953H255.523V268.346C255.523 267.4 254.796 266.585 253.851 266.541C252.841 266.493 252.008 267.298 252.008 268.297V277.711C252.008 278.681 252.795 279.468 253.766 279.468H261.297C262.296 279.468 263.1 278.635 263.053 277.626C263.008 276.68 262.194 275.953 261.247 275.953Z" fill="#A54628"/>
<path d="M253.766 275.953H247.992V268.297C247.992 267.326 247.205 266.539 246.234 266.539C245.264 266.539 244.477 267.326 244.477 268.297V275.953H242.469C241.498 275.953 240.711 276.74 240.711 277.711C240.711 278.682 241.498 279.469 242.469 279.469H253.766C254.736 279.469 255.523 278.682 255.523 277.711C255.523 276.74 254.736 275.953 253.766 275.953Z" fill="#D26432"/>
<path d="M259.414 270.054H240.586C239.615 270.054 238.828 269.267 238.828 268.297C238.828 267.326 239.615 266.539 240.586 266.539C246.884 266.539 252.008 261.415 252.008 255.117V236.289C252.008 235.823 252.193 235.376 252.523 235.046C252.523 235.046 255.224 232.344 257.389 230.178C259.408 228.158 262.204 227 265.063 227C268.009 227 270.889 228.193 272.963 230.273C275.071 232.376 276.234 235.182 276.234 238.17V253.234L259.414 270.054Z" fill="#FDB442"/>
<path d="M265.062 227C262.204 227 259.407 228.158 257.389 230.178C256.786 230.782 256.14 231.427 255.523 232.044V270.055H259.414L276.234 253.234V238.17C276.234 235.181 275.071 232.376 272.963 230.273C270.888 228.193 268.009 227 265.062 227V227Z" fill="#FF8C28"/>
<path d="M265.062 239.93C266.033 239.93 266.82 239.143 266.82 238.172C266.82 237.201 266.033 236.414 265.062 236.414C264.092 236.414 263.305 237.201 263.305 238.172C263.305 239.143 264.092 239.93 265.062 239.93Z" fill="#78281E"/>
<path d="M240.586 270.055H221.758C221.047 270.055 220.406 269.626 220.134 268.969C219.862 268.313 220.012 267.556 220.515 267.054L255.523 232.044V255.117C255.523 263.354 248.823 270.055 240.586 270.055V270.055Z" fill="#FADC5C"/>
<path d="M276.234 253.236V253.234C266.96 253.234 259.414 260.779 259.414 270.055C268.689 270.055 276.234 262.51 276.234 253.236V253.236Z" fill="#FDB442"/>
<circle cx="280.5" cy="277.5" r="1.5" fill="#FAE7B6"/>
<circle cx="285.5" cy="276.5" r="1.5" fill="#F4DC9E"/>
<circle cx="283.5" cy="275.5" r="1.5" fill="#FEEDC0"/>
<circle cx="283.5" cy="277.5" r="1.5" fill="#FAE7B6"/>
<circle cx="286.5" cy="277.5" r="1.5" fill="#FAE7B6"/>
</svg>
