<svg width="474" height="404" viewBox="0 0 474 404" fill="none" xmlns="http://www.w3.org/2000/svg">
<g filter="url(#filter0_i)">
<rect width="474" height="404" rx="17" fill="#373737"/>
<path d="M0 10C0 4.47716 4.47715 0 10 0H182V404H10C4.47715 404 0 399.523 0 394V10Z" fill="white"/>
</g>
<rect x="221" y="81" width="129" height="47" rx="12" fill="white"/>
<path d="M242.007 99.9773C242.093 99.9773 242.167 100.007 242.227 100.067C242.293 100.127 242.327 100.204 242.327 100.297C242.327 100.417 242.237 100.547 242.057 100.687C241.53 101.094 240.9 101.297 240.167 101.297C239.58 101.297 239.02 101.151 238.487 100.857C237.967 100.564 237.533 100.137 237.187 99.5773C236.847 99.024 236.677 98.4073 236.677 97.7273C236.677 96.7073 237.03 95.8573 237.737 95.1773C238.443 94.4973 239.26 94.1573 240.187 94.1573C240.887 94.1573 241.507 94.3573 242.047 94.7573C242.233 94.884 242.327 95.0173 242.327 95.1573C242.327 95.2506 242.293 95.3273 242.227 95.3873C242.167 95.4473 242.093 95.4773 242.007 95.4773C241.907 95.4773 241.78 95.414 241.627 95.2873C241.253 94.974 240.77 94.8173 240.177 94.8173C239.443 94.8173 238.797 95.0973 238.237 95.6573C237.677 96.2106 237.397 96.9006 237.397 97.7273C237.397 98.5473 237.677 99.2373 238.237 99.7973C238.803 100.357 239.447 100.637 240.167 100.637C240.767 100.637 241.253 100.481 241.627 100.167C241.78 100.041 241.907 99.9773 242.007 99.9773ZM243.961 94.4273V100.927C243.961 101.021 243.927 101.104 243.861 101.177C243.794 101.244 243.714 101.277 243.621 101.277C243.527 101.277 243.447 101.244 243.381 101.177C243.314 101.104 243.281 101.021 243.281 100.927V94.4273C243.274 94.2873 243.327 94.1906 243.441 94.1373C243.561 94.0773 243.677 94.0773 243.791 94.1373C243.911 94.1906 243.967 94.2873 243.961 94.4273ZM245.755 94.5873C245.662 94.694 245.552 94.724 245.425 94.6773C245.299 94.624 245.215 94.5406 245.175 94.4273C245.142 94.314 245.172 94.204 245.265 94.0973C245.345 94.0173 245.432 93.9806 245.525 93.9873C245.625 93.994 245.702 94.0306 245.755 94.0973C245.815 94.164 245.852 94.2406 245.865 94.3273C245.879 94.414 245.842 94.5006 245.755 94.5873ZM245.855 96.3473V100.937C245.855 101.031 245.822 101.114 245.755 101.187C245.689 101.254 245.609 101.287 245.515 101.287C245.422 101.287 245.342 101.254 245.275 101.187C245.209 101.114 245.175 101.031 245.175 100.937V96.3473C245.175 96.254 245.209 96.174 245.275 96.1073C245.342 96.034 245.422 95.9973 245.515 95.9973C245.609 95.9973 245.689 96.034 245.755 96.1073C245.822 96.174 245.855 96.254 245.855 96.3473ZM251.15 99.8373C251.23 99.8373 251.3 99.864 251.36 99.9173C251.42 99.9706 251.45 100.037 251.45 100.117C251.45 100.177 251.4 100.274 251.3 100.407C250.86 100.987 250.243 101.277 249.45 101.277C249.143 101.277 248.84 101.221 248.54 101.107C248.246 100.994 247.973 100.834 247.72 100.627C247.466 100.414 247.26 100.134 247.1 99.7873C246.946 99.4406 246.87 99.054 246.87 98.6273C246.87 97.8006 247.136 97.1506 247.67 96.6773C248.203 96.204 248.796 95.9673 249.45 95.9673C250.243 95.9673 250.86 96.2573 251.3 96.8373C251.4 96.964 251.45 97.0606 251.45 97.1273C251.45 97.2073 251.42 97.274 251.36 97.3273C251.3 97.3806 251.23 97.4073 251.15 97.4073C251.03 97.4073 250.926 97.3473 250.84 97.2273C250.7 97.0206 250.503 96.8606 250.25 96.7473C250.003 96.6273 249.746 96.5673 249.48 96.5673C248.966 96.5673 248.516 96.7506 248.13 97.1173C247.743 97.4773 247.55 97.9806 247.55 98.6273C247.55 99.274 247.743 99.7773 248.13 100.137C248.516 100.497 248.966 100.677 249.48 100.677C249.746 100.677 250.003 100.621 250.25 100.507C250.503 100.387 250.7 100.224 250.84 100.017C250.926 99.8973 251.03 99.8373 251.15 99.8373ZM254.411 98.3973L256.681 100.747C256.781 100.854 256.804 100.971 256.751 101.097C256.704 101.217 256.614 101.277 256.481 101.277C256.387 101.277 256.311 101.247 256.251 101.187L253.981 98.8273L253.131 99.6873V100.927C253.131 101.021 253.097 101.104 253.031 101.177C252.964 101.244 252.884 101.277 252.791 101.277C252.697 101.277 252.617 101.244 252.551 101.177C252.484 101.104 252.451 101.021 252.451 100.927V94.4273C252.444 94.2873 252.497 94.1906 252.611 94.1373C252.731 94.0773 252.847 94.0773 252.961 94.1373C253.081 94.1906 253.137 94.2873 253.131 94.4273V98.8473L255.801 96.0973C255.901 95.9973 256.017 95.974 256.151 96.0273C256.284 96.0806 256.351 96.174 256.351 96.3073C256.351 96.3873 256.321 96.4606 256.261 96.5273L254.411 98.3973ZM262.746 95.9773C262.992 95.9773 263.226 96.0173 263.446 96.0973C263.672 96.1706 263.882 96.2873 264.076 96.4473C264.269 96.6073 264.422 96.8373 264.536 97.1373C264.656 97.4306 264.716 97.774 264.716 98.1673V100.927C264.716 101.021 264.682 101.104 264.616 101.177C264.549 101.244 264.469 101.277 264.376 101.277C264.282 101.277 264.202 101.244 264.136 101.177C264.069 101.104 264.036 101.021 264.036 100.927V98.1673C264.036 97.6473 263.902 97.254 263.636 96.9873C263.369 96.7206 263.019 96.5873 262.586 96.5873C262.099 96.5873 261.702 96.7473 261.396 97.0673C261.096 97.3673 260.909 97.7173 260.836 98.1173V100.927C260.836 101.021 260.802 101.104 260.736 101.177C260.669 101.244 260.589 101.277 260.496 101.277C260.402 101.277 260.322 101.244 260.256 101.177C260.189 101.104 260.156 101.021 260.156 100.927V94.4273C260.149 94.2873 260.202 94.1906 260.316 94.1373C260.436 94.0773 260.552 94.0773 260.666 94.1373C260.786 94.1906 260.842 94.2873 260.836 94.4273V97.2473C260.889 97.0006 261.086 96.7306 261.426 96.4373C261.772 96.1306 262.212 95.9773 262.746 95.9773ZM268.257 95.9673C268.884 95.9673 269.457 96.1973 269.977 96.6573C270.497 97.1173 270.757 97.734 270.757 98.5073C270.757 98.7673 270.611 98.8973 270.317 98.8973H266.417C266.457 99.4773 266.664 99.924 267.037 100.237C267.411 100.544 267.851 100.697 268.357 100.697C268.851 100.697 269.271 100.554 269.617 100.267C269.751 100.167 269.851 100.117 269.917 100.117C269.997 100.117 270.061 100.144 270.107 100.197C270.161 100.244 270.187 100.307 270.187 100.387C270.187 100.481 270.124 100.587 269.997 100.707C269.577 101.087 269.024 101.277 268.337 101.277C267.644 101.277 267.034 101.047 266.507 100.587C265.981 100.121 265.717 99.4673 265.717 98.6273C265.717 98.2006 265.794 97.814 265.947 97.4673C266.107 97.114 266.311 96.834 266.557 96.6273C266.811 96.414 267.084 96.2506 267.377 96.1373C267.671 96.024 267.964 95.9673 268.257 95.9673ZM269.487 97.0373C269.114 96.724 268.704 96.5673 268.257 96.5673C267.811 96.5673 267.401 96.724 267.027 97.0373C266.661 97.344 266.457 97.7806 266.417 98.3473H270.097C270.057 97.7806 269.854 97.344 269.487 97.0373ZM274.072 95.9773C274.199 95.9773 274.299 96.0073 274.372 96.0673C274.445 96.1273 274.482 96.2073 274.482 96.3073C274.482 96.5273 274.329 96.6373 274.022 96.6373C273.549 96.6373 273.149 96.7906 272.822 97.0973C272.495 97.3906 272.302 97.7306 272.242 98.1173V100.927C272.242 101.021 272.209 101.104 272.142 101.177C272.075 101.244 271.995 101.277 271.902 101.277C271.809 101.277 271.729 101.244 271.662 101.177C271.595 101.104 271.562 101.021 271.562 100.927V96.3473C271.562 96.254 271.595 96.174 271.662 96.1073C271.729 96.034 271.809 95.9973 271.902 95.9973C271.995 95.9973 272.075 96.034 272.142 96.1073C272.209 96.174 272.242 96.254 272.242 96.3473V97.2473C272.282 97.014 272.475 96.744 272.822 96.4373C273.169 96.1306 273.585 95.9773 274.072 95.9773ZM276.998 95.9673C277.624 95.9673 278.198 96.1973 278.718 96.6573C279.238 97.1173 279.498 97.734 279.498 98.5073C279.498 98.7673 279.351 98.8973 279.058 98.8973H275.158C275.198 99.4773 275.404 99.924 275.778 100.237C276.151 100.544 276.591 100.697 277.098 100.697C277.591 100.697 278.011 100.554 278.358 100.267C278.491 100.167 278.591 100.117 278.658 100.117C278.738 100.117 278.801 100.144 278.848 100.197C278.901 100.244 278.928 100.307 278.928 100.387C278.928 100.481 278.864 100.587 278.738 100.707C278.318 101.087 277.764 101.277 277.078 101.277C276.384 101.277 275.774 101.047 275.248 100.587C274.721 100.121 274.458 99.4673 274.458 98.6273C274.458 98.2006 274.534 97.814 274.688 97.4673C274.848 97.114 275.051 96.834 275.298 96.6273C275.551 96.414 275.824 96.2506 276.118 96.1373C276.411 96.024 276.704 95.9673 276.998 95.9673ZM278.228 97.0373C277.854 96.724 277.444 96.5673 276.998 96.5673C276.551 96.5673 276.141 96.724 275.768 97.0373C275.401 97.344 275.198 97.7806 275.158 98.3473H278.838C278.798 97.7806 278.594 97.344 278.228 97.0373ZM284.887 100.617C284.98 100.591 285.06 100.601 285.127 100.647C285.193 100.694 285.227 100.761 285.227 100.847C285.227 100.987 285.14 101.094 284.967 101.167C284.793 101.241 284.587 101.277 284.347 101.277C283.72 101.277 283.407 100.947 283.407 100.287V96.6073H282.917C282.797 96.6073 282.71 96.5606 282.657 96.4673C282.61 96.3673 282.61 96.2706 282.657 96.1773C282.71 96.0773 282.797 96.0273 282.917 96.0273H283.407V95.1173C283.4 94.9773 283.453 94.8806 283.567 94.8273C283.687 94.7673 283.803 94.7673 283.917 94.8273C284.037 94.8806 284.093 94.9773 284.087 95.1173V96.0273H284.927C285.047 96.0273 285.133 96.0773 285.187 96.1773C285.24 96.2706 285.24 96.3673 285.187 96.4673C285.133 96.5606 285.047 96.6073 284.927 96.6073H284.087V100.247C284.087 100.541 284.22 100.687 284.487 100.687C284.593 100.687 284.727 100.664 284.887 100.617ZM287.407 96.1373C287.694 96.0306 287.99 95.9773 288.297 95.9773C288.61 95.9773 288.914 96.0306 289.207 96.1373C289.5 96.2373 289.774 96.404 290.027 96.6373C290.287 96.864 290.497 97.1406 290.657 97.4673C290.817 97.814 290.897 98.2006 290.897 98.6273C290.897 99.054 290.817 99.444 290.657 99.7973C290.37 100.424 289.884 100.867 289.197 101.127C288.804 101.254 288.407 101.304 288.007 101.277C287.607 101.251 287.217 101.107 286.837 100.847C286.457 100.581 286.167 100.231 285.967 99.7973C285.807 99.444 285.727 99.054 285.727 98.6273C285.727 98.2006 285.807 97.814 285.967 97.4673C286.247 96.8473 286.727 96.404 287.407 96.1373ZM289.627 97.1173C289.24 96.7506 288.8 96.5673 288.307 96.5673C287.814 96.5673 287.374 96.7506 286.987 97.1173C286.6 97.4773 286.407 97.9806 286.407 98.6273C286.407 99.2806 286.6 99.7906 286.987 100.157C287.374 100.517 287.814 100.697 288.307 100.697C288.8 100.697 289.24 100.517 289.627 100.157C290.02 99.784 290.217 99.274 290.217 98.6273C290.217 97.9806 290.02 97.4773 289.627 97.1173ZM296.083 95.9673C296.857 95.9673 297.413 96.2473 297.753 96.8073C297.833 96.954 297.853 97.084 297.813 97.1973C297.773 97.304 297.687 97.3573 297.553 97.3573C297.433 97.3573 297.32 97.274 297.213 97.1073C296.96 96.734 296.58 96.5473 296.073 96.5473C295.74 96.5473 295.477 96.624 295.283 96.7773C295.097 96.9306 295.003 97.1306 295.003 97.3773C295.003 97.7773 295.3 98.054 295.893 98.2073L296.533 98.3773C297.047 98.504 297.427 98.6773 297.673 98.8973C297.927 99.1106 298.053 99.4006 298.053 99.7673C298.053 100.241 297.86 100.611 297.473 100.877C297.1 101.144 296.633 101.277 296.073 101.277C295.66 101.277 295.287 101.194 294.953 101.027C294.627 100.861 294.407 100.644 294.293 100.377C294.213 100.217 294.173 100.104 294.173 100.037C294.173 99.8306 294.267 99.7273 294.453 99.7273C294.593 99.7273 294.697 99.8073 294.763 99.9673C294.963 100.441 295.4 100.677 296.073 100.677C296.46 100.677 296.773 100.601 297.013 100.447C297.26 100.294 297.383 100.081 297.383 99.8073C297.383 99.4073 297.08 99.1306 296.473 98.9773L295.673 98.7673C294.78 98.534 294.333 98.074 294.333 97.3873C294.333 96.974 294.497 96.634 294.823 96.3673C295.15 96.1006 295.57 95.9673 296.083 95.9673ZM301.148 95.9673C301.775 95.9673 302.348 96.1973 302.868 96.6573C303.388 97.1173 303.648 97.734 303.648 98.5073C303.648 98.7673 303.501 98.8973 303.208 98.8973H299.308C299.348 99.4773 299.555 99.924 299.928 100.237C300.301 100.544 300.741 100.697 301.248 100.697C301.741 100.697 302.161 100.554 302.508 100.267C302.641 100.167 302.741 100.117 302.808 100.117C302.888 100.117 302.951 100.144 302.998 100.197C303.051 100.244 303.078 100.307 303.078 100.387C303.078 100.481 303.015 100.587 302.888 100.707C302.468 101.087 301.915 101.277 301.228 101.277C300.535 101.277 299.925 101.047 299.398 100.587C298.871 100.121 298.608 99.4673 298.608 98.6273C298.608 98.2006 298.685 97.814 298.838 97.4673C298.998 97.114 299.201 96.834 299.448 96.6273C299.701 96.414 299.975 96.2506 300.268 96.1373C300.561 96.024 300.855 95.9673 301.148 95.9673ZM302.378 97.0373C302.005 96.724 301.595 96.5673 301.148 96.5673C300.701 96.5673 300.291 96.724 299.918 97.0373C299.551 97.344 299.348 97.7806 299.308 98.3473H302.988C302.948 97.7806 302.745 97.344 302.378 97.0373ZM306.793 95.9673C307.419 95.9673 307.993 96.1973 308.513 96.6573C309.033 97.1173 309.293 97.734 309.293 98.5073C309.293 98.7673 309.146 98.8973 308.853 98.8973H304.953C304.993 99.4773 305.199 99.924 305.573 100.237C305.946 100.544 306.386 100.697 306.893 100.697C307.386 100.697 307.806 100.554 308.153 100.267C308.286 100.167 308.386 100.117 308.453 100.117C308.533 100.117 308.596 100.144 308.643 100.197C308.696 100.244 308.723 100.307 308.723 100.387C308.723 100.481 308.659 100.587 308.533 100.707C308.113 101.087 307.559 101.277 306.873 101.277C306.179 101.277 305.569 101.047 305.043 100.587C304.516 100.121 304.253 99.4673 304.253 98.6273C304.253 98.2006 304.329 97.814 304.483 97.4673C304.643 97.114 304.846 96.834 305.093 96.6273C305.346 96.414 305.619 96.2506 305.913 96.1373C306.206 96.024 306.499 95.9673 306.793 95.9673ZM308.023 97.0373C307.649 96.724 307.239 96.5673 306.793 96.5673C306.346 96.5673 305.936 96.724 305.563 97.0373C305.196 97.344 304.993 97.7806 304.953 98.3473H308.633C308.593 97.7806 308.389 97.344 308.023 97.0373ZM319.712 95.9973C319.798 95.9973 319.872 96.0306 319.932 96.0973C319.998 96.1573 320.032 96.2306 320.032 96.3173C320.032 96.3373 320.025 96.364 320.012 96.3973C320.005 96.4306 320.002 96.454 320.002 96.4673L318.482 100.987C318.415 101.161 318.308 101.247 318.162 101.247C318.015 101.247 317.908 101.161 317.842 100.987L316.282 97.0573L314.722 100.987C314.655 101.161 314.548 101.247 314.402 101.247C314.255 101.247 314.148 101.161 314.082 100.987L312.562 96.4673C312.535 96.4073 312.522 96.3573 312.522 96.3173C312.522 96.2306 312.552 96.1573 312.612 96.0973C312.678 96.0306 312.755 95.9973 312.842 95.9973C313.002 95.9973 313.105 96.0606 313.152 96.1873L314.442 100.177L315.962 96.2173C316.008 96.0706 316.115 95.9973 316.282 95.9973C316.442 95.9973 316.545 96.0706 316.592 96.2173L318.122 100.177L319.402 96.1873C319.442 96.0606 319.545 95.9973 319.712 95.9973ZM323.517 95.9773C323.764 95.9773 323.997 96.0173 324.217 96.0973C324.444 96.1706 324.654 96.2873 324.847 96.4473C325.04 96.6073 325.194 96.8373 325.307 97.1373C325.427 97.4306 325.487 97.774 325.487 98.1673V100.927C325.487 101.021 325.454 101.104 325.387 101.177C325.32 101.244 325.24 101.277 325.147 101.277C325.054 101.277 324.974 101.244 324.907 101.177C324.84 101.104 324.807 101.021 324.807 100.927V98.1673C324.807 97.6473 324.674 97.254 324.407 96.9873C324.14 96.7206 323.79 96.5873 323.357 96.5873C322.87 96.5873 322.474 96.7473 322.167 97.0673C321.867 97.3673 321.68 97.7173 321.607 98.1173V100.927C321.607 101.021 321.574 101.104 321.507 101.177C321.44 101.244 321.36 101.277 321.267 101.277C321.174 101.277 321.094 101.244 321.027 101.177C320.96 101.104 320.927 101.021 320.927 100.927V94.4273C320.92 94.2873 320.974 94.1906 321.087 94.1373C321.207 94.0773 321.324 94.0773 321.437 94.1373C321.557 94.1906 321.614 94.2873 321.607 94.4273V97.2473C321.66 97.0006 321.857 96.7306 322.197 96.4373C322.544 96.1306 322.984 95.9773 323.517 95.9773ZM328.969 95.9673C329.376 95.9673 329.746 96.0673 330.079 96.2673C330.419 96.4606 330.669 96.7306 330.829 97.0773V96.3473C330.829 96.254 330.862 96.174 330.929 96.1073C330.996 96.034 331.076 95.9973 331.169 95.9973C331.269 95.9973 331.352 96.034 331.419 96.1073C331.486 96.174 331.519 96.254 331.519 96.3473V100.937C331.519 101.031 331.482 101.114 331.409 101.187C331.342 101.254 331.262 101.287 331.169 101.287C331.082 101.287 331.002 101.254 330.929 101.187C330.862 101.114 330.829 101.031 330.829 100.937V100.097C330.682 100.457 330.439 100.747 330.099 100.967C329.766 101.187 329.389 101.297 328.969 101.297C328.342 101.297 327.772 101.061 327.259 100.587C326.746 100.114 326.489 99.4606 326.489 98.6273C326.489 97.8006 326.746 97.1506 327.259 96.6773C327.772 96.204 328.342 95.9673 328.969 95.9673ZM327.739 100.157C328.132 100.517 328.566 100.697 329.039 100.697C329.512 100.697 329.936 100.517 330.309 100.157C330.682 99.784 330.869 99.274 330.869 98.6273C330.869 97.9606 330.682 97.4506 330.309 97.0973C329.936 96.744 329.512 96.5673 329.039 96.5673C328.566 96.5673 328.132 96.7473 327.739 97.1073C327.359 97.4673 327.169 97.974 327.169 98.6273C327.169 99.2806 327.359 99.7906 327.739 100.157ZM334.574 100.617C334.668 100.591 334.748 100.601 334.814 100.647C334.881 100.694 334.914 100.761 334.914 100.847C334.914 100.987 334.828 101.094 334.654 101.167C334.481 101.241 334.274 101.277 334.034 101.277C333.408 101.277 333.094 100.947 333.094 100.287V96.6073H332.604C332.484 96.6073 332.398 96.5606 332.344 96.4673C332.298 96.3673 332.298 96.2706 332.344 96.1773C332.398 96.0773 332.484 96.0273 332.604 96.0273H333.094V95.1173C333.088 94.9773 333.141 94.8806 333.254 94.8273C333.374 94.7673 333.491 94.7673 333.604 94.8273C333.724 94.8806 333.781 94.9773 333.774 95.1173V96.0273H334.614C334.734 96.0273 334.821 96.0773 334.874 96.1773C334.928 96.2706 334.928 96.3673 334.874 96.4673C334.821 96.5606 334.734 96.6073 334.614 96.6073H333.774V100.247C333.774 100.541 333.908 100.687 334.174 100.687C334.281 100.687 334.414 100.664 334.574 100.617ZM240.887 107.997C240.973 107.997 241.047 108.031 241.107 108.097C241.173 108.157 241.207 108.231 241.207 108.317C241.207 108.364 241.193 108.411 241.167 108.457L238.387 114.957C238.327 115.104 238.22 115.177 238.067 115.177C237.98 115.177 237.907 115.144 237.847 115.077C237.793 115.017 237.767 114.944 237.767 114.857C237.767 114.844 237.777 114.797 237.797 114.717L238.507 113.057L236.507 108.457C236.487 108.377 236.477 108.331 236.477 108.317C236.477 108.231 236.507 108.157 236.567 108.097C236.633 108.031 236.71 107.997 236.797 107.997C236.95 107.997 237.057 108.071 237.117 108.217L238.837 112.277L240.567 108.217C240.627 108.071 240.733 107.997 240.887 107.997ZM242.983 108.137C243.27 108.031 243.567 107.977 243.873 107.977C244.187 107.977 244.49 108.031 244.783 108.137C245.077 108.237 245.35 108.404 245.603 108.637C245.863 108.864 246.073 109.141 246.233 109.467C246.393 109.814 246.473 110.201 246.473 110.627C246.473 111.054 246.393 111.444 246.233 111.797C245.947 112.424 245.46 112.867 244.773 113.127C244.38 113.254 243.983 113.304 243.583 113.277C243.183 113.251 242.793 113.107 242.413 112.847C242.033 112.581 241.743 112.231 241.543 111.797C241.383 111.444 241.303 111.054 241.303 110.627C241.303 110.201 241.383 109.814 241.543 109.467C241.823 108.847 242.303 108.404 242.983 108.137ZM245.203 109.117C244.817 108.751 244.377 108.567 243.883 108.567C243.39 108.567 242.95 108.751 242.563 109.117C242.177 109.477 241.983 109.981 241.983 110.627C241.983 111.281 242.177 111.791 242.563 112.157C242.95 112.517 243.39 112.697 243.883 112.697C244.377 112.697 244.817 112.517 245.203 112.157C245.597 111.784 245.793 111.274 245.793 110.627C245.793 109.981 245.597 109.477 245.203 109.117ZM249.44 113.307C249.193 113.307 248.957 113.271 248.73 113.197C248.51 113.117 248.303 112.997 248.11 112.837C247.917 112.677 247.76 112.451 247.64 112.157C247.527 111.857 247.47 111.511 247.47 111.117V108.357C247.47 108.264 247.503 108.184 247.57 108.117C247.637 108.044 247.717 108.007 247.81 108.007C247.903 108.007 247.983 108.044 248.05 108.117C248.117 108.184 248.15 108.264 248.15 108.357V111.117C248.15 111.637 248.283 112.031 248.55 112.297C248.817 112.564 249.167 112.697 249.6 112.697C250.08 112.697 250.477 112.541 250.79 112.227C251.09 111.914 251.277 111.561 251.35 111.167V108.357C251.35 108.264 251.383 108.184 251.45 108.117C251.517 108.044 251.597 108.007 251.69 108.007C251.783 108.007 251.863 108.044 251.93 108.117C251.997 108.184 252.03 108.264 252.03 108.357V112.937C252.03 113.031 251.997 113.114 251.93 113.187C251.863 113.254 251.783 113.287 251.69 113.287C251.597 113.287 251.517 113.254 251.45 113.187C251.383 113.114 251.35 113.031 251.35 112.937V112.037C251.297 112.277 251.1 112.551 250.76 112.857C250.407 113.157 249.967 113.307 249.44 113.307ZM258.351 107.977C258.598 107.977 258.831 108.017 259.051 108.097C259.278 108.171 259.488 108.287 259.681 108.447C259.874 108.607 260.028 108.837 260.141 109.137C260.261 109.431 260.321 109.774 260.321 110.167V112.927C260.321 113.021 260.288 113.104 260.221 113.177C260.154 113.244 260.074 113.277 259.981 113.277C259.888 113.277 259.808 113.244 259.741 113.177C259.674 113.104 259.641 113.021 259.641 112.927V110.167C259.641 109.647 259.508 109.254 259.241 108.987C258.974 108.721 258.624 108.587 258.191 108.587C257.704 108.587 257.308 108.747 257.001 109.067C256.701 109.367 256.514 109.717 256.441 110.117V112.927C256.441 113.021 256.408 113.104 256.341 113.177C256.274 113.244 256.194 113.277 256.101 113.277C256.008 113.277 255.928 113.244 255.861 113.177C255.794 113.104 255.761 113.021 255.761 112.927V106.427C255.754 106.287 255.808 106.191 255.921 106.137C256.041 106.077 256.158 106.077 256.271 106.137C256.391 106.191 256.448 106.287 256.441 106.427V109.247C256.494 109.001 256.691 108.731 257.031 108.437C257.378 108.131 257.818 107.977 258.351 107.977ZM263.803 107.967C264.21 107.967 264.58 108.067 264.913 108.267C265.253 108.461 265.503 108.731 265.663 109.077V108.347C265.663 108.254 265.696 108.174 265.763 108.107C265.83 108.034 265.91 107.997 266.003 107.997C266.103 107.997 266.186 108.034 266.253 108.107C266.32 108.174 266.353 108.254 266.353 108.347V112.937C266.353 113.031 266.316 113.114 266.243 113.187C266.176 113.254 266.096 113.287 266.003 113.287C265.916 113.287 265.836 113.254 265.763 113.187C265.696 113.114 265.663 113.031 265.663 112.937V112.097C265.516 112.457 265.273 112.747 264.933 112.967C264.6 113.187 264.223 113.297 263.803 113.297C263.176 113.297 262.606 113.061 262.093 112.587C261.58 112.114 261.323 111.461 261.323 110.627C261.323 109.801 261.58 109.151 262.093 108.677C262.606 108.204 263.176 107.967 263.803 107.967ZM262.573 112.157C262.966 112.517 263.4 112.697 263.873 112.697C264.346 112.697 264.77 112.517 265.143 112.157C265.516 111.784 265.703 111.274 265.703 110.627C265.703 109.961 265.516 109.451 265.143 109.097C264.77 108.744 264.346 108.567 263.873 108.567C263.4 108.567 262.966 108.747 262.573 109.107C262.193 109.467 262.003 109.974 262.003 110.627C262.003 111.281 262.193 111.791 262.573 112.157ZM271.403 107.997C271.49 107.997 271.563 108.031 271.623 108.097C271.69 108.157 271.723 108.231 271.723 108.317C271.723 108.331 271.713 108.377 271.693 108.457L269.733 112.987C269.64 113.161 269.526 113.247 269.393 113.247C269.24 113.247 269.126 113.161 269.053 112.987L267.083 108.457C267.063 108.377 267.053 108.331 267.053 108.317C267.053 108.231 267.083 108.157 267.143 108.097C267.21 108.031 267.286 107.997 267.373 107.997C267.526 107.997 267.633 108.071 267.693 108.217L269.393 112.227L271.083 108.217C271.143 108.071 271.25 107.997 271.403 107.997ZM274.361 107.967C274.988 107.967 275.561 108.197 276.081 108.657C276.601 109.117 276.861 109.734 276.861 110.507C276.861 110.767 276.714 110.897 276.421 110.897H272.521C272.561 111.477 272.768 111.924 273.141 112.237C273.514 112.544 273.954 112.697 274.461 112.697C274.954 112.697 275.374 112.554 275.721 112.267C275.854 112.167 275.954 112.117 276.021 112.117C276.101 112.117 276.164 112.144 276.211 112.197C276.264 112.244 276.291 112.307 276.291 112.387C276.291 112.481 276.228 112.587 276.101 112.707C275.681 113.087 275.128 113.277 274.441 113.277C273.748 113.277 273.138 113.047 272.611 112.587C272.084 112.121 271.821 111.467 271.821 110.627C271.821 110.201 271.898 109.814 272.051 109.467C272.211 109.114 272.414 108.834 272.661 108.627C272.914 108.414 273.188 108.251 273.481 108.137C273.774 108.024 274.068 107.967 274.361 107.967ZM275.591 109.037C275.218 108.724 274.808 108.567 274.361 108.567C273.914 108.567 273.504 108.724 273.131 109.037C272.764 109.344 272.561 109.781 272.521 110.347H276.201C276.161 109.781 275.958 109.344 275.591 109.037ZM285.22 106.437V112.937C285.22 113.031 285.183 113.114 285.11 113.187C285.043 113.254 284.963 113.287 284.87 113.287C284.783 113.287 284.703 113.254 284.63 113.187C284.563 113.114 284.53 113.031 284.53 112.937V112.097C284.383 112.457 284.14 112.747 283.8 112.967C283.467 113.187 283.09 113.297 282.67 113.297C282.043 113.297 281.473 113.061 280.96 112.587C280.447 112.114 280.19 111.461 280.19 110.627C280.19 109.801 280.447 109.151 280.96 108.677C281.473 108.204 282.043 107.967 282.67 107.967C283.077 107.967 283.447 108.067 283.78 108.267C284.12 108.461 284.37 108.731 284.53 109.077V108.347C284.53 108.301 284.533 108.274 284.54 108.267V106.437C284.54 106.344 284.573 106.264 284.64 106.197C284.707 106.124 284.787 106.087 284.88 106.087C284.973 106.087 285.053 106.124 285.12 106.197C285.187 106.264 285.22 106.344 285.22 106.437ZM281.44 112.157C281.833 112.517 282.267 112.697 282.74 112.697C283.213 112.697 283.637 112.517 284.01 112.157C284.383 111.784 284.57 111.274 284.57 110.627C284.57 109.961 284.383 109.451 284.01 109.097C283.637 108.744 283.213 108.567 282.74 108.567C282.267 108.567 281.833 108.747 281.44 109.107C281.06 109.467 280.87 109.974 280.87 110.627C280.87 111.281 281.06 111.791 281.44 112.157ZM288.385 113.307C288.139 113.307 287.902 113.271 287.675 113.197C287.455 113.117 287.249 112.997 287.055 112.837C286.862 112.677 286.705 112.451 286.585 112.157C286.472 111.857 286.415 111.511 286.415 111.117V108.357C286.415 108.264 286.449 108.184 286.515 108.117C286.582 108.044 286.662 108.007 286.755 108.007C286.849 108.007 286.929 108.044 286.995 108.117C287.062 108.184 287.095 108.264 287.095 108.357V111.117C287.095 111.637 287.229 112.031 287.495 112.297C287.762 112.564 288.112 112.697 288.545 112.697C289.025 112.697 289.422 112.541 289.735 112.227C290.035 111.914 290.222 111.561 290.295 111.167V108.357C290.295 108.264 290.329 108.184 290.395 108.117C290.462 108.044 290.542 108.007 290.635 108.007C290.729 108.007 290.809 108.044 290.875 108.117C290.942 108.184 290.975 108.264 290.975 108.357V112.937C290.975 113.031 290.942 113.114 290.875 113.187C290.809 113.254 290.729 113.287 290.635 113.287C290.542 113.287 290.462 113.254 290.395 113.187C290.329 113.114 290.295 113.031 290.295 112.937V112.037C290.242 112.277 290.045 112.551 289.705 112.857C289.352 113.157 288.912 113.307 288.385 113.307ZM294.517 107.967C295.144 107.967 295.717 108.197 296.237 108.657C296.757 109.117 297.017 109.734 297.017 110.507C297.017 110.767 296.87 110.897 296.577 110.897H292.677C292.717 111.477 292.924 111.924 293.297 112.237C293.67 112.544 294.11 112.697 294.617 112.697C295.11 112.697 295.53 112.554 295.877 112.267C296.01 112.167 296.11 112.117 296.177 112.117C296.257 112.117 296.32 112.144 296.367 112.197C296.42 112.244 296.447 112.307 296.447 112.387C296.447 112.481 296.384 112.587 296.257 112.707C295.837 113.087 295.284 113.277 294.597 113.277C293.904 113.277 293.294 113.047 292.767 112.587C292.24 112.121 291.977 111.467 291.977 110.627C291.977 110.201 292.054 109.814 292.207 109.467C292.367 109.114 292.57 108.834 292.817 108.627C293.07 108.414 293.344 108.251 293.637 108.137C293.93 108.024 294.224 107.967 294.517 107.967ZM295.747 109.037C295.374 108.724 294.964 108.567 294.517 108.567C294.07 108.567 293.66 108.724 293.287 109.037C292.92 109.344 292.717 109.781 292.677 110.347H296.357C296.317 109.781 296.114 109.344 295.747 109.037ZM302.406 112.617C302.5 112.591 302.58 112.601 302.646 112.647C302.713 112.694 302.746 112.761 302.746 112.847C302.746 112.987 302.66 113.094 302.486 113.167C302.313 113.241 302.106 113.277 301.866 113.277C301.24 113.277 300.926 112.947 300.926 112.287V108.607H300.436C300.316 108.607 300.23 108.561 300.176 108.467C300.13 108.367 300.13 108.271 300.176 108.177C300.23 108.077 300.316 108.027 300.436 108.027H300.926V107.117C300.92 106.977 300.973 106.881 301.086 106.827C301.206 106.767 301.323 106.767 301.436 106.827C301.556 106.881 301.613 106.977 301.606 107.117V108.027H302.446C302.566 108.027 302.653 108.077 302.706 108.177C302.76 108.271 302.76 108.367 302.706 108.467C302.653 108.561 302.566 108.607 302.446 108.607H301.606V112.247C301.606 112.541 301.74 112.687 302.006 112.687C302.113 112.687 302.246 112.664 302.406 112.617ZM304.927 108.137C305.213 108.031 305.51 107.977 305.817 107.977C306.13 107.977 306.433 108.031 306.727 108.137C307.02 108.237 307.293 108.404 307.547 108.637C307.807 108.864 308.017 109.141 308.177 109.467C308.337 109.814 308.417 110.201 308.417 110.627C308.417 111.054 308.337 111.444 308.177 111.797C307.89 112.424 307.403 112.867 306.717 113.127C306.323 113.254 305.927 113.304 305.527 113.277C305.127 113.251 304.737 113.107 304.357 112.847C303.977 112.581 303.687 112.231 303.487 111.797C303.327 111.444 303.247 111.054 303.247 110.627C303.247 110.201 303.327 109.814 303.487 109.467C303.767 108.847 304.247 108.404 304.927 108.137ZM307.147 109.117C306.76 108.751 306.32 108.567 305.827 108.567C305.333 108.567 304.893 108.751 304.507 109.117C304.12 109.477 303.927 109.981 303.927 110.627C303.927 111.281 304.12 111.791 304.507 112.157C304.893 112.517 305.333 112.697 305.827 112.697C306.32 112.697 306.76 112.517 307.147 112.157C307.54 111.784 307.737 111.274 307.737 110.627C307.737 109.981 307.54 109.477 307.147 109.117ZM314.048 106.437V112.937C314.048 113.031 314.011 113.114 313.938 113.187C313.871 113.254 313.791 113.287 313.698 113.287C313.611 113.287 313.531 113.254 313.458 113.187C313.391 113.114 313.358 113.031 313.358 112.937V112.097C313.211 112.457 312.968 112.747 312.628 112.967C312.295 113.187 311.918 113.297 311.498 113.297C310.871 113.297 310.301 113.061 309.788 112.587C309.275 112.114 309.018 111.461 309.018 110.627C309.018 109.801 309.275 109.151 309.788 108.677C310.301 108.204 310.871 107.967 311.498 107.967C311.905 107.967 312.275 108.067 312.608 108.267C312.948 108.461 313.198 108.731 313.358 109.077V108.347C313.358 108.301 313.361 108.274 313.368 108.267V106.437C313.368 106.344 313.401 106.264 313.468 106.197C313.535 106.124 313.615 106.087 313.708 106.087C313.801 106.087 313.881 106.124 313.948 106.197C314.015 106.264 314.048 106.344 314.048 106.437ZM310.268 112.157C310.661 112.517 311.095 112.697 311.568 112.697C312.041 112.697 312.465 112.517 312.838 112.157C313.211 111.784 313.398 111.274 313.398 110.627C313.398 109.961 313.211 109.451 312.838 109.097C312.465 108.744 312.041 108.567 311.568 108.567C311.095 108.567 310.661 108.747 310.268 109.107C309.888 109.467 309.698 109.974 309.698 110.627C309.698 111.281 309.888 111.791 310.268 112.157ZM317.524 107.967C317.93 107.967 318.3 108.067 318.634 108.267C318.974 108.461 319.224 108.731 319.384 109.077V108.347C319.384 108.254 319.417 108.174 319.484 108.107C319.55 108.034 319.63 107.997 319.724 107.997C319.824 107.997 319.907 108.034 319.974 108.107C320.04 108.174 320.074 108.254 320.074 108.347V112.937C320.074 113.031 320.037 113.114 319.964 113.187C319.897 113.254 319.817 113.287 319.724 113.287C319.637 113.287 319.557 113.254 319.484 113.187C319.417 113.114 319.384 113.031 319.384 112.937V112.097C319.237 112.457 318.994 112.747 318.654 112.967C318.32 113.187 317.944 113.297 317.524 113.297C316.897 113.297 316.327 113.061 315.814 112.587C315.3 112.114 315.044 111.461 315.044 110.627C315.044 109.801 315.3 109.151 315.814 108.677C316.327 108.204 316.897 107.967 317.524 107.967ZM316.294 112.157C316.687 112.517 317.12 112.697 317.594 112.697C318.067 112.697 318.49 112.517 318.864 112.157C319.237 111.784 319.424 111.274 319.424 110.627C319.424 109.961 319.237 109.451 318.864 109.097C318.49 108.744 318.067 108.567 317.594 108.567C317.12 108.567 316.687 108.747 316.294 109.107C315.914 109.467 315.724 109.974 315.724 110.627C315.724 111.281 315.914 111.791 316.294 112.157ZM325.184 107.997C325.27 107.997 325.344 108.031 325.404 108.097C325.47 108.157 325.504 108.231 325.504 108.317C325.504 108.364 325.49 108.411 325.464 108.457L322.684 114.957C322.624 115.104 322.517 115.177 322.364 115.177C322.277 115.177 322.204 115.144 322.144 115.077C322.09 115.017 322.064 114.944 322.064 114.857C322.064 114.844 322.074 114.797 322.094 114.717L322.804 113.057L320.804 108.457C320.784 108.377 320.774 108.331 320.774 108.317C320.774 108.231 320.804 108.157 320.864 108.097C320.93 108.031 321.007 107.997 321.094 107.997C321.247 107.997 321.354 108.071 321.414 108.217L323.134 112.277L324.864 108.217C324.924 108.071 325.03 107.997 325.184 107.997Z" fill="black"/>
<path d="M86.0105 145.143C86.0898 145.69 86.5972 146.069 87.1437 145.99L96.0505 144.698C96.5971 144.618 96.9759 144.111 96.8966 143.565C96.8174 143.018 96.31 142.639 95.7635 142.718L87.8463 143.867L86.698 135.95C86.6187 135.403 86.1114 135.024 85.5648 135.103C85.0182 135.183 84.6394 135.69 84.7187 136.237L86.0105 145.143ZM258.643 129.724C258.643 137.225 256.847 141.638 253.891 144.042C250.917 146.462 246.491 147.08 240.674 146.307C234.881 145.538 227.93 143.421 220.118 140.646C212.283 137.864 203.761 134.489 194.664 131.173C176.577 124.58 156.598 118.367 137.591 118.551C118.518 118.735 100.413 125.364 86.1989 144.402L87.8015 145.598C101.587 127.136 119.062 120.73 137.61 120.551C156.224 120.37 175.906 126.464 193.979 133.052C202.963 136.326 211.647 139.76 219.449 142.531C227.275 145.311 234.395 147.491 240.411 148.29C246.405 149.086 251.53 148.541 255.153 145.594C258.795 142.632 260.643 137.473 260.643 129.724L258.643 129.724Z" fill="#FFC062"/>
<path d="M48.0039 28.3269H45.8701C45.32 28.3269 44.874 27.8809 44.874 27.3308C44.874 26.7807 45.32 26.3347 45.8701 26.3347H48.0039C48.5541 26.3347 49 26.7807 49 27.3308C49 27.8809 48.5541 28.3269 48.0039 28.3269Z" fill="#FDB442"/>
<path d="M38.3734 48.7401H35.1299V44.4298C35.1299 43.8934 34.7177 43.4319 34.1819 43.4067C33.6099 43.3797 33.1377 43.8355 33.1377 44.4016V49.7362C33.1377 50.2863 33.5837 50.7323 34.1338 50.7323H38.4015C38.9676 50.7323 39.4234 50.2601 39.3964 49.6881C39.3712 49.1523 38.9097 48.7401 38.3734 48.7401Z" fill="#A54628"/>
<path d="M34.134 48.7401H30.8623V44.4016C30.8623 43.8515 30.4164 43.4055 29.8663 43.4055C29.3161 43.4055 28.8702 43.8515 28.8702 44.4016V48.7401H27.7324C27.1823 48.7401 26.7363 49.1861 26.7363 49.7362C26.7363 50.2863 27.1823 50.7323 27.7324 50.7323H34.134C34.6841 50.7323 35.1301 50.2863 35.1301 49.7362C35.1301 49.1861 34.6841 48.7401 34.134 48.7401Z" fill="#D26432"/>
<path d="M37.3348 45.3978H26.6655C26.1154 45.3978 25.6694 44.9518 25.6694 44.4017C25.6694 43.8516 26.1154 43.4056 26.6655 43.4056C30.2344 43.4056 33.1379 40.502 33.1379 36.9332V26.264C33.1379 25.9998 33.2429 25.7465 33.4297 25.5597C33.4297 25.5596 34.9606 24.0287 36.1874 22.8008C37.3311 21.6565 38.9159 21.0002 40.5356 21.0002C42.2052 21.0002 43.837 21.6763 45.0124 22.8548C46.2073 24.0465 46.8663 25.6365 46.8663 27.3299V35.8663L37.3348 45.3978Z" fill="#FDB442"/>
<path d="M40.5354 21C38.9157 21 37.3309 21.6563 36.1872 22.8006C35.8451 23.143 35.4794 23.5088 35.1299 23.8585V45.3976H37.3346L46.8661 35.8661V27.3296C46.8661 25.6362 46.207 24.0463 45.0122 22.8545C43.8367 21.676 42.2049 21 40.5354 21V21Z" fill="#FF8C28"/>
<path d="M40.5356 28.3269C41.0858 28.3269 41.5317 27.8809 41.5317 27.3308C41.5317 26.7807 41.0858 26.3347 40.5356 26.3347C39.9855 26.3347 39.5396 26.7807 39.5396 27.3308C39.5396 27.8809 39.9855 28.3269 40.5356 28.3269Z" fill="#78281E"/>
<path d="M26.6654 45.3977H15.9961C15.5932 45.3977 15.23 45.1551 15.0758 44.7828C14.9217 44.4106 15.0069 43.9821 15.2918 43.6972L35.13 23.8586V36.9331C35.13 41.6005 31.3328 45.3977 26.6654 45.3977V45.3977Z" fill="#FADC5C"/>
<path d="M46.866 35.867V35.866C41.6102 35.866 37.3345 40.1413 37.3345 45.3974C42.5901 45.3974 46.866 41.1222 46.866 35.867V35.867Z" fill="#FDB442"/>
<path d="M63.3143 41.2C63.6976 41.1667 63.9976 41.2583 64.2143 41.475C64.4309 41.675 64.5393 41.975 64.5393 42.375C64.5393 42.925 64.2809 43.3583 63.7643 43.675C63.2643 43.975 62.5809 44.125 61.7143 44.125C60.6643 44.125 59.8309 43.85 59.2143 43.3C58.5976 42.7333 58.2893 41.6667 58.2893 40.1V33.575H57.5643C57.1643 33.575 56.8393 33.4583 56.5893 33.225C56.3559 32.9917 56.2393 32.6833 56.2393 32.3C56.2393 31.9167 56.3559 31.6083 56.5893 31.375C56.8393 31.125 57.1643 31 57.5643 31H58.2893V29.3C58.2893 28.85 58.4476 28.4667 58.7643 28.15C59.0976 27.8167 59.4893 27.65 59.9393 27.65C60.3893 27.65 60.7726 27.8167 61.0893 28.15C61.4059 28.4667 61.5643 28.85 61.5643 29.3V31H63.2143C63.6309 31 63.9559 31.1167 64.1893 31.35C64.4226 31.5833 64.5393 31.9 64.5393 32.3C64.5393 32.6833 64.4143 32.9917 64.1643 33.225C63.9309 33.4583 63.6143 33.575 63.2143 33.575H61.5643V40.2C61.5643 40.9333 61.8309 41.3 62.3643 41.3C62.4143 41.3 62.5726 41.2833 62.8393 41.25C63.1059 41.2167 63.2643 41.2 63.3143 41.2ZM72.4719 30.85C74.0552 30.85 75.5219 31.4 76.8719 32.5C77.5552 33.05 78.1052 33.7667 78.5219 34.65C78.9385 35.5333 79.1469 36.4917 79.1469 37.525C79.1469 38.5917 78.9302 39.5667 78.4969 40.45C78.0802 41.3167 77.5385 42.0167 76.8719 42.55C76.2052 43.0667 75.4885 43.4667 74.7219 43.75C73.9552 44.0333 73.2052 44.175 72.4719 44.175C71.4385 44.175 70.4302 43.9417 69.4469 43.475C68.4302 42.9917 67.5719 42.2333 66.8719 41.2C66.1552 40.1667 65.7969 38.9417 65.7969 37.525C65.7969 36.1083 66.1552 34.8833 66.8719 33.85C67.5719 32.85 68.4135 32.1 69.3969 31.6C70.3802 31.1 71.4052 30.85 72.4719 30.85ZM69.0469 37.525C69.0469 38.6917 69.3802 39.6167 70.0469 40.3C70.7302 40.9833 71.5385 41.325 72.4719 41.325C73.3885 41.325 74.1885 40.9833 74.8719 40.3C75.5552 39.5833 75.8969 38.6583 75.8969 37.525C75.8969 36.3583 75.5552 35.4333 74.8719 34.75C74.1885 34.05 73.3885 33.7 72.4719 33.7C71.5219 33.7 70.7135 34.05 70.0469 34.75C69.3802 35.4167 69.0469 36.3417 69.0469 37.525ZM92.065 26.15C92.515 26.15 92.9067 26.3167 93.24 26.65C93.5734 26.9667 93.74 27.3417 93.74 27.775V42.525C93.74 42.975 93.5734 43.3583 93.24 43.675C92.9067 43.9917 92.515 44.15 92.065 44.15C91.615 44.15 91.2234 43.9917 90.89 43.675C90.5734 43.3583 90.415 42.975 90.415 42.525V42.05C90.2817 42.5167 89.8817 42.9917 89.215 43.475C88.5484 43.9417 87.715 44.175 86.715 44.175C85.265 44.175 83.915 43.6417 82.665 42.575C81.3317 41.375 80.665 39.6833 80.665 37.5C80.665 36.1 80.9817 34.8833 81.615 33.85C82.265 32.8 83.04 32.0417 83.94 31.575C84.84 31.0917 85.765 30.85 86.715 30.85C87.565 30.85 88.3234 31.05 88.99 31.45C89.6734 31.85 90.1484 32.3583 90.415 32.975V32.55C90.415 32.4167 90.4234 32.325 90.44 32.275V27.775C90.44 27.3417 90.5984 26.9667 90.915 26.65C91.2484 26.3167 91.6317 26.15 92.065 26.15ZM87.315 41.35C88.1317 41.35 88.8817 41.0333 89.565 40.4C90.2317 39.75 90.565 38.7833 90.565 37.5C90.565 36.2 90.2317 35.2417 89.565 34.625C88.8984 33.975 88.1484 33.65 87.315 33.65C86.415 33.65 85.6234 33.9917 84.94 34.675C84.2734 35.3417 83.94 36.2833 83.94 37.5C83.94 38.7333 84.2734 39.6833 84.94 40.35C85.6067 41.0167 86.3984 41.35 87.315 41.35ZM102.916 30.85C104.5 30.85 105.966 31.4 107.316 32.5C108 33.05 108.55 33.7667 108.966 34.65C109.383 35.5333 109.591 36.4917 109.591 37.525C109.591 38.5917 109.375 39.5667 108.941 40.45C108.525 41.3167 107.983 42.0167 107.316 42.55C106.65 43.0667 105.933 43.4667 105.166 43.75C104.4 44.0333 103.65 44.175 102.916 44.175C101.883 44.175 100.875 43.9417 99.8912 43.475C98.8745 42.9917 98.0162 42.2333 97.3162 41.2C96.5995 40.1667 96.2412 38.9417 96.2412 37.525C96.2412 36.1083 96.5995 34.8833 97.3162 33.85C98.0162 32.85 98.8579 32.1 99.8412 31.6C100.825 31.1 101.85 30.85 102.916 30.85ZM99.4912 37.525C99.4912 38.6917 99.8245 39.6167 100.491 40.3C101.175 40.9833 101.983 41.325 102.916 41.325C103.833 41.325 104.633 40.9833 105.316 40.3C106 39.5833 106.341 38.6583 106.341 37.525C106.341 36.3583 106 35.4333 105.316 34.75C104.633 34.05 103.833 33.7 102.916 33.7C101.966 33.7 101.158 34.05 100.491 34.75C99.8245 35.4167 99.4912 36.3417 99.4912 37.525ZM117.784 30.85C119.368 30.85 120.834 31.4 122.184 32.5C122.868 33.05 123.418 33.7667 123.834 34.65C124.251 35.5333 124.459 36.4917 124.459 37.525C124.459 38.5917 124.243 39.5667 123.809 40.45C123.393 41.3167 122.851 42.0167 122.184 42.55C121.518 43.0667 120.801 43.4667 120.034 43.75C119.268 44.0333 118.518 44.175 117.784 44.175C116.751 44.175 115.743 43.9417 114.759 43.475C113.743 42.9917 112.884 42.2333 112.184 41.2C111.468 40.1667 111.109 38.9417 111.109 37.525C111.109 36.1083 111.468 34.8833 112.184 33.85C112.884 32.85 113.726 32.1 114.709 31.6C115.693 31.1 116.718 30.85 117.784 30.85ZM114.359 37.525C114.359 38.6917 114.693 39.6167 115.359 40.3C116.043 40.9833 116.851 41.325 117.784 41.325C118.701 41.325 119.501 40.9833 120.184 40.3C120.868 39.5833 121.209 38.6583 121.209 37.525C121.209 36.3583 120.868 35.4333 120.184 34.75C119.501 34.05 118.701 33.7 117.784 33.7C116.834 33.7 116.026 34.05 115.359 34.75C114.693 35.4167 114.359 36.3417 114.359 37.525ZM132.653 30.85C134.236 30.85 135.703 31.4 137.053 32.5C137.736 33.05 138.286 33.7667 138.703 34.65C139.119 35.5333 139.328 36.4917 139.328 37.525C139.328 38.5917 139.111 39.5667 138.678 40.45C138.261 41.3167 137.719 42.0167 137.053 42.55C136.386 43.0667 135.669 43.4667 134.903 43.75C134.136 44.0333 133.386 44.175 132.653 44.175C131.619 44.175 130.611 43.9417 129.628 43.475C128.611 42.9917 127.753 42.2333 127.053 41.2C126.336 40.1667 125.978 38.9417 125.978 37.525C125.978 36.1083 126.336 34.8833 127.053 33.85C127.753 32.85 128.594 32.1 129.578 31.6C130.561 31.1 131.586 30.85 132.653 30.85ZM129.228 37.525C129.228 38.6917 129.561 39.6167 130.228 40.3C130.911 40.9833 131.719 41.325 132.653 41.325C133.569 41.325 134.369 40.9833 135.053 40.3C135.736 39.5833 136.078 38.6583 136.078 37.525C136.078 36.3583 135.736 35.4333 135.053 34.75C134.369 34.05 133.569 33.7 132.653 33.7C131.703 33.7 130.894 34.05 130.228 34.75C129.561 35.4167 129.228 36.3417 129.228 37.525ZM145.796 30.85C146.662 30.85 147.471 31.0167 148.221 31.35C148.971 31.6667 149.546 32.1083 149.946 32.675C150.212 33.0583 150.346 33.425 150.346 33.775C150.346 34.1583 150.229 34.4583 149.996 34.675C149.762 34.8917 149.454 35 149.071 35C148.521 35 148.062 34.7667 147.696 34.3C147.196 33.7333 146.596 33.45 145.896 33.45C145.412 33.45 145.029 33.5583 144.746 33.775C144.479 33.9917 144.346 34.275 144.346 34.625C144.346 35.2083 144.779 35.625 145.646 35.875L147.171 36.325C148.387 36.6583 149.304 37.1167 149.921 37.7C150.537 38.2667 150.846 39.05 150.846 40.05C150.846 41.35 150.337 42.3583 149.321 43.075C148.321 43.775 147.112 44.125 145.696 44.125C143.796 44.125 142.362 43.525 141.396 42.325C140.946 41.7083 140.721 41.1833 140.721 40.75C140.721 40.4167 140.829 40.125 141.046 39.875C141.279 39.625 141.587 39.5 141.971 39.5C142.437 39.5 142.887 39.7667 143.321 40.3C143.937 41.0667 144.729 41.45 145.696 41.45C146.279 41.45 146.737 41.3417 147.071 41.125C147.421 40.8917 147.596 40.5917 147.596 40.225C147.596 39.625 147.104 39.1833 146.121 38.9L144.696 38.475C142.312 37.7917 141.121 36.5167 141.121 34.65C141.121 33.4667 141.579 32.5417 142.496 31.875C143.429 31.1917 144.529 30.85 145.796 30.85Z" fill="#FF8C28"/>
<path d="M34.9 140.091H34.35V139H33.25V140.091H27.75V139H26.65V140.091H26.1C25.495 140.091 25 140.582 25 141.182V149.909C25 150.509 25.495 151 26.1 151H34.9C35.505 151 36 150.509 36 149.909V141.182C36 140.582 35.505 140.091 34.9 140.091ZM34.9 149.909H26.1V142.818H34.9V149.909Z" fill="#646464"/>
<path d="M42.78 139.9H48.422C48.526 139.9 48.617 139.939 48.695 140.017C48.7817 140.095 48.825 140.186 48.825 140.29C48.825 140.403 48.7817 140.498 48.695 140.576C48.617 140.654 48.526 140.693 48.422 140.693H46.056V148.584C46.056 148.705 46.0127 148.814 45.926 148.909C45.8393 149.004 45.7353 149.052 45.614 149.052C45.484 149.052 45.3757 149.009 45.289 148.922C45.2023 148.827 45.159 148.714 45.159 148.584V140.693H42.78C42.676 140.693 42.585 140.654 42.507 140.576C42.429 140.498 42.39 140.403 42.39 140.29C42.39 140.186 42.429 140.095 42.507 140.017C42.585 139.939 42.676 139.9 42.78 139.9ZM49.515 142.383C49.8877 142.244 50.2733 142.175 50.672 142.175C51.0793 142.175 51.4737 142.244 51.855 142.383C52.2363 142.513 52.5917 142.73 52.921 143.033C53.259 143.328 53.532 143.687 53.74 144.112C53.948 144.563 54.052 145.065 54.052 145.62C54.052 146.175 53.948 146.682 53.74 147.141C53.3673 147.956 52.7347 148.532 51.842 148.87C51.3307 149.035 50.815 149.1 50.295 149.065C49.775 149.03 49.268 148.844 48.774 148.506C48.28 148.159 47.903 147.704 47.643 147.141C47.435 146.682 47.331 146.175 47.331 145.62C47.331 145.065 47.435 144.563 47.643 144.112C48.007 143.306 48.631 142.73 49.515 142.383ZM52.401 143.657C51.8983 143.18 51.3263 142.942 50.685 142.942C50.0437 142.942 49.4717 143.18 48.969 143.657C48.4663 144.125 48.215 144.779 48.215 145.62C48.215 146.469 48.4663 147.132 48.969 147.609C49.4717 148.077 50.0437 148.311 50.685 148.311C51.3263 148.311 51.8983 148.077 52.401 147.609C52.9123 147.124 53.168 146.461 53.168 145.62C53.168 144.779 52.9123 144.125 52.401 143.657ZM61.8929 140.173V148.623C61.8929 148.744 61.8453 148.853 61.7499 148.948C61.6633 149.035 61.5593 149.078 61.4379 149.078C61.3253 149.078 61.2213 149.035 61.1259 148.948C61.0393 148.853 60.9959 148.744 60.9959 148.623V147.531C60.8053 147.999 60.4889 148.376 60.0469 148.662C59.6136 148.948 59.1239 149.091 58.5779 149.091C57.7633 149.091 57.0223 148.783 56.3549 148.168C55.6876 147.553 55.3539 146.703 55.3539 145.62C55.3539 144.545 55.6876 143.7 56.3549 143.085C57.0223 142.47 57.7633 142.162 58.5779 142.162C59.1066 142.162 59.5876 142.292 60.0209 142.552C60.4629 142.803 60.7879 143.154 60.9959 143.605V142.656C60.9959 142.595 61.0003 142.561 61.0089 142.552V140.173C61.0089 140.052 61.0523 139.948 61.1389 139.861C61.2256 139.766 61.3296 139.718 61.4509 139.718C61.5723 139.718 61.6763 139.766 61.7629 139.861C61.8496 139.948 61.8929 140.052 61.8929 140.173ZM56.9789 147.609C57.4903 148.077 58.0536 148.311 58.6689 148.311C59.2843 148.311 59.8346 148.077 60.3199 147.609C60.8053 147.124 61.0479 146.461 61.0479 145.62C61.0479 144.753 60.8053 144.09 60.3199 143.631C59.8346 143.172 59.2843 142.942 58.6689 142.942C58.0536 142.942 57.4903 143.176 56.9789 143.644C56.4849 144.112 56.2379 144.771 56.2379 145.62C56.2379 146.469 56.4849 147.132 56.9789 147.609ZM66.931 142.162C67.4596 142.162 67.9406 142.292 68.374 142.552C68.816 142.803 69.141 143.154 69.349 143.605V142.656C69.349 142.535 69.3923 142.431 69.479 142.344C69.5656 142.249 69.6696 142.201 69.791 142.201C69.921 142.201 70.0293 142.249 70.116 142.344C70.2026 142.431 70.246 142.535 70.246 142.656V148.623C70.246 148.744 70.1983 148.853 70.103 148.948C70.0163 149.035 69.9123 149.078 69.791 149.078C69.6783 149.078 69.5743 149.035 69.479 148.948C69.3923 148.853 69.349 148.744 69.349 148.623V147.531C69.1583 147.999 68.842 148.376 68.4 148.662C67.9666 148.948 67.477 149.091 66.931 149.091C66.1163 149.091 65.3753 148.783 64.708 148.168C64.0406 147.553 63.707 146.703 63.707 145.62C63.707 144.545 64.0406 143.7 64.708 143.085C65.3753 142.47 66.1163 142.162 66.931 142.162ZM65.332 147.609C65.8433 148.077 66.4066 148.311 67.022 148.311C67.6373 148.311 68.1876 148.077 68.673 147.609C69.1583 147.124 69.401 146.461 69.401 145.62C69.401 144.753 69.1583 144.09 68.673 143.631C68.1876 143.172 67.6373 142.942 67.022 142.942C66.4066 142.942 65.8433 143.176 65.332 143.644C64.838 144.112 64.591 144.771 64.591 145.62C64.591 146.469 64.838 147.132 65.332 147.609ZM77.4091 142.201C77.5217 142.201 77.6171 142.244 77.6951 142.331C77.7817 142.409 77.8251 142.504 77.8251 142.617C77.8251 142.678 77.8077 142.738 77.7731 142.799L74.1591 151.249C74.0811 151.44 73.9424 151.535 73.7431 151.535C73.6304 151.535 73.5351 151.492 73.4571 151.405C73.3877 151.327 73.3531 151.232 73.3531 151.119C73.3531 151.102 73.3661 151.041 73.3921 150.937L74.3151 148.779L71.7151 142.799C71.6891 142.695 71.6761 142.634 71.6761 142.617C71.6761 142.504 71.7151 142.409 71.7931 142.331C71.8797 142.244 71.9794 142.201 72.0921 142.201C72.2914 142.201 72.4301 142.296 72.5081 142.487L74.7441 147.765L76.9931 142.487C77.0711 142.296 77.2097 142.201 77.4091 142.201Z" fill="#646464"/>
<path d="M42.78 163.9H48.422C48.526 163.9 48.617 163.939 48.695 164.017C48.7817 164.095 48.825 164.186 48.825 164.29C48.825 164.403 48.7817 164.498 48.695 164.576C48.617 164.654 48.526 164.693 48.422 164.693H46.056V172.584C46.056 172.705 46.0127 172.814 45.926 172.909C45.8393 173.004 45.7353 173.052 45.614 173.052C45.484 173.052 45.3757 173.009 45.289 172.922C45.2023 172.827 45.159 172.714 45.159 172.584V164.693H42.78C42.676 164.693 42.585 164.654 42.507 164.576C42.429 164.498 42.39 164.403 42.39 164.29C42.39 164.186 42.429 164.095 42.507 164.017C42.585 163.939 42.676 163.9 42.78 163.9ZM49.515 166.383C49.8877 166.244 50.2733 166.175 50.672 166.175C51.0793 166.175 51.4737 166.244 51.855 166.383C52.2363 166.513 52.5917 166.73 52.921 167.033C53.259 167.328 53.532 167.687 53.74 168.112C53.948 168.563 54.052 169.065 54.052 169.62C54.052 170.175 53.948 170.682 53.74 171.141C53.3673 171.956 52.7347 172.532 51.842 172.87C51.3307 173.035 50.815 173.1 50.295 173.065C49.775 173.03 49.268 172.844 48.774 172.506C48.28 172.159 47.903 171.704 47.643 171.141C47.435 170.682 47.331 170.175 47.331 169.62C47.331 169.065 47.435 168.563 47.643 168.112C48.007 167.306 48.631 166.73 49.515 166.383ZM52.401 167.657C51.8983 167.18 51.3263 166.942 50.685 166.942C50.0437 166.942 49.4717 167.18 48.969 167.657C48.4663 168.125 48.215 168.779 48.215 169.62C48.215 170.469 48.4663 171.132 48.969 171.609C49.4717 172.077 50.0437 172.311 50.685 172.311C51.3263 172.311 51.8983 172.077 52.401 171.609C52.9123 171.124 53.168 170.461 53.168 169.62C53.168 168.779 52.9123 168.125 52.401 167.657ZM64.0379 166.175C64.3586 166.175 64.6619 166.227 64.9479 166.331C65.2339 166.426 65.5026 166.578 65.7539 166.786C66.0139 166.994 66.2176 167.293 66.3649 167.683C66.5123 168.064 66.5859 168.511 66.5859 169.022V172.61C66.5859 172.731 66.5426 172.84 66.4559 172.935C66.3693 173.022 66.2653 173.065 66.1439 173.065C66.0313 173.065 65.9273 173.022 65.8319 172.935C65.7453 172.84 65.7019 172.731 65.7019 172.61V169.022C65.7019 168.346 65.5286 167.835 65.1819 167.488C64.8353 167.141 64.3846 166.968 63.8299 166.968C63.1886 166.968 62.6686 167.176 62.2699 167.592C61.8799 167.982 61.6373 168.437 61.5419 168.957V169.022V172.61C61.5419 172.731 61.4986 172.84 61.4119 172.935C61.3253 173.022 61.2213 173.065 61.0999 173.065C60.9786 173.065 60.8746 173.022 60.7879 172.935C60.7013 172.84 60.6579 172.731 60.6579 172.61V169.022C60.6579 168.346 60.4846 167.835 60.1379 167.488C59.7913 167.141 59.3363 166.968 58.7729 166.968C58.1403 166.968 57.6246 167.176 57.2259 167.592C56.8359 167.982 56.5933 168.437 56.4979 168.957V172.61C56.4979 172.731 56.4546 172.84 56.3679 172.935C56.2813 173.022 56.1773 173.065 56.0559 173.065C55.9346 173.065 55.8306 173.022 55.7439 172.935C55.6573 172.84 55.6139 172.731 55.6139 172.61V166.656C55.6139 166.535 55.6573 166.431 55.7439 166.344C55.8306 166.249 55.9346 166.201 56.0559 166.201C56.1773 166.201 56.2813 166.249 56.3679 166.344C56.4546 166.431 56.4979 166.535 56.4979 166.656V167.826C56.5673 167.505 56.8229 167.154 57.2649 166.773C57.7156 166.374 58.2876 166.175 58.9809 166.175C59.5529 166.175 60.0556 166.322 60.4889 166.617C60.9223 166.903 61.2213 167.332 61.3859 167.904C61.6113 167.401 61.9536 166.99 62.4129 166.669C62.8809 166.34 63.4226 166.175 64.0379 166.175ZM70.5882 166.383C70.9609 166.244 71.3466 166.175 71.7452 166.175C72.1526 166.175 72.5469 166.244 72.9282 166.383C73.3096 166.513 73.6649 166.73 73.9942 167.033C74.3322 167.328 74.6052 167.687 74.8132 168.112C75.0212 168.563 75.1252 169.065 75.1252 169.62C75.1252 170.175 75.0212 170.682 74.8132 171.141C74.4406 171.956 73.8079 172.532 72.9152 172.87C72.4039 173.035 71.8882 173.1 71.3682 173.065C70.8482 173.03 70.3412 172.844 69.8472 172.506C69.3532 172.159 68.9762 171.704 68.7162 171.141C68.5082 170.682 68.4042 170.175 68.4042 169.62C68.4042 169.065 68.5082 168.563 68.7162 168.112C69.0802 167.306 69.7042 166.73 70.5882 166.383ZM73.4742 167.657C72.9716 167.18 72.3996 166.942 71.7582 166.942C71.1169 166.942 70.5449 167.18 70.0422 167.657C69.5396 168.125 69.2882 168.779 69.2882 169.62C69.2882 170.469 69.5396 171.132 70.0422 171.609C70.5449 172.077 71.1169 172.311 71.7582 172.311C72.3996 172.311 72.9716 172.077 73.4742 171.609C73.9856 171.124 74.2412 170.461 74.2412 169.62C74.2412 168.779 73.9856 168.125 73.4742 167.657ZM79.9502 166.175C80.1148 166.175 80.2448 166.214 80.3402 166.292C80.4355 166.37 80.4832 166.474 80.4832 166.604C80.4832 166.89 80.2838 167.033 79.8852 167.033C79.2698 167.033 78.7498 167.232 78.3252 167.631C77.9005 168.012 77.6492 168.454 77.5712 168.957V172.61C77.5712 172.731 77.5278 172.84 77.4412 172.935C77.3545 173.022 77.2505 173.065 77.1292 173.065C77.0078 173.065 76.9038 173.022 76.8172 172.935C76.7305 172.84 76.6872 172.731 76.6872 172.61V166.656C76.6872 166.535 76.7305 166.431 76.8172 166.344C76.9038 166.249 77.0078 166.201 77.1292 166.201C77.2505 166.201 77.3545 166.249 77.4412 166.344C77.5278 166.431 77.5712 166.535 77.5712 166.656V167.826C77.6232 167.523 77.8745 167.172 78.3252 166.773C78.7758 166.374 79.3175 166.175 79.9502 166.175ZM85.434 166.175C85.5987 166.175 85.7287 166.214 85.824 166.292C85.9193 166.37 85.967 166.474 85.967 166.604C85.967 166.89 85.7677 167.033 85.369 167.033C84.7537 167.033 84.2337 167.232 83.809 167.631C83.3843 168.012 83.133 168.454 83.055 168.957V172.61C83.055 172.731 83.0117 172.84 82.925 172.935C82.8383 173.022 82.7343 173.065 82.613 173.065C82.4917 173.065 82.3877 173.022 82.301 172.935C82.2143 172.84 82.171 172.731 82.171 172.61V166.656C82.171 166.535 82.2143 166.431 82.301 166.344C82.3877 166.249 82.4917 166.201 82.613 166.201C82.7343 166.201 82.8383 166.249 82.925 166.344C83.0117 166.431 83.055 166.535 83.055 166.656V167.826C83.107 167.523 83.3583 167.172 83.809 166.773C84.2597 166.374 84.8013 166.175 85.434 166.175ZM88.6394 166.383C89.0121 166.244 89.3978 166.175 89.7964 166.175C90.2038 166.175 90.5981 166.244 90.9794 166.383C91.3608 166.513 91.7161 166.73 92.0454 167.033C92.3834 167.328 92.6564 167.687 92.8644 168.112C93.0724 168.563 93.1764 169.065 93.1764 169.62C93.1764 170.175 93.0724 170.682 92.8644 171.141C92.4918 171.956 91.8591 172.532 90.9664 172.87C90.4551 173.035 89.9394 173.1 89.4194 173.065C88.8994 173.03 88.3924 172.844 87.8984 172.506C87.4044 172.159 87.0274 171.704 86.7674 171.141C86.5594 170.682 86.4554 170.175 86.4554 169.62C86.4554 169.065 86.5594 168.563 86.7674 168.112C87.1314 167.306 87.7554 166.73 88.6394 166.383ZM91.5254 167.657C91.0228 167.18 90.4508 166.942 89.8094 166.942C89.1681 166.942 88.5961 167.18 88.0934 167.657C87.5908 168.125 87.3394 168.779 87.3394 169.62C87.3394 170.469 87.5908 171.132 88.0934 171.609C88.5961 172.077 89.1681 172.311 89.8094 172.311C90.4508 172.311 91.0228 172.077 91.5254 171.609C92.0368 171.124 92.2924 170.461 92.2924 169.62C92.2924 168.779 92.0368 168.125 91.5254 167.657ZM103.162 166.201C103.275 166.201 103.37 166.244 103.448 166.331C103.535 166.409 103.578 166.504 103.578 166.617C103.578 166.643 103.569 166.678 103.552 166.721C103.543 166.764 103.539 166.795 103.539 166.812L101.563 172.688C101.476 172.913 101.338 173.026 101.147 173.026C100.956 173.026 100.818 172.913 100.731 172.688L98.7032 167.579L96.6752 172.688C96.5885 172.913 96.4498 173.026 96.2592 173.026C96.0685 173.026 95.9298 172.913 95.8432 172.688L93.8672 166.812C93.8325 166.734 93.8152 166.669 93.8152 166.617C93.8152 166.504 93.8542 166.409 93.9322 166.331C94.0188 166.244 94.1185 166.201 94.2312 166.201C94.4392 166.201 94.5735 166.283 94.6342 166.448L96.3112 171.635L98.2872 166.487C98.3478 166.296 98.4865 166.201 98.7032 166.201C98.9112 166.201 99.0455 166.296 99.1062 166.487L101.095 171.635L102.759 166.448C102.811 166.283 102.945 166.201 103.162 166.201Z" fill="#646464"/>
<path d="M28.6667 168.4H27.4444V169.6H28.6667V168.4ZM31.1111 168.4H29.8889V169.6H31.1111V168.4ZM33.5556 168.4H32.3333V169.6H33.5556V168.4ZM34.7778 164.2H34.1667V163H32.9444V164.2H28.0556V163H26.8333V164.2H26.2222C25.5439 164.2 25.0061 164.74 25.0061 165.4L25 173.8C25 174.46 25.5439 175 26.2222 175H34.7778C35.45 175 36 174.46 36 173.8V165.4C36 164.74 35.45 164.2 34.7778 164.2ZM34.7778 173.8H26.2222V167.2H34.7778V173.8Z" fill="#646464"/>
<path d="M42.78 188.9H48.422C48.526 188.9 48.617 188.939 48.695 189.017C48.7817 189.095 48.825 189.186 48.825 189.29C48.825 189.403 48.7817 189.498 48.695 189.576C48.617 189.654 48.526 189.693 48.422 189.693H46.056V197.584C46.056 197.705 46.0127 197.814 45.926 197.909C45.8393 198.004 45.7353 198.052 45.614 198.052C45.484 198.052 45.3757 198.009 45.289 197.922C45.2023 197.827 45.159 197.714 45.159 197.584V189.693H42.78C42.676 189.693 42.585 189.654 42.507 189.576C42.429 189.498 42.39 189.403 42.39 189.29C42.39 189.186 42.429 189.095 42.507 189.017C42.585 188.939 42.676 188.9 42.78 188.9ZM51.2779 189.368C51.1566 189.507 51.0136 189.546 50.8489 189.485C50.6843 189.416 50.5759 189.307 50.5239 189.16C50.4806 189.013 50.5196 188.87 50.6409 188.731C50.7449 188.627 50.8576 188.579 50.9789 188.588C51.1089 188.597 51.2086 188.644 51.2779 188.731C51.3559 188.818 51.4036 188.917 51.4209 189.03C51.4383 189.143 51.3906 189.255 51.2779 189.368ZM51.4079 191.656V197.623C51.4079 197.744 51.3646 197.853 51.2779 197.948C51.1913 198.035 51.0873 198.078 50.9659 198.078C50.8446 198.078 50.7406 198.035 50.6539 197.948C50.5673 197.853 50.5239 197.744 50.5239 197.623V191.656C50.5239 191.535 50.5673 191.431 50.6539 191.344C50.7406 191.249 50.8446 191.201 50.9659 191.201C51.0873 191.201 51.1913 191.249 51.2779 191.344C51.3646 191.431 51.4079 191.535 51.4079 191.656ZM61.9305 191.175C62.2512 191.175 62.5545 191.227 62.8405 191.331C63.1265 191.426 63.3952 191.578 63.6465 191.786C63.9065 191.994 64.1102 192.293 64.2575 192.683C64.4049 193.064 64.4785 193.511 64.4785 194.022V197.61C64.4785 197.731 64.4352 197.84 64.3485 197.935C64.2619 198.022 64.1579 198.065 64.0365 198.065C63.9239 198.065 63.8199 198.022 63.7245 197.935C63.6379 197.84 63.5945 197.731 63.5945 197.61V194.022C63.5945 193.346 63.4212 192.835 63.0745 192.488C62.7279 192.141 62.2772 191.968 61.7225 191.968C61.0812 191.968 60.5612 192.176 60.1625 192.592C59.7725 192.982 59.5299 193.437 59.4345 193.957V194.022V197.61C59.4345 197.731 59.3912 197.84 59.3045 197.935C59.2179 198.022 59.1139 198.065 58.9925 198.065C58.8712 198.065 58.7672 198.022 58.6805 197.935C58.5939 197.84 58.5505 197.731 58.5505 197.61V194.022C58.5505 193.346 58.3772 192.835 58.0305 192.488C57.6839 192.141 57.2289 191.968 56.6655 191.968C56.0329 191.968 55.5172 192.176 55.1185 192.592C54.7285 192.982 54.4859 193.437 54.3905 193.957V197.61C54.3905 197.731 54.3472 197.84 54.2605 197.935C54.1739 198.022 54.0699 198.065 53.9485 198.065C53.8272 198.065 53.7232 198.022 53.6365 197.935C53.5499 197.84 53.5065 197.731 53.5065 197.61V191.656C53.5065 191.535 53.5499 191.431 53.6365 191.344C53.7232 191.249 53.8272 191.201 53.9485 191.201C54.0699 191.201 54.1739 191.249 54.2605 191.344C54.3472 191.431 54.3905 191.535 54.3905 191.656V192.826C54.4599 192.505 54.7155 192.154 55.1575 191.773C55.6082 191.374 56.1802 191.175 56.8735 191.175C57.4455 191.175 57.9482 191.322 58.3815 191.617C58.8149 191.903 59.1139 192.332 59.2785 192.904C59.5039 192.401 59.8462 191.99 60.3055 191.669C60.7735 191.34 61.3152 191.175 61.9305 191.175ZM69.5988 191.162C70.4135 191.162 71.1588 191.461 71.8348 192.059C72.5108 192.657 72.8488 193.459 72.8488 194.464C72.8488 194.802 72.6581 194.971 72.2768 194.971H67.2068C67.2588 195.725 67.5275 196.306 68.0128 196.713C68.4981 197.112 69.0701 197.311 69.7288 197.311C70.3701 197.311 70.9161 197.125 71.3668 196.752C71.5401 196.622 71.6701 196.557 71.7568 196.557C71.8608 196.557 71.9431 196.592 72.0038 196.661C72.0731 196.722 72.1078 196.804 72.1078 196.908C72.1078 197.029 72.0255 197.168 71.8608 197.324C71.3148 197.818 70.5955 198.065 69.7028 198.065C68.8015 198.065 68.0085 197.766 67.3238 197.168C66.6391 196.561 66.2968 195.712 66.2968 194.62C66.2968 194.065 66.3965 193.563 66.5958 193.112C66.8038 192.653 67.0681 192.289 67.3888 192.02C67.7181 191.743 68.0735 191.53 68.4548 191.383C68.8361 191.236 69.2175 191.162 69.5988 191.162ZM71.1978 192.553C70.7125 192.146 70.1795 191.942 69.5988 191.942C69.0181 191.942 68.4851 192.146 67.9998 192.553C67.5231 192.952 67.2588 193.519 67.2068 194.256H71.9908C71.9388 193.519 71.6745 192.952 71.1978 192.553ZM77.6777 191.175C77.8424 191.175 77.9724 191.214 78.0677 191.292C78.163 191.37 78.2107 191.474 78.2107 191.604C78.2107 191.89 78.0114 192.033 77.6127 192.033C76.9974 192.033 76.4774 192.232 76.0527 192.631C75.628 193.012 75.3767 193.454 75.2987 193.957V197.61C75.2987 197.731 75.2554 197.84 75.1687 197.935C75.082 198.022 74.978 198.065 74.8567 198.065C74.7354 198.065 74.6314 198.022 74.5447 197.935C74.458 197.84 74.4147 197.731 74.4147 197.61V191.656C74.4147 191.535 74.458 191.431 74.5447 191.344C74.6314 191.249 74.7354 191.201 74.8567 191.201C74.978 191.201 75.082 191.249 75.1687 191.344C75.2554 191.431 75.2987 191.535 75.2987 191.656V192.826C75.3507 192.523 75.602 192.172 76.0527 191.773C76.5034 191.374 77.045 191.175 77.6777 191.175Z" fill="#646464"/>
<rect x="20" y="206" width="150" height="22" rx="4" fill="#F2F2F2"/>
<path d="M43.69 213.329V221.194H47.772C47.876 221.194 47.967 221.233 48.045 221.311C48.1317 221.389 48.175 221.484 48.175 221.597C48.175 221.71 48.1317 221.805 48.045 221.883C47.967 221.961 47.876 222 47.772 222H43.274C43.1353 222 43.0183 221.952 42.923 221.857C42.8277 221.762 42.78 221.645 42.78 221.506V213.329C42.78 213.199 42.8233 213.091 42.91 213.004C42.9967 212.909 43.105 212.861 43.235 212.861C43.3563 212.861 43.4603 212.909 43.547 213.004C43.6423 213.091 43.69 213.199 43.69 213.329ZM50.694 213.368C50.5726 213.507 50.4296 213.546 50.265 213.485C50.1003 213.416 49.992 213.307 49.94 213.16C49.8966 213.013 49.9356 212.87 50.057 212.731C50.161 212.627 50.2736 212.579 50.395 212.588C50.525 212.597 50.6246 212.644 50.694 212.731C50.772 212.818 50.8196 212.917 50.837 213.03C50.8543 213.143 50.8066 213.255 50.694 213.368ZM50.824 215.656V221.623C50.824 221.744 50.7806 221.853 50.694 221.948C50.6073 222.035 50.5033 222.078 50.382 222.078C50.2606 222.078 50.1566 222.035 50.07 221.948C49.9833 221.853 49.94 221.744 49.94 221.623V215.656C49.94 215.535 49.9833 215.431 50.07 215.344C50.1566 215.249 50.2606 215.201 50.382 215.201C50.5033 215.201 50.6073 215.249 50.694 215.344C50.7806 215.431 50.824 215.535 50.824 215.656ZM55.0805 215.162C56.0859 215.162 56.8095 215.526 57.2515 216.254C57.3555 216.445 57.3815 216.614 57.3295 216.761C57.2775 216.9 57.1649 216.969 56.9915 216.969C56.8355 216.969 56.6882 216.861 56.5495 216.644C56.2202 216.159 55.7262 215.916 55.0675 215.916C54.6342 215.916 54.2919 216.016 54.0405 216.215C53.7979 216.414 53.6765 216.674 53.6765 216.995C53.6765 217.515 54.0622 217.875 54.8335 218.074L55.6655 218.295C56.3329 218.46 56.8269 218.685 57.1475 218.971C57.4769 219.248 57.6415 219.625 57.6415 220.102C57.6415 220.717 57.3902 221.198 56.8875 221.545C56.4022 221.892 55.7955 222.065 55.0675 222.065C54.5302 222.065 54.0449 221.957 53.6115 221.74C53.1869 221.523 52.9009 221.242 52.7535 220.895C52.6495 220.687 52.5975 220.54 52.5975 220.453C52.5975 220.184 52.7189 220.05 52.9615 220.05C53.1435 220.05 53.2779 220.154 53.3645 220.362C53.6245 220.977 54.1922 221.285 55.0675 221.285C55.5702 221.285 55.9775 221.185 56.2895 220.986C56.6102 220.787 56.7705 220.509 56.7705 220.154C56.7705 219.634 56.3762 219.274 55.5875 219.075L54.5475 218.802C53.3862 218.499 52.8055 217.901 52.8055 217.008C52.8055 216.471 53.0179 216.029 53.4425 215.682C53.8672 215.335 54.4132 215.162 55.0805 215.162ZM61.5607 221.207C61.6821 221.172 61.7861 221.185 61.8727 221.246C61.9594 221.307 62.0027 221.393 62.0027 221.506C62.0027 221.688 61.8901 221.827 61.6647 221.922C61.4394 222.017 61.1707 222.065 60.8587 222.065C60.0441 222.065 59.6367 221.636 59.6367 220.778V215.994H58.9997C58.8437 215.994 58.7311 215.933 58.6617 215.812C58.6011 215.682 58.6011 215.556 58.6617 215.435C58.7311 215.305 58.8437 215.24 58.9997 215.24H59.6367V214.057C59.6281 213.875 59.6974 213.749 59.8447 213.68C60.0007 213.602 60.1524 213.602 60.2997 213.68C60.4557 213.749 60.5294 213.875 60.5207 214.057V215.24H61.6127C61.7687 215.24 61.8814 215.305 61.9507 215.435C62.0201 215.556 62.0201 215.682 61.9507 215.812C61.8814 215.933 61.7687 215.994 61.6127 215.994H60.5207V220.726C60.5207 221.107 60.6941 221.298 61.0407 221.298C61.1794 221.298 61.3527 221.268 61.5607 221.207ZM65.6674 215.162C66.6727 215.162 67.3964 215.526 67.8384 216.254C67.9424 216.445 67.9684 216.614 67.9164 216.761C67.8644 216.9 67.7517 216.969 67.5784 216.969C67.4224 216.969 67.2751 216.861 67.1364 216.644C66.8071 216.159 66.3131 215.916 65.6544 215.916C65.2211 215.916 64.8787 216.016 64.6274 216.215C64.3847 216.414 64.2634 216.674 64.2634 216.995C64.2634 217.515 64.6491 217.875 65.4204 218.074L66.2524 218.295C66.9197 218.46 67.4137 218.685 67.7344 218.971C68.0637 219.248 68.2284 219.625 68.2284 220.102C68.2284 220.717 67.9771 221.198 67.4744 221.545C66.9891 221.892 66.3824 222.065 65.6544 222.065C65.1171 222.065 64.6317 221.957 64.1984 221.74C63.7737 221.523 63.4877 221.242 63.3404 220.895C63.2364 220.687 63.1844 220.54 63.1844 220.453C63.1844 220.184 63.3057 220.05 63.5484 220.05C63.7304 220.05 63.8647 220.154 63.9514 220.362C64.2114 220.977 64.7791 221.285 65.6544 221.285C66.1571 221.285 66.5644 221.185 66.8764 220.986C67.1971 220.787 67.3574 220.509 67.3574 220.154C67.3574 219.634 66.9631 219.274 66.1744 219.075L65.1344 218.802C63.9731 218.499 63.3924 217.901 63.3924 217.008C63.3924 216.471 63.6047 216.029 64.0294 215.682C64.4541 215.335 65.0001 215.162 65.6674 215.162Z" fill="#633EDA"/>
<path d="M36 188.3L33.24 186L32.466 186.912L35.226 189.212L36 188.3ZM27.528 186.912L26.76 186L24 188.294L24.774 189.206L27.528 186.912ZM30.3 189.658H29.4V193.233L32.25 194.931L32.7 194.199L30.3 192.786V189.658ZM30 187.275C27.018 187.275 24.6 189.676 24.6 192.638C24.6 195.599 27.012 198 30 198C32.982 198 35.4 195.599 35.4 192.638C35.4 189.676 32.982 187.275 30 187.275ZM30 196.808C27.678 196.808 25.8 194.943 25.8 192.638C25.8 190.332 27.678 188.467 30 188.467C32.322 188.467 34.2 190.332 34.2 192.638C34.2 194.943 32.322 196.808 30 196.808Z" fill="#646464"/>
<path d="M166 195.06L162.91 192L166 188.94L165.049 188L161 192L165.049 196L166 195.06Z" fill="#7D7D7D"/>
<path d="M165.06 214L162 217.09L158.94 214L158 214.951L162 219L166 214.951L165.06 214Z" fill="#7D7D7D"/>
<path d="M31.875 210H26.375C25.6187 210 25.0069 210.63 25.0069 211.4L25 222.6C25 223.37 25.6119 224 26.3681 224H34.625C35.3813 224 36 223.37 36 222.6V214.2L31.875 210ZM33.25 221.2H27.75V219.8H33.25V221.2ZM33.25 218.4H27.75V217H33.25V218.4ZM31.1875 214.9V211.05L34.9688 214.9H31.1875Z" fill="#633EDA"/>
<rect x="51" y="237" width="6" height="6" rx="2" fill="#A900FF"/>
<rect x="51" y="267" width="6" height="6" rx="2" fill="#F51111"/>
<rect x="51" y="297" width="6" height="6" rx="2" fill="#FFCA00"/>
<rect x="51" y="320" width="6" height="6" rx="2" fill="#63F010"/>
<rect x="51" y="342" width="6" height="6" rx="2" fill="#FFAE30"/>
<path d="M66.572 237.3H71.39C71.456 237.3 71.5147 237.326 71.566 237.377C71.6173 237.421 71.643 237.476 71.643 237.542C71.643 237.615 71.6173 237.678 71.566 237.729C71.5147 237.773 71.456 237.795 71.39 237.795H69.267V244.747C69.267 244.828 69.2377 244.897 69.179 244.956C69.1277 245.007 69.0653 245.033 68.992 245.033C68.9113 245.033 68.8417 245.007 68.783 244.956C68.7317 244.897 68.706 244.828 68.706 244.747V237.795H66.572C66.506 237.795 66.4473 237.773 66.396 237.729C66.352 237.678 66.33 237.615 66.33 237.542C66.33 237.476 66.352 237.421 66.396 237.377C66.4473 237.326 66.506 237.3 66.572 237.3ZM75.134 239.995C75.7206 240.516 76.014 241.231 76.014 242.14C76.014 243.049 75.7206 243.768 75.134 244.296C74.5546 244.817 73.9093 245.077 73.198 245.077C72.4866 245.077 71.8376 244.817 71.251 244.296C70.6716 243.768 70.382 243.049 70.382 242.14C70.382 241.223 70.6716 240.508 71.251 239.995C71.8376 239.474 72.4866 239.214 73.198 239.214C73.902 239.214 74.5473 239.474 75.134 239.995ZM75.464 242.14C75.464 241.37 75.2293 240.772 74.76 240.347C74.2906 239.922 73.77 239.709 73.198 239.709C72.626 239.709 72.1053 239.922 71.636 240.347C71.1666 240.772 70.932 241.37 70.932 242.14C70.932 242.917 71.1666 243.519 71.636 243.944C72.1053 244.369 72.626 244.582 73.198 244.582C73.77 244.582 74.2906 244.369 74.76 243.944C75.2293 243.519 75.464 242.917 75.464 242.14ZM82.5839 237.432V244.78C82.5839 244.897 82.5362 244.978 82.4409 245.022C82.3529 245.066 82.2612 245.066 82.1659 245.022C82.0779 244.978 82.0339 244.897 82.0339 244.78V243.691C81.8212 244.131 81.5205 244.472 81.1319 244.714C80.7432 244.956 80.3179 245.077 79.8559 245.077C79.5405 245.077 79.2252 245.015 78.9099 244.89C78.5945 244.765 78.3012 244.586 78.0299 244.351C77.7585 244.116 77.5385 243.808 77.3699 243.427C77.2012 243.038 77.1169 242.609 77.1169 242.14C77.1169 241.231 77.3992 240.516 77.9639 239.995C78.5432 239.474 79.1739 239.214 79.8559 239.214C80.3252 239.214 80.7542 239.328 81.1429 239.555C81.5389 239.782 81.8359 240.105 82.0339 240.523V237.432C82.0339 237.315 82.0779 237.234 82.1659 237.19C82.2612 237.139 82.3529 237.139 82.4409 237.19C82.5362 237.234 82.5839 237.315 82.5839 237.432ZM82.0669 242.14C82.0669 241.355 81.8469 240.754 81.4069 240.336C80.9669 239.918 80.4609 239.709 79.8889 239.709C79.3169 239.709 78.8035 239.922 78.3489 240.347C77.8942 240.78 77.6669 241.377 77.6669 242.14C77.6669 242.91 77.8942 243.511 78.3489 243.944C78.8035 244.369 79.3169 244.582 79.8889 244.582C80.4462 244.582 80.9485 244.366 81.3959 243.933C81.8432 243.508 82.0669 242.91 82.0669 242.14ZM86.8594 239.214C87.3287 239.214 87.7577 239.328 88.1464 239.555C88.5424 239.782 88.8394 240.105 89.0374 240.523V239.533C89.0374 239.452 89.063 239.386 89.1144 239.335C89.173 239.276 89.239 239.247 89.3124 239.247C89.393 239.247 89.459 239.276 89.5104 239.335C89.5617 239.386 89.5874 239.452 89.5874 239.533V244.78C89.5874 244.897 89.5397 244.978 89.4444 245.022C89.3564 245.066 89.2647 245.066 89.1694 245.022C89.0814 244.978 89.0374 244.897 89.0374 244.78V243.691C88.8247 244.131 88.524 244.472 88.1354 244.714C87.7467 244.956 87.3214 245.077 86.8594 245.077C86.544 245.077 86.2287 245.015 85.9134 244.89C85.598 244.765 85.3047 244.586 85.0334 244.351C84.762 244.116 84.542 243.808 84.3734 243.427C84.2047 243.038 84.1204 242.609 84.1204 242.14C84.1204 241.231 84.4027 240.516 84.9674 239.995C85.5467 239.474 86.1774 239.214 86.8594 239.214ZM89.0704 242.14C89.0704 241.355 88.8504 240.754 88.4104 240.336C87.9704 239.918 87.4644 239.709 86.8924 239.709C86.3204 239.709 85.807 239.922 85.3524 240.347C84.8977 240.78 84.6704 241.377 84.6704 242.14C84.6704 242.91 84.8977 243.511 85.3524 243.944C85.807 244.369 86.3204 244.582 86.8924 244.582C87.4497 244.582 87.952 244.366 88.3994 243.933C88.8467 243.508 89.0704 242.91 89.0704 242.14ZM95.595 239.247C95.6683 239.247 95.7307 239.273 95.782 239.324C95.8333 239.375 95.859 239.438 95.859 239.511C95.859 239.526 95.8517 239.562 95.837 239.621L92.713 246.98C92.669 247.09 92.5847 247.145 92.46 247.145C92.3867 247.145 92.328 247.119 92.284 247.068C92.24 247.017 92.218 246.954 92.218 246.881C92.218 246.866 92.2253 246.83 92.24 246.771L93.054 244.846L90.821 239.621C90.8063 239.562 90.799 239.526 90.799 239.511C90.799 239.438 90.8247 239.375 90.876 239.324C90.9273 239.273 90.9897 239.247 91.063 239.247C91.1877 239.247 91.272 239.302 91.316 239.412L93.329 244.186L95.342 239.412C95.386 239.302 95.4703 239.247 95.595 239.247Z" fill="#696565"/>
<path d="M66.572 261.3H71.39C71.456 261.3 71.5147 261.326 71.566 261.377C71.6173 261.421 71.643 261.476 71.643 261.542C71.643 261.615 71.6173 261.678 71.566 261.729C71.5147 261.773 71.456 261.795 71.39 261.795H69.267V268.747C69.267 268.828 69.2377 268.897 69.179 268.956C69.1277 269.007 69.0653 269.033 68.992 269.033C68.9113 269.033 68.8417 269.007 68.783 268.956C68.7317 268.897 68.706 268.828 68.706 268.747V261.795H66.572C66.506 261.795 66.4473 261.773 66.396 261.729C66.352 261.678 66.33 261.615 66.33 261.542C66.33 261.476 66.352 261.421 66.396 261.377C66.4473 261.326 66.506 261.3 66.572 261.3ZM75.134 263.995C75.7206 264.516 76.014 265.231 76.014 266.14C76.014 267.049 75.7206 267.768 75.134 268.296C74.5546 268.817 73.9093 269.077 73.198 269.077C72.4866 269.077 71.8376 268.817 71.251 268.296C70.6716 267.768 70.382 267.049 70.382 266.14C70.382 265.223 70.6716 264.508 71.251 263.995C71.8376 263.474 72.4866 263.214 73.198 263.214C73.902 263.214 74.5473 263.474 75.134 263.995ZM75.464 266.14C75.464 265.37 75.2293 264.772 74.76 264.347C74.2906 263.922 73.77 263.709 73.198 263.709C72.626 263.709 72.1053 263.922 71.636 264.347C71.1666 264.772 70.932 265.37 70.932 266.14C70.932 266.917 71.1666 267.519 71.636 267.944C72.1053 268.369 72.626 268.582 73.198 268.582C73.77 268.582 74.2906 268.369 74.76 267.944C75.2293 267.519 75.464 266.917 75.464 266.14ZM82.5839 261.432V268.78C82.5839 268.897 82.5362 268.978 82.4409 269.022C82.3529 269.066 82.2612 269.066 82.1659 269.022C82.0779 268.978 82.0339 268.897 82.0339 268.78V267.691C81.8212 268.131 81.5205 268.472 81.1319 268.714C80.7432 268.956 80.3179 269.077 79.8559 269.077C79.5405 269.077 79.2252 269.015 78.9099 268.89C78.5945 268.765 78.3012 268.586 78.0299 268.351C77.7585 268.116 77.5385 267.808 77.3699 267.427C77.2012 267.038 77.1169 266.609 77.1169 266.14C77.1169 265.231 77.3992 264.516 77.9639 263.995C78.5432 263.474 79.1739 263.214 79.8559 263.214C80.3252 263.214 80.7542 263.328 81.1429 263.555C81.5389 263.782 81.8359 264.105 82.0339 264.523V261.432C82.0339 261.315 82.0779 261.234 82.1659 261.19C82.2612 261.139 82.3529 261.139 82.4409 261.19C82.5362 261.234 82.5839 261.315 82.5839 261.432ZM82.0669 266.14C82.0669 265.355 81.8469 264.754 81.4069 264.336C80.9669 263.918 80.4609 263.709 79.8889 263.709C79.3169 263.709 78.8035 263.922 78.3489 264.347C77.8942 264.78 77.6669 265.377 77.6669 266.14C77.6669 266.91 77.8942 267.511 78.3489 267.944C78.8035 268.369 79.3169 268.582 79.8889 268.582C80.4462 268.582 80.9485 268.366 81.3959 267.933C81.8432 267.508 82.0669 266.91 82.0669 266.14ZM86.8594 263.214C87.3287 263.214 87.7577 263.328 88.1464 263.555C88.5424 263.782 88.8394 264.105 89.0374 264.523V263.533C89.0374 263.452 89.063 263.386 89.1144 263.335C89.173 263.276 89.239 263.247 89.3124 263.247C89.393 263.247 89.459 263.276 89.5104 263.335C89.5617 263.386 89.5874 263.452 89.5874 263.533V268.78C89.5874 268.897 89.5397 268.978 89.4444 269.022C89.3564 269.066 89.2647 269.066 89.1694 269.022C89.0814 268.978 89.0374 268.897 89.0374 268.78V267.691C88.8247 268.131 88.524 268.472 88.1354 268.714C87.7467 268.956 87.3214 269.077 86.8594 269.077C86.544 269.077 86.2287 269.015 85.9134 268.89C85.598 268.765 85.3047 268.586 85.0334 268.351C84.762 268.116 84.542 267.808 84.3734 267.427C84.2047 267.038 84.1204 266.609 84.1204 266.14C84.1204 265.231 84.4027 264.516 84.9674 263.995C85.5467 263.474 86.1774 263.214 86.8594 263.214ZM89.0704 266.14C89.0704 265.355 88.8504 264.754 88.4104 264.336C87.9704 263.918 87.4644 263.709 86.8924 263.709C86.3204 263.709 85.807 263.922 85.3524 264.347C84.8977 264.78 84.6704 265.377 84.6704 266.14C84.6704 266.91 84.8977 267.511 85.3524 267.944C85.807 268.369 86.3204 268.582 86.8924 268.582C87.4497 268.582 87.952 268.366 88.3994 267.933C88.8467 267.508 89.0704 266.91 89.0704 266.14ZM95.595 263.247C95.6683 263.247 95.7307 263.273 95.782 263.324C95.8333 263.375 95.859 263.438 95.859 263.511C95.859 263.526 95.8517 263.562 95.837 263.621L92.713 270.98C92.669 271.09 92.5847 271.145 92.46 271.145C92.3867 271.145 92.328 271.119 92.284 271.068C92.24 271.017 92.218 270.954 92.218 270.881C92.218 270.866 92.2253 270.83 92.24 270.771L93.054 268.846L90.821 263.621C90.8063 263.562 90.799 263.526 90.799 263.511C90.799 263.438 90.8247 263.375 90.876 263.324C90.9273 263.273 90.9897 263.247 91.063 263.247C91.1877 263.247 91.272 263.302 91.316 263.412L93.329 268.186L95.342 263.412C95.386 263.302 95.4703 263.247 95.595 263.247ZM97.1848 263.489H97.1188C96.9575 263.489 96.9062 263.423 96.9648 263.291L97.6248 261.509C97.6688 261.37 97.7568 261.3 97.8888 261.3H98.1748C98.3142 261.3 98.3508 261.366 98.2848 261.498L97.4268 263.346C97.3828 263.441 97.3022 263.489 97.1848 263.489ZM99.9573 263.214C100.815 263.214 101.428 263.533 101.794 264.171C101.846 264.266 101.871 264.351 101.871 264.424C101.871 264.49 101.846 264.545 101.794 264.589C101.75 264.633 101.692 264.655 101.618 264.655C101.523 264.655 101.42 264.567 101.31 264.391C101.024 263.936 100.562 263.709 99.9243 263.709C99.5136 263.709 99.1909 263.804 98.9563 263.995C98.7216 264.178 98.6043 264.424 98.6043 264.732C98.6043 265.231 98.9709 265.572 99.7043 265.755L100.419 265.931C100.999 266.07 101.424 266.261 101.695 266.503C101.967 266.738 102.102 267.049 102.102 267.438C102.102 267.937 101.893 268.333 101.475 268.626C101.057 268.912 100.551 269.055 99.9573 269.055C99.4879 269.055 99.0663 268.96 98.6923 268.769C98.3256 268.571 98.0836 268.318 97.9663 268.01C97.9149 267.878 97.8893 267.783 97.8893 267.724C97.8893 267.636 97.9113 267.566 97.9553 267.515C98.0066 267.464 98.0653 267.438 98.1313 267.438C98.2559 267.438 98.3439 267.519 98.3953 267.68C98.4979 267.959 98.6849 268.175 98.9563 268.329C99.2349 268.476 99.5686 268.549 99.9573 268.549C100.419 268.549 100.801 268.454 101.101 268.263C101.409 268.072 101.563 267.808 101.563 267.471C101.563 267.2 101.472 266.987 101.288 266.833C101.112 266.679 100.837 266.554 100.463 266.459L99.5173 266.217C98.5493 265.96 98.0653 265.469 98.0653 264.743C98.0653 264.303 98.2413 263.94 98.5933 263.654C98.9379 263.361 99.3926 263.214 99.9573 263.214ZM66.957 274.3H68.629C69.8097 274.3 70.7373 274.641 71.412 275.323C72.094 276.005 72.435 276.955 72.435 278.172C72.435 279.367 72.094 280.306 71.412 280.988C70.7373 281.663 69.8097 282 68.629 282H66.957C66.869 282 66.7957 281.974 66.737 281.923C66.6857 281.864 66.66 281.791 66.66 281.703V274.597C66.66 274.509 66.6857 274.439 66.737 274.388C66.7957 274.329 66.869 274.3 66.957 274.3ZM67.221 281.505H68.629C69.663 281.505 70.4623 281.219 71.027 280.647C71.599 280.068 71.885 279.243 71.885 278.172C71.885 277.079 71.6027 276.243 71.038 275.664C70.4733 275.085 69.6703 274.795 68.629 274.795H67.221V281.505ZM73.975 274.322C73.975 274.205 74.0227 274.124 74.118 274.08C74.2133 274.036 74.3087 274.036 74.404 274.08C74.4993 274.124 74.547 274.205 74.547 274.322C74.547 274.447 74.4993 274.535 74.404 274.586C74.3087 274.63 74.2133 274.63 74.118 274.586C74.0227 274.535 73.975 274.447 73.975 274.322ZM74.536 276.533V281.78C74.536 281.897 74.4883 281.978 74.393 282.022C74.305 282.073 74.2133 282.073 74.118 282.022C74.03 281.978 73.986 281.897 73.986 281.78V276.533C73.986 276.416 74.03 276.335 74.118 276.291C74.2133 276.24 74.305 276.24 74.393 276.291C74.4883 276.335 74.536 276.416 74.536 276.533ZM78.0986 276.214C78.9566 276.214 79.569 276.533 79.9356 277.171C79.987 277.266 80.0126 277.351 80.0126 277.424C80.0126 277.49 79.987 277.545 79.9356 277.589C79.8916 277.633 79.833 277.655 79.7596 277.655C79.6643 277.655 79.5616 277.567 79.4516 277.391C79.1656 276.936 78.7036 276.709 78.0656 276.709C77.655 276.709 77.3323 276.804 77.0976 276.995C76.863 277.178 76.7456 277.424 76.7456 277.732C76.7456 278.231 77.1123 278.572 77.8456 278.755L78.5606 278.931C79.14 279.07 79.5653 279.261 79.8366 279.503C80.108 279.738 80.2436 280.049 80.2436 280.438C80.2436 280.937 80.0346 281.333 79.6166 281.626C79.1986 281.912 78.6926 282.055 78.0986 282.055C77.6293 282.055 77.2076 281.96 76.8336 281.769C76.467 281.571 76.225 281.318 76.1076 281.01C76.0563 280.878 76.0306 280.783 76.0306 280.724C76.0306 280.636 76.0526 280.566 76.0966 280.515C76.148 280.464 76.2066 280.438 76.2726 280.438C76.3973 280.438 76.4853 280.519 76.5366 280.68C76.6393 280.959 76.8263 281.175 77.0976 281.329C77.3763 281.476 77.71 281.549 78.0986 281.549C78.5606 281.549 78.942 281.454 79.2426 281.263C79.5506 281.072 79.7046 280.808 79.7046 280.471C79.7046 280.2 79.613 279.987 79.4296 279.833C79.2536 279.679 78.9786 279.554 78.6046 279.459L77.6586 279.217C76.6906 278.96 76.2066 278.469 76.2066 277.743C76.2066 277.303 76.3826 276.94 76.7346 276.654C77.0793 276.361 77.534 276.214 78.0986 276.214ZM83.3742 281.483C83.4622 281.454 83.5392 281.461 83.6052 281.505C83.6712 281.542 83.7042 281.597 83.7042 281.67C83.7042 281.927 83.4072 282.055 82.8132 282.055C82.2192 282.055 81.9222 281.758 81.9222 281.164V276.775H81.3172C81.1558 276.775 81.0752 276.691 81.0752 276.522C81.0752 276.361 81.1558 276.28 81.3172 276.28H81.9222V275.202C81.9222 275.092 81.9662 275.015 82.0542 274.971C82.1495 274.92 82.2412 274.92 82.3292 274.971C82.4245 275.015 82.4722 275.092 82.4722 275.202V276.28H83.4512C83.5172 276.28 83.5758 276.306 83.6272 276.357C83.6785 276.401 83.7042 276.456 83.7042 276.522C83.7042 276.691 83.6198 276.775 83.4512 276.775H82.4722V281.087C82.4722 281.41 82.6262 281.571 82.9342 281.571C83.0515 281.571 83.1982 281.542 83.3742 281.483ZM87.7858 276.225C88.0352 276.225 88.1598 276.317 88.1598 276.5C88.1598 276.683 88.0352 276.775 87.7858 276.775C87.2358 276.775 86.7702 276.955 86.3888 277.314C85.9928 277.688 85.7582 278.099 85.6848 278.546V281.769C85.6848 281.886 85.6372 281.967 85.5418 282.011C85.4538 282.062 85.3622 282.062 85.2668 282.011C85.1788 281.967 85.1348 281.886 85.1348 281.769V276.533C85.1348 276.416 85.1788 276.335 85.2668 276.291C85.3622 276.24 85.4538 276.24 85.5418 276.291C85.6372 276.335 85.6848 276.416 85.6848 276.533V277.644C85.7362 277.395 85.9598 277.094 86.3558 276.742C86.7445 276.397 87.2212 276.225 87.7858 276.225ZM91.3165 276.214C91.7858 276.214 92.2148 276.328 92.6035 276.555C92.9995 276.782 93.2965 277.105 93.4945 277.523V276.533C93.4945 276.452 93.5202 276.386 93.5715 276.335C93.6302 276.276 93.6962 276.247 93.7695 276.247C93.8502 276.247 93.9162 276.276 93.9675 276.335C94.0188 276.386 94.0445 276.452 94.0445 276.533V281.78C94.0445 281.897 93.9968 281.978 93.9015 282.022C93.8135 282.066 93.7218 282.066 93.6265 282.022C93.5385 281.978 93.4945 281.897 93.4945 281.78V280.691C93.2818 281.131 92.9812 281.472 92.5925 281.714C92.2038 281.956 91.7785 282.077 91.3165 282.077C91.0012 282.077 90.6858 282.015 90.3705 281.89C90.0552 281.765 89.7618 281.586 89.4905 281.351C89.2192 281.116 88.9992 280.808 88.8305 280.427C88.6618 280.038 88.5775 279.609 88.5775 279.14C88.5775 278.231 88.8598 277.516 89.4245 276.995C90.0038 276.474 90.6345 276.214 91.3165 276.214ZM93.5275 279.14C93.5275 278.355 93.3075 277.754 92.8675 277.336C92.4275 276.918 91.9215 276.709 91.3495 276.709C90.7775 276.709 90.2642 276.922 89.8095 277.347C89.3548 277.78 89.1275 278.377 89.1275 279.14C89.1275 279.91 89.3548 280.511 89.8095 280.944C90.2642 281.369 90.7775 281.582 91.3495 281.582C91.9068 281.582 92.4092 281.366 92.8565 280.933C93.3038 280.508 93.5275 279.91 93.5275 279.14ZM100.355 280.537C100.428 280.537 100.487 280.559 100.531 280.603C100.582 280.647 100.608 280.706 100.608 280.779C100.608 280.823 100.579 280.896 100.52 280.999C100.285 281.336 99.981 281.597 99.607 281.78C99.233 281.963 98.8296 282.055 98.397 282.055C98.067 282.055 97.737 281.993 97.407 281.868C97.0843 281.743 96.7836 281.567 96.505 281.34C96.2336 281.105 96.01 280.797 95.834 280.416C95.6653 280.035 95.581 279.609 95.581 279.14C95.581 278.223 95.8706 277.508 96.45 276.995C97.0366 276.474 97.6856 276.214 98.397 276.214C98.8296 276.214 99.233 276.306 99.607 276.489C99.981 276.672 100.285 276.933 100.52 277.27C100.579 277.373 100.608 277.446 100.608 277.49C100.608 277.563 100.582 277.622 100.531 277.666C100.487 277.71 100.428 277.732 100.355 277.732C100.252 277.732 100.161 277.67 100.08 277.545C99.904 277.281 99.6656 277.076 99.365 276.929C99.0716 276.782 98.7563 276.709 98.419 276.709C97.8323 276.709 97.3043 276.922 96.835 277.347C96.3656 277.772 96.131 278.37 96.131 279.14C96.131 279.903 96.3656 280.497 96.835 280.922C97.3043 281.347 97.8323 281.56 98.419 281.56C98.7563 281.56 99.0716 281.487 99.365 281.34C99.6656 281.193 99.904 280.988 100.08 280.724C100.161 280.599 100.252 280.537 100.355 280.537ZM104.008 281.483C104.096 281.454 104.173 281.461 104.239 281.505C104.305 281.542 104.338 281.597 104.338 281.67C104.338 281.927 104.041 282.055 103.447 282.055C102.853 282.055 102.556 281.758 102.556 281.164V276.775H101.951C101.79 276.775 101.709 276.691 101.709 276.522C101.709 276.361 101.79 276.28 101.951 276.28H102.556V275.202C102.556 275.092 102.6 275.015 102.688 274.971C102.784 274.92 102.875 274.92 102.963 274.971C103.059 275.015 103.106 275.092 103.106 275.202V276.28H104.085C104.151 276.28 104.21 276.306 104.261 276.357C104.313 276.401 104.338 276.456 104.338 276.522C104.338 276.691 104.254 276.775 104.085 276.775H103.106V281.087C103.106 281.41 103.26 281.571 103.568 281.571C103.686 281.571 103.832 281.542 104.008 281.483ZM105.769 274.322C105.769 274.205 105.817 274.124 105.912 274.08C106.007 274.036 106.103 274.036 106.198 274.08C106.293 274.124 106.341 274.205 106.341 274.322C106.341 274.447 106.293 274.535 106.198 274.586C106.103 274.63 106.007 274.63 105.912 274.586C105.817 274.535 105.769 274.447 105.769 274.322ZM106.33 276.533V281.78C106.33 281.897 106.282 281.978 106.187 282.022C106.099 282.073 106.007 282.073 105.912 282.022C105.824 281.978 105.78 281.897 105.78 281.78V276.533C105.78 276.416 105.824 276.335 105.912 276.291C106.007 276.24 106.099 276.24 106.187 276.291C106.282 276.335 106.33 276.416 106.33 276.533ZM112.631 276.995C113.218 277.516 113.511 278.231 113.511 279.14C113.511 280.049 113.218 280.768 112.631 281.296C112.052 281.817 111.407 282.077 110.695 282.077C109.984 282.077 109.335 281.817 108.748 281.296C108.169 280.768 107.879 280.049 107.879 279.14C107.879 278.223 108.169 277.508 108.748 276.995C109.335 276.474 109.984 276.214 110.695 276.214C111.399 276.214 112.045 276.474 112.631 276.995ZM112.961 279.14C112.961 278.37 112.727 277.772 112.257 277.347C111.788 276.922 111.267 276.709 110.695 276.709C110.123 276.709 109.603 276.922 109.133 277.347C108.664 277.772 108.429 278.37 108.429 279.14C108.429 279.917 108.664 280.519 109.133 280.944C109.603 281.369 110.123 281.582 110.695 281.582C111.267 281.582 111.788 281.369 112.257 280.944C112.727 280.519 112.961 279.917 112.961 279.14ZM117.551 276.225C118.138 276.225 118.648 276.412 119.08 276.786C119.52 277.16 119.74 277.754 119.74 278.568V281.769C119.74 281.886 119.693 281.967 119.597 282.011C119.509 282.055 119.418 282.055 119.322 282.011C119.234 281.967 119.19 281.886 119.19 281.769V278.568C119.19 277.959 119.033 277.501 118.717 277.193C118.402 276.885 117.988 276.731 117.474 276.731C116.917 276.731 116.448 276.914 116.066 277.281C115.692 277.648 115.465 278.069 115.384 278.546V281.769C115.384 281.886 115.337 281.967 115.241 282.011C115.153 282.055 115.062 282.055 114.966 282.011C114.878 281.967 114.834 281.886 114.834 281.769V276.533C114.834 276.416 114.878 276.335 114.966 276.291C115.062 276.24 115.153 276.24 115.241 276.291C115.337 276.335 115.384 276.416 115.384 276.533V277.644C115.436 277.387 115.659 277.083 116.055 276.731C116.444 276.394 116.943 276.225 117.551 276.225ZM123.298 276.214C124.156 276.214 124.768 276.533 125.135 277.171C125.186 277.266 125.212 277.351 125.212 277.424C125.212 277.49 125.186 277.545 125.135 277.589C125.091 277.633 125.032 277.655 124.959 277.655C124.864 277.655 124.761 277.567 124.651 277.391C124.365 276.936 123.903 276.709 123.265 276.709C122.854 276.709 122.532 276.804 122.297 276.995C122.062 277.178 121.945 277.424 121.945 277.732C121.945 278.231 122.312 278.572 123.045 278.755L123.76 278.931C124.339 279.07 124.765 279.261 125.036 279.503C125.307 279.738 125.443 280.049 125.443 280.438C125.443 280.937 125.234 281.333 124.816 281.626C124.398 281.912 123.892 282.055 123.298 282.055C122.829 282.055 122.407 281.96 122.033 281.769C121.666 281.571 121.424 281.318 121.307 281.01C121.256 280.878 121.23 280.783 121.23 280.724C121.23 280.636 121.252 280.566 121.296 280.515C121.347 280.464 121.406 280.438 121.472 280.438C121.597 280.438 121.685 280.519 121.736 280.68C121.839 280.959 122.026 281.175 122.297 281.329C122.576 281.476 122.909 281.549 123.298 281.549C123.76 281.549 124.141 281.454 124.442 281.263C124.75 281.072 124.904 280.808 124.904 280.471C124.904 280.2 124.812 279.987 124.629 279.833C124.453 279.679 124.178 279.554 123.804 279.459L122.858 279.217C121.89 278.96 121.406 278.469 121.406 277.743C121.406 277.303 121.582 276.94 121.934 276.654C122.279 276.361 122.733 276.214 123.298 276.214Z" fill="#696565"/>
<path d="M72.237 297.267C72.3103 297.267 72.3727 297.296 72.424 297.355C72.4827 297.406 72.512 297.469 72.512 297.542V302.085C72.512 303.009 72.2443 303.739 71.709 304.274C71.181 304.809 70.4807 305.077 69.608 305.077C68.7353 305.077 68.035 304.813 67.507 304.285C66.979 303.75 66.715 303.016 66.715 302.085V297.542C66.715 297.469 66.7407 297.406 66.792 297.355C66.8507 297.296 66.9167 297.267 66.99 297.267C67.0707 297.267 67.1367 297.296 67.188 297.355C67.2467 297.406 67.276 297.469 67.276 297.542V302.074C67.276 302.859 67.4813 303.475 67.892 303.922C68.31 304.362 68.882 304.582 69.608 304.582C70.334 304.582 70.906 304.362 71.324 303.922C71.742 303.475 71.951 302.859 71.951 302.074V297.542C71.951 297.469 71.9767 297.406 72.028 297.355C72.0867 297.296 72.1563 297.267 72.237 297.267ZM74.6155 297.245C74.6888 297.245 74.7512 297.274 74.8025 297.333C74.8612 297.384 74.8905 297.45 74.8905 297.531V304.769C74.8905 304.85 74.8612 304.919 74.8025 304.978C74.7512 305.029 74.6888 305.055 74.6155 305.055C74.5348 305.055 74.4652 305.029 74.4065 304.978C74.3552 304.919 74.3295 304.85 74.3295 304.769V297.531C74.3295 297.45 74.3552 297.384 74.4065 297.333C74.4652 297.274 74.5348 297.245 74.6155 297.245Z" fill="#696565"/>
<path d="M72.237 320.267C72.3103 320.267 72.3727 320.296 72.424 320.355C72.4827 320.406 72.512 320.469 72.512 320.542V325.085C72.512 326.009 72.2443 326.739 71.709 327.274C71.181 327.809 70.4807 328.077 69.608 328.077C68.7353 328.077 68.035 327.813 67.507 327.285C66.979 326.75 66.715 326.016 66.715 325.085V320.542C66.715 320.469 66.7407 320.406 66.792 320.355C66.8507 320.296 66.9167 320.267 66.99 320.267C67.0707 320.267 67.1367 320.296 67.188 320.355C67.2467 320.406 67.276 320.469 67.276 320.542V325.074C67.276 325.859 67.4813 326.475 67.892 326.922C68.31 327.362 68.882 327.582 69.608 327.582C70.334 327.582 70.906 327.362 71.324 326.922C71.742 326.475 71.951 325.859 71.951 325.074V320.542C71.951 320.469 71.9767 320.406 72.028 320.355C72.0867 320.296 72.1563 320.267 72.237 320.267ZM74.4285 328.033C74.3112 328.033 74.2305 327.985 74.1865 327.89C74.1498 327.787 74.1645 327.688 74.2305 327.593L76.7825 324.018L74.4175 320.707C74.3515 320.612 74.3368 320.516 74.3735 320.421C74.4175 320.318 74.4982 320.267 74.6155 320.267C74.7108 320.267 74.7952 320.315 74.8685 320.41L77.1015 323.567L79.3345 320.41C79.4078 320.315 79.4922 320.267 79.5875 320.267C79.7048 320.267 79.7818 320.318 79.8185 320.421C79.8625 320.516 79.8515 320.612 79.7855 320.707L77.4205 324.018L79.9725 327.593C80.0385 327.688 80.0495 327.787 80.0055 327.89C79.9688 327.985 79.8918 328.033 79.7745 328.033C79.6718 328.033 79.5875 327.985 79.5215 327.89L77.1015 324.469L74.6815 327.89C74.6155 327.985 74.5312 328.033 74.4285 328.033Z" fill="#696565"/>
<path d="M69.33 341.826L71.877 347.721C71.889 347.769 71.895 347.802 71.895 347.82C71.895 347.88 71.874 347.934 71.832 347.982C71.79 348.024 71.739 348.045 71.679 348.045C71.571 348.045 71.496 347.997 71.454 347.901L70.689 346.137H67.521L66.756 347.901C66.714 347.997 66.639 348.045 66.531 348.045C66.471 348.045 66.42 348.024 66.378 347.982C66.336 347.934 66.315 347.88 66.315 347.82C66.315 347.802 66.321 347.769 66.333 347.721L68.88 341.826C68.934 341.712 69.009 341.655 69.105 341.655C69.201 341.655 69.276 341.712 69.33 341.826ZM69.105 342.456L67.683 345.75H70.527L69.105 342.456ZM76.8619 341.808V347.82C76.8619 347.916 76.8229 347.982 76.7449 348.018C76.6729 348.054 76.5979 348.054 76.5199 348.018C76.4479 347.982 76.4119 347.916 76.4119 347.82V346.929C76.2379 347.289 75.9919 347.568 75.6739 347.766C75.3559 347.964 75.0079 348.063 74.6299 348.063C74.3719 348.063 74.1139 348.012 73.8559 347.91C73.5979 347.808 73.3579 347.661 73.1359 347.469C72.9139 347.277 72.7339 347.025 72.5959 346.713C72.4579 346.395 72.3889 346.044 72.3889 345.66C72.3889 344.916 72.6199 344.331 73.0819 343.905C73.5559 343.479 74.0719 343.266 74.6299 343.266C75.0139 343.266 75.3649 343.359 75.6829 343.545C76.0069 343.731 76.2499 343.995 76.4119 344.337V341.808C76.4119 341.712 76.4479 341.646 76.5199 341.61C76.5979 341.568 76.6729 341.568 76.7449 341.61C76.8229 341.646 76.8619 341.712 76.8619 341.808ZM76.4389 345.66C76.4389 345.018 76.2589 344.526 75.8989 344.184C75.5389 343.842 75.1249 343.671 74.6569 343.671C74.1889 343.671 73.7689 343.845 73.3969 344.193C73.0249 344.547 72.8389 345.036 72.8389 345.66C72.8389 346.29 73.0249 346.782 73.3969 347.136C73.7689 347.484 74.1889 347.658 74.6569 347.658C75.1129 347.658 75.5239 347.481 75.8899 347.127C76.2559 346.779 76.4389 346.29 76.4389 345.66ZM82.5921 341.808V347.82C82.5921 347.916 82.5531 347.982 82.4751 348.018C82.4031 348.054 82.3281 348.054 82.2501 348.018C82.1781 347.982 82.1421 347.916 82.1421 347.82V346.929C81.9681 347.289 81.7221 347.568 81.4041 347.766C81.0861 347.964 80.7381 348.063 80.3601 348.063C80.1021 348.063 79.8441 348.012 79.5861 347.91C79.3281 347.808 79.0881 347.661 78.8661 347.469C78.6441 347.277 78.4641 347.025 78.3261 346.713C78.1881 346.395 78.1191 346.044 78.1191 345.66C78.1191 344.916 78.3501 344.331 78.8121 343.905C79.2861 343.479 79.8021 343.266 80.3601 343.266C80.7441 343.266 81.0951 343.359 81.4131 343.545C81.7371 343.731 81.9801 343.995 82.1421 344.337V341.808C82.1421 341.712 82.1781 341.646 82.2501 341.61C82.3281 341.568 82.4031 341.568 82.4751 341.61C82.5531 341.646 82.5921 341.712 82.5921 341.808ZM82.1691 345.66C82.1691 345.018 81.9891 344.526 81.6291 344.184C81.2691 343.842 80.8551 343.671 80.3871 343.671C79.9191 343.671 79.4991 343.845 79.1271 344.193C78.7551 344.547 78.5691 345.036 78.5691 345.66C78.5691 346.29 78.7551 346.782 79.1271 347.136C79.4991 347.484 79.9191 347.658 80.3871 347.658C80.8431 347.658 81.2541 347.481 81.6201 347.127C81.9861 346.779 82.1691 346.29 82.1691 345.66ZM88.7002 343.266C89.0842 343.266 89.4352 343.359 89.7532 343.545C90.0772 343.731 90.3202 343.995 90.4822 344.337V343.527C90.4822 343.461 90.5032 343.407 90.5452 343.365C90.5932 343.317 90.6472 343.293 90.7072 343.293C90.7732 343.293 90.8272 343.317 90.8692 343.365C90.9112 343.407 90.9322 343.461 90.9322 343.527V347.82C90.9322 347.916 90.8932 347.982 90.8152 348.018C90.7432 348.054 90.6682 348.054 90.5902 348.018C90.5182 347.982 90.4822 347.916 90.4822 347.82V346.929C90.3082 347.289 90.0622 347.568 89.7442 347.766C89.4262 347.964 89.0782 348.063 88.7002 348.063C88.4422 348.063 88.1842 348.012 87.9262 347.91C87.6682 347.808 87.4282 347.661 87.2062 347.469C86.9842 347.277 86.8042 347.025 86.6662 346.713C86.5282 346.395 86.4592 346.044 86.4592 345.66C86.4592 344.916 86.6902 344.331 87.1522 343.905C87.6262 343.479 88.1422 343.266 88.7002 343.266ZM90.5092 345.66C90.5092 345.018 90.3292 344.526 89.9692 344.184C89.6092 343.842 89.1952 343.671 88.7272 343.671C88.2592 343.671 87.8392 343.845 87.4672 344.193C87.0952 344.547 86.9092 345.036 86.9092 345.66C86.9092 346.29 87.0952 346.782 87.4672 347.136C87.8392 347.484 88.2592 347.658 88.7272 347.658C89.1832 347.658 89.5942 347.481 89.9602 347.127C90.3262 346.779 90.5092 346.29 90.5092 345.66ZM95.4293 341.799V347.811C95.4293 347.907 95.3903 347.973 95.3123 348.009C95.2403 348.045 95.1653 348.045 95.0873 348.009C95.0153 347.973 94.9793 347.907 94.9793 347.811V341.799C94.9793 341.709 95.0153 341.646 95.0873 341.61C95.1653 341.568 95.2403 341.568 95.3123 341.61C95.3903 341.646 95.4293 341.709 95.4293 341.799ZM96.8686 341.718C96.8686 341.622 96.9076 341.556 96.9856 341.52C97.0636 341.484 97.1416 341.484 97.2196 341.52C97.2976 341.556 97.3366 341.622 97.3366 341.718C97.3366 341.82 97.2976 341.892 97.2196 341.934C97.1416 341.97 97.0636 341.97 96.9856 341.934C96.9076 341.892 96.8686 341.82 96.8686 341.718ZM97.3276 343.527V347.82C97.3276 347.916 97.2886 347.982 97.2106 348.018C97.1386 348.06 97.0636 348.06 96.9856 348.018C96.9136 347.982 96.8776 347.916 96.8776 347.82V343.527C96.8776 343.431 96.9136 343.365 96.9856 343.329C97.0636 343.287 97.1386 343.287 97.2106 343.329C97.2886 343.365 97.3276 343.431 97.3276 343.527ZM100.242 343.266C100.944 343.266 101.445 343.527 101.745 344.049C101.787 344.127 101.808 344.196 101.808 344.256C101.808 344.31 101.787 344.355 101.745 344.391C101.709 344.427 101.661 344.445 101.601 344.445C101.523 344.445 101.439 344.373 101.349 344.229C101.115 343.857 100.737 343.671 100.215 343.671C99.8795 343.671 99.6155 343.749 99.4235 343.905C99.2315 344.055 99.1355 344.256 99.1355 344.508C99.1355 344.916 99.4355 345.195 100.035 345.345L100.62 345.489C101.094 345.603 101.442 345.759 101.664 345.957C101.886 346.149 101.997 346.404 101.997 346.722C101.997 347.13 101.826 347.454 101.484 347.694C101.142 347.928 100.728 348.045 100.242 348.045C99.8585 348.045 99.5135 347.967 99.2075 347.811C98.9075 347.649 98.7095 347.442 98.6135 347.19C98.5715 347.082 98.5505 347.004 98.5505 346.956C98.5505 346.884 98.5685 346.827 98.6045 346.785C98.6465 346.743 98.6945 346.722 98.7485 346.722C98.8505 346.722 98.9225 346.788 98.9645 346.92C99.0485 347.148 99.2015 347.325 99.4235 347.451C99.6515 347.571 99.9245 347.631 100.242 347.631C100.62 347.631 100.932 347.553 101.178 347.397C101.43 347.241 101.556 347.025 101.556 346.749C101.556 346.527 101.481 346.353 101.331 346.227C101.187 346.101 100.962 345.999 100.656 345.921L99.8825 345.723C99.0905 345.513 98.6945 345.111 98.6945 344.517C98.6945 344.157 98.8385 343.86 99.1265 343.626C99.4085 343.386 99.7805 343.266 100.242 343.266ZM104.559 347.577C104.631 347.553 104.694 347.559 104.748 347.595C104.802 347.625 104.829 347.67 104.829 347.73C104.829 347.94 104.586 348.045 104.1 348.045C103.614 348.045 103.371 347.802 103.371 347.316V343.725H102.876C102.744 343.725 102.678 343.656 102.678 343.518C102.678 343.386 102.744 343.32 102.876 343.32H103.371V342.438C103.371 342.348 103.407 342.285 103.479 342.249C103.557 342.207 103.632 342.207 103.704 342.249C103.782 342.285 103.821 342.348 103.821 342.438V343.32H104.622C104.676 343.32 104.724 343.341 104.766 343.383C104.808 343.419 104.829 343.464 104.829 343.518C104.829 343.656 104.76 343.725 104.622 343.725H103.821V347.253C103.821 347.517 103.947 347.649 104.199 347.649C104.295 347.649 104.415 347.625 104.559 347.577ZM106.314 347.505C106.452 347.643 106.455 347.778 106.323 347.91C106.191 348.042 106.056 348.039 105.918 347.901C105.78 347.763 105.777 347.628 105.909 347.496C106.041 347.364 106.176 347.367 106.314 347.505ZM107.817 347.505C107.955 347.643 107.958 347.778 107.826 347.91C107.694 348.042 107.559 348.039 107.421 347.901C107.283 347.763 107.28 347.628 107.412 347.496C107.544 347.364 107.679 347.367 107.817 347.505ZM109.32 347.505C109.458 347.643 109.461 347.778 109.329 347.91C109.197 348.042 109.062 348.039 108.924 347.901C108.786 347.763 108.783 347.628 108.915 347.496C109.047 347.364 109.182 347.367 109.32 347.505Z" fill="#B3B3B3"/>
<defs>
<filter id="filter0_i" x="0" y="0" width="474" height="408" filterUnits="userSpaceOnUse" color-interpolation-filters="sRGB">
<feFlood flood-opacity="0" result="BackgroundImageFix"/>
<feBlend mode="normal" in="SourceGraphic" in2="BackgroundImageFix" result="shape"/>
<feColorMatrix in="SourceAlpha" type="matrix" values="0 0 0 0 0 0 0 0 0 0 0 0 0 0 0 0 0 0 127 0" result="hardAlpha"/>
<feOffset dy="4"/>
<feGaussianBlur stdDeviation="2"/>
<feComposite in2="hardAlpha" operator="arithmetic" k2="-1" k3="1"/>
<feColorMatrix type="matrix" values="0 0 0 0 0 0 0 0 0 0 0 0 0 0 0 0 0 0 0.25 0"/>
<feBlend mode="normal" in2="shape" result="effect1_innerShadow"/>
</filter>
</defs>
</svg>
