<svg width="474" height="404" viewBox="0 0 474 404" fill="none" xmlns="http://www.w3.org/2000/svg">
<g filter="url(#filter0_i)">
<rect width="474" height="404" rx="17" fill="#373737"/>
<path d="M0 10C0 4.47716 4.47715 0 10 0H182V404H10C4.47715 404 0 399.523 0 394V10Z" fill="white"/>
</g>
<rect x="201" y="320" width="121" height="43" rx="12" fill="white"/>
<path d="M221.065 337.341C221.152 337.341 221.225 337.371 221.285 337.431C221.352 337.491 221.385 337.567 221.385 337.661C221.385 337.781 221.295 337.911 221.115 338.051C220.589 338.457 219.959 338.661 219.225 338.661C218.639 338.661 218.079 338.514 217.545 338.221C217.025 337.927 216.592 337.501 216.245 336.941C215.905 336.387 215.735 335.771 215.735 335.091C215.735 334.071 216.089 333.221 216.795 332.541C217.502 331.861 218.319 331.521 219.245 331.521C219.945 331.521 220.565 331.721 221.105 332.121C221.292 332.247 221.385 332.381 221.385 332.521C221.385 332.614 221.352 332.691 221.285 332.751C221.225 332.811 221.152 332.841 221.065 332.841C220.965 332.841 220.839 332.777 220.685 332.651C220.312 332.337 219.829 332.181 219.235 332.181C218.502 332.181 217.855 332.461 217.295 333.021C216.735 333.574 216.455 334.264 216.455 335.091C216.455 335.911 216.735 336.601 217.295 337.161C217.862 337.721 218.505 338.001 219.225 338.001C219.825 338.001 220.312 337.844 220.685 337.531C220.839 337.404 220.965 337.341 221.065 337.341ZM223.019 331.791V338.291C223.019 338.384 222.986 338.467 222.919 338.541C222.853 338.607 222.773 338.641 222.679 338.641C222.586 338.641 222.506 338.607 222.439 338.541C222.373 338.467 222.339 338.384 222.339 338.291V331.791C222.333 331.651 222.386 331.554 222.499 331.501C222.619 331.441 222.736 331.441 222.849 331.501C222.969 331.554 223.026 331.651 223.019 331.791ZM224.814 331.951C224.721 332.057 224.611 332.087 224.484 332.041C224.357 331.987 224.274 331.904 224.234 331.791C224.201 331.677 224.231 331.567 224.324 331.461C224.404 331.381 224.491 331.344 224.584 331.351C224.684 331.357 224.761 331.394 224.814 331.461C224.874 331.527 224.911 331.604 224.924 331.691C224.937 331.777 224.901 331.864 224.814 331.951ZM224.914 333.711V338.301C224.914 338.394 224.881 338.477 224.814 338.551C224.747 338.617 224.667 338.651 224.574 338.651C224.481 338.651 224.401 338.617 224.334 338.551C224.267 338.477 224.234 338.394 224.234 338.301V333.711C224.234 333.617 224.267 333.537 224.334 333.471C224.401 333.397 224.481 333.361 224.574 333.361C224.667 333.361 224.747 333.397 224.814 333.471C224.881 333.537 224.914 333.617 224.914 333.711ZM230.208 337.201C230.288 337.201 230.358 337.227 230.418 337.281C230.478 337.334 230.508 337.401 230.508 337.481C230.508 337.541 230.458 337.637 230.358 337.771C229.918 338.351 229.302 338.641 228.508 338.641C228.202 338.641 227.898 338.584 227.598 338.471C227.305 338.357 227.032 338.197 226.778 337.991C226.525 337.777 226.318 337.497 226.158 337.151C226.005 336.804 225.928 336.417 225.928 335.991C225.928 335.164 226.195 334.514 226.728 334.041C227.262 333.567 227.855 333.331 228.508 333.331C229.302 333.331 229.918 333.621 230.358 334.201C230.458 334.327 230.508 334.424 230.508 334.491C230.508 334.571 230.478 334.637 230.418 334.691C230.358 334.744 230.288 334.771 230.208 334.771C230.088 334.771 229.985 334.711 229.898 334.591C229.758 334.384 229.562 334.224 229.308 334.111C229.062 333.991 228.805 333.931 228.538 333.931C228.025 333.931 227.575 334.114 227.188 334.481C226.802 334.841 226.608 335.344 226.608 335.991C226.608 336.637 226.802 337.141 227.188 337.501C227.575 337.861 228.025 338.041 228.538 338.041C228.805 338.041 229.062 337.984 229.308 337.871C229.562 337.751 229.758 337.587 229.898 337.381C229.985 337.261 230.088 337.201 230.208 337.201ZM233.469 335.761L235.739 338.111C235.839 338.217 235.863 338.334 235.809 338.461C235.763 338.581 235.673 338.641 235.539 338.641C235.446 338.641 235.369 338.611 235.309 338.551L233.039 336.191L232.189 337.051V338.291C232.189 338.384 232.156 338.467 232.089 338.541C232.023 338.607 231.943 338.641 231.849 338.641C231.756 338.641 231.676 338.607 231.609 338.541C231.543 338.467 231.509 338.384 231.509 338.291V331.791C231.503 331.651 231.556 331.554 231.669 331.501C231.789 331.441 231.906 331.441 232.019 331.501C232.139 331.554 232.196 331.651 232.189 331.791V336.211L234.859 333.461C234.959 333.361 235.076 333.337 235.209 333.391C235.343 333.444 235.409 333.537 235.409 333.671C235.409 333.751 235.379 333.824 235.319 333.891L233.469 335.761ZM240.694 333.501C240.981 333.394 241.278 333.341 241.584 333.341C241.898 333.341 242.201 333.394 242.494 333.501C242.788 333.601 243.061 333.767 243.314 334.001C243.574 334.227 243.784 334.504 243.944 334.831C244.104 335.177 244.184 335.564 244.184 335.991C244.184 336.417 244.104 336.807 243.944 337.161C243.658 337.787 243.171 338.231 242.484 338.491C242.091 338.617 241.694 338.667 241.294 338.641C240.894 338.614 240.504 338.471 240.124 338.211C239.744 337.944 239.454 337.594 239.254 337.161C239.094 336.807 239.014 336.417 239.014 335.991C239.014 335.564 239.094 335.177 239.254 334.831C239.534 334.211 240.014 333.767 240.694 333.501ZM242.914 334.481C242.528 334.114 242.088 333.931 241.594 333.931C241.101 333.931 240.661 334.114 240.274 334.481C239.888 334.841 239.694 335.344 239.694 335.991C239.694 336.644 239.888 337.154 240.274 337.521C240.661 337.881 241.101 338.061 241.594 338.061C242.088 338.061 242.528 337.881 242.914 337.521C243.308 337.147 243.504 336.637 243.504 335.991C243.504 335.344 243.308 334.841 242.914 334.481ZM247.576 333.341C247.822 333.341 248.056 333.381 248.276 333.461C248.502 333.534 248.712 333.651 248.906 333.811C249.099 333.971 249.252 334.201 249.366 334.501C249.486 334.794 249.546 335.137 249.546 335.531V338.291C249.546 338.384 249.512 338.467 249.446 338.541C249.379 338.607 249.299 338.641 249.206 338.641C249.112 338.641 249.032 338.607 248.966 338.541C248.899 338.467 248.866 338.384 248.866 338.291V335.531C248.866 335.011 248.732 334.617 248.466 334.351C248.199 334.084 247.849 333.951 247.416 333.951C246.929 333.951 246.532 334.111 246.226 334.431C245.926 334.731 245.739 335.081 245.666 335.481V338.291C245.666 338.384 245.632 338.467 245.566 338.541C245.499 338.607 245.419 338.641 245.326 338.641C245.232 338.641 245.152 338.607 245.086 338.541C245.019 338.467 244.986 338.384 244.986 338.291V333.711C244.986 333.617 245.019 333.537 245.086 333.471C245.152 333.397 245.232 333.361 245.326 333.361C245.419 333.361 245.499 333.397 245.566 333.471C245.632 333.537 245.666 333.617 245.666 333.711V334.611C245.719 334.364 245.916 334.094 246.256 333.801C246.602 333.494 247.042 333.341 247.576 333.341ZM255.137 337.981C255.23 337.954 255.31 337.964 255.377 338.011C255.443 338.057 255.477 338.124 255.477 338.211C255.477 338.351 255.39 338.457 255.217 338.531C255.043 338.604 254.837 338.641 254.597 338.641C253.97 338.641 253.657 338.311 253.657 337.651V333.971H253.167C253.047 333.971 252.96 333.924 252.907 333.831C252.86 333.731 252.86 333.634 252.907 333.541C252.96 333.441 253.047 333.391 253.167 333.391H253.657V332.481C253.65 332.341 253.703 332.244 253.817 332.191C253.937 332.131 254.053 332.131 254.167 332.191C254.287 332.244 254.343 332.341 254.337 332.481V333.391H255.177C255.297 333.391 255.383 333.441 255.437 333.541C255.49 333.634 255.49 333.731 255.437 333.831C255.383 333.924 255.297 333.971 255.177 333.971H254.337V337.611C254.337 337.904 254.47 338.051 254.737 338.051C254.843 338.051 254.977 338.027 255.137 337.981ZM258.962 333.341C259.209 333.341 259.442 333.381 259.662 333.461C259.889 333.534 260.099 333.651 260.292 333.811C260.486 333.971 260.639 334.201 260.752 334.501C260.872 334.794 260.932 335.137 260.932 335.531V338.291C260.932 338.384 260.899 338.467 260.832 338.541C260.766 338.607 260.686 338.641 260.592 338.641C260.499 338.641 260.419 338.607 260.352 338.541C260.286 338.467 260.252 338.384 260.252 338.291V335.531C260.252 335.011 260.119 334.617 259.852 334.351C259.586 334.084 259.236 333.951 258.802 333.951C258.316 333.951 257.919 334.111 257.612 334.431C257.312 334.731 257.126 335.081 257.052 335.481V338.291C257.052 338.384 257.019 338.467 256.952 338.541C256.886 338.607 256.806 338.641 256.712 338.641C256.619 338.641 256.539 338.607 256.472 338.541C256.406 338.467 256.372 338.384 256.372 338.291V331.791C256.366 331.651 256.419 331.554 256.532 331.501C256.652 331.441 256.769 331.441 256.882 331.501C257.002 331.554 257.059 331.651 257.052 331.791V334.611C257.106 334.364 257.302 334.094 257.642 333.801C257.989 333.494 258.429 333.341 258.962 333.341ZM264.474 333.331C265.101 333.331 265.674 333.561 266.194 334.021C266.714 334.481 266.974 335.097 266.974 335.871C266.974 336.131 266.828 336.261 266.534 336.261H262.634C262.674 336.841 262.881 337.287 263.254 337.601C263.628 337.907 264.068 338.061 264.574 338.061C265.068 338.061 265.488 337.917 265.834 337.631C265.968 337.531 266.068 337.481 266.134 337.481C266.214 337.481 266.278 337.507 266.324 337.561C266.378 337.607 266.404 337.671 266.404 337.751C266.404 337.844 266.341 337.951 266.214 338.071C265.794 338.451 265.241 338.641 264.554 338.641C263.861 338.641 263.251 338.411 262.724 337.951C262.198 337.484 261.934 336.831 261.934 335.991C261.934 335.564 262.011 335.177 262.164 334.831C262.324 334.477 262.528 334.197 262.774 333.991C263.028 333.777 263.301 333.614 263.594 333.501C263.888 333.387 264.181 333.331 264.474 333.331ZM265.704 334.401C265.331 334.087 264.921 333.931 264.474 333.931C264.028 333.931 263.618 334.087 263.244 334.401C262.878 334.707 262.674 335.144 262.634 335.711H266.314C266.274 335.144 266.071 334.707 265.704 334.401ZM274.583 337.201C274.663 337.201 274.733 337.227 274.793 337.281C274.853 337.334 274.883 337.401 274.883 337.481C274.883 337.541 274.833 337.637 274.733 337.771C274.293 338.351 273.677 338.641 272.883 338.641C272.577 338.641 272.273 338.584 271.973 338.471C271.68 338.357 271.407 338.197 271.153 337.991C270.9 337.777 270.693 337.497 270.533 337.151C270.38 336.804 270.303 336.417 270.303 335.991C270.303 335.164 270.57 334.514 271.103 334.041C271.637 333.567 272.23 333.331 272.883 333.331C273.677 333.331 274.293 333.621 274.733 334.201C274.833 334.327 274.883 334.424 274.883 334.491C274.883 334.571 274.853 334.637 274.793 334.691C274.733 334.744 274.663 334.771 274.583 334.771C274.463 334.771 274.36 334.711 274.273 334.591C274.133 334.384 273.937 334.224 273.683 334.111C273.437 333.991 273.18 333.931 272.913 333.931C272.4 333.931 271.95 334.114 271.563 334.481C271.177 334.841 270.983 335.344 270.983 335.991C270.983 336.637 271.177 337.141 271.563 337.501C271.95 337.861 272.4 338.041 272.913 338.041C273.18 338.041 273.437 337.984 273.683 337.871C273.937 337.751 274.133 337.587 274.273 337.381C274.36 337.261 274.463 337.201 274.583 337.201ZM277.169 333.501C277.456 333.394 277.752 333.341 278.059 333.341C278.372 333.341 278.676 333.394 278.969 333.501C279.262 333.601 279.536 333.767 279.789 334.001C280.049 334.227 280.259 334.504 280.419 334.831C280.579 335.177 280.659 335.564 280.659 335.991C280.659 336.417 280.579 336.807 280.419 337.161C280.132 337.787 279.646 338.231 278.959 338.491C278.566 338.617 278.169 338.667 277.769 338.641C277.369 338.614 276.979 338.471 276.599 338.211C276.219 337.944 275.929 337.594 275.729 337.161C275.569 336.807 275.489 336.417 275.489 335.991C275.489 335.564 275.569 335.177 275.729 334.831C276.009 334.211 276.489 333.767 277.169 333.501ZM279.389 334.481C279.002 334.114 278.562 333.931 278.069 333.931C277.576 333.931 277.136 334.114 276.749 334.481C276.362 334.841 276.169 335.344 276.169 335.991C276.169 336.644 276.362 337.154 276.749 337.521C277.136 337.881 277.576 338.061 278.069 338.061C278.562 338.061 279.002 337.881 279.389 337.521C279.782 337.147 279.979 336.637 279.979 335.991C279.979 335.344 279.782 334.841 279.389 334.481ZM282.336 331.791V338.291C282.336 338.384 282.302 338.467 282.236 338.541C282.169 338.607 282.089 338.641 281.996 338.641C281.902 338.641 281.822 338.607 281.756 338.541C281.689 338.467 281.656 338.384 281.656 338.291V331.791C281.649 331.651 281.702 331.554 281.816 331.501C281.936 331.441 282.052 331.441 282.166 331.501C282.286 331.554 282.342 331.651 282.336 331.791ZM285.02 333.501C285.307 333.394 285.604 333.341 285.91 333.341C286.224 333.341 286.527 333.394 286.82 333.501C287.114 333.601 287.387 333.767 287.64 334.001C287.9 334.227 288.11 334.504 288.27 334.831C288.43 335.177 288.51 335.564 288.51 335.991C288.51 336.417 288.43 336.807 288.27 337.161C287.984 337.787 287.497 338.231 286.81 338.491C286.417 338.617 286.02 338.667 285.62 338.641C285.22 338.614 284.83 338.471 284.45 338.211C284.07 337.944 283.78 337.594 283.58 337.161C283.42 336.807 283.34 336.417 283.34 335.991C283.34 335.564 283.42 335.177 283.58 334.831C283.86 334.211 284.34 333.767 285.02 333.501ZM287.24 334.481C286.854 334.114 286.414 333.931 285.92 333.931C285.427 333.931 284.987 334.114 284.6 334.481C284.214 334.841 284.02 335.344 284.02 335.991C284.02 336.644 284.214 337.154 284.6 337.521C284.987 337.881 285.427 338.061 285.92 338.061C286.414 338.061 286.854 337.881 287.24 337.521C287.634 337.147 287.83 336.637 287.83 335.991C287.83 335.344 287.634 334.841 287.24 334.481ZM291.822 333.341C291.949 333.341 292.049 333.371 292.122 333.431C292.195 333.491 292.232 333.571 292.232 333.671C292.232 333.891 292.079 334.001 291.772 334.001C291.299 334.001 290.899 334.154 290.572 334.461C290.245 334.754 290.052 335.094 289.992 335.481V338.291C289.992 338.384 289.959 338.467 289.892 338.541C289.825 338.607 289.745 338.641 289.652 338.641C289.559 338.641 289.479 338.607 289.412 338.541C289.345 338.467 289.312 338.384 289.312 338.291V333.711C289.312 333.617 289.345 333.537 289.412 333.471C289.479 333.397 289.559 333.361 289.652 333.361C289.745 333.361 289.825 333.397 289.892 333.471C289.959 333.537 289.992 333.617 289.992 333.711V334.611C290.032 334.377 290.225 334.107 290.572 333.801C290.919 333.494 291.335 333.341 291.822 333.341ZM297.09 337.981C297.183 337.954 297.263 337.964 297.33 338.011C297.397 338.057 297.43 338.124 297.43 338.211C297.43 338.351 297.343 338.457 297.17 338.531C296.997 338.604 296.79 338.641 296.55 338.641C295.923 338.641 295.61 338.311 295.61 337.651V333.971H295.12C295 333.971 294.913 333.924 294.86 333.831C294.813 333.731 294.813 333.634 294.86 333.541C294.913 333.441 295 333.391 295.12 333.391H295.61V332.481C295.603 332.341 295.657 332.244 295.77 332.191C295.89 332.131 296.007 332.131 296.12 332.191C296.24 332.244 296.297 332.341 296.29 332.481V333.391H297.13C297.25 333.391 297.337 333.441 297.39 333.541C297.443 333.634 297.443 333.731 297.39 333.831C297.337 333.924 297.25 333.971 297.13 333.971H296.29V337.611C296.29 337.904 296.423 338.051 296.69 338.051C296.797 338.051 296.93 338.027 297.09 337.981ZM299.61 333.501C299.897 333.394 300.194 333.341 300.5 333.341C300.814 333.341 301.117 333.394 301.41 333.501C301.704 333.601 301.977 333.767 302.23 334.001C302.49 334.227 302.7 334.504 302.86 334.831C303.02 335.177 303.1 335.564 303.1 335.991C303.1 336.417 303.02 336.807 302.86 337.161C302.574 337.787 302.087 338.231 301.4 338.491C301.007 338.617 300.61 338.667 300.21 338.641C299.81 338.614 299.42 338.471 299.04 338.211C298.66 337.944 298.37 337.594 298.17 337.161C298.01 336.807 297.93 336.417 297.93 335.991C297.93 335.564 298.01 335.177 298.17 334.831C298.45 334.211 298.93 333.767 299.61 333.501ZM301.83 334.481C301.444 334.114 301.004 333.931 300.51 333.931C300.017 333.931 299.577 334.114 299.19 334.481C298.804 334.841 298.61 335.344 298.61 335.991C298.61 336.644 298.804 337.154 299.19 337.521C299.577 337.881 300.017 338.061 300.51 338.061C301.004 338.061 301.444 337.881 301.83 337.521C302.224 337.147 302.42 336.637 302.42 335.991C302.42 335.344 302.224 334.841 301.83 334.481ZM219.915 349.201C219.995 349.201 220.065 349.227 220.125 349.281C220.185 349.334 220.215 349.401 220.215 349.481C220.215 349.541 220.165 349.637 220.065 349.771C219.625 350.351 219.009 350.641 218.215 350.641C217.909 350.641 217.605 350.584 217.305 350.471C217.012 350.357 216.739 350.197 216.485 349.991C216.232 349.777 216.025 349.497 215.865 349.151C215.712 348.804 215.635 348.417 215.635 347.991C215.635 347.164 215.902 346.514 216.435 346.041C216.969 345.567 217.562 345.331 218.215 345.331C219.009 345.331 219.625 345.621 220.065 346.201C220.165 346.327 220.215 346.424 220.215 346.491C220.215 346.571 220.185 346.637 220.125 346.691C220.065 346.744 219.995 346.771 219.915 346.771C219.795 346.771 219.692 346.711 219.605 346.591C219.465 346.384 219.269 346.224 219.015 346.111C218.769 345.991 218.512 345.931 218.245 345.931C217.732 345.931 217.282 346.114 216.895 346.481C216.509 346.841 216.315 347.344 216.315 347.991C216.315 348.637 216.509 349.141 216.895 349.501C217.282 349.861 217.732 350.041 218.245 350.041C218.512 350.041 218.769 349.984 219.015 349.871C219.269 349.751 219.465 349.587 219.605 349.381C219.692 349.261 219.795 349.201 219.915 349.201ZM223.806 345.341C224.053 345.341 224.286 345.381 224.506 345.461C224.733 345.534 224.943 345.651 225.136 345.811C225.33 345.971 225.483 346.201 225.596 346.501C225.716 346.794 225.776 347.137 225.776 347.531V350.291C225.776 350.384 225.743 350.467 225.676 350.541C225.61 350.607 225.53 350.641 225.436 350.641C225.343 350.641 225.263 350.607 225.196 350.541C225.13 350.467 225.096 350.384 225.096 350.291V347.531C225.096 347.011 224.963 346.617 224.696 346.351C224.43 346.084 224.08 345.951 223.646 345.951C223.16 345.951 222.763 346.111 222.456 346.431C222.156 346.731 221.97 347.081 221.896 347.481V350.291C221.896 350.384 221.863 350.467 221.796 350.541C221.73 350.607 221.65 350.641 221.556 350.641C221.463 350.641 221.383 350.607 221.316 350.541C221.25 350.467 221.216 350.384 221.216 350.291V343.791C221.21 343.651 221.263 343.554 221.376 343.501C221.496 343.441 221.613 343.441 221.726 343.501C221.846 343.554 221.903 343.651 221.896 343.791V346.611C221.95 346.364 222.146 346.094 222.486 345.801C222.833 345.494 223.273 345.341 223.806 345.341ZM229.258 345.331C229.665 345.331 230.035 345.431 230.368 345.631C230.708 345.824 230.958 346.094 231.118 346.441V345.711C231.118 345.617 231.151 345.537 231.218 345.471C231.285 345.397 231.365 345.361 231.458 345.361C231.558 345.361 231.641 345.397 231.708 345.471C231.775 345.537 231.808 345.617 231.808 345.711V350.301C231.808 350.394 231.771 350.477 231.698 350.551C231.631 350.617 231.551 350.651 231.458 350.651C231.371 350.651 231.291 350.617 231.218 350.551C231.151 350.477 231.118 350.394 231.118 350.301V349.461C230.971 349.821 230.728 350.111 230.388 350.331C230.055 350.551 229.678 350.661 229.258 350.661C228.631 350.661 228.061 350.424 227.548 349.951C227.035 349.477 226.778 348.824 226.778 347.991C226.778 347.164 227.035 346.514 227.548 346.041C228.061 345.567 228.631 345.331 229.258 345.331ZM228.028 349.521C228.421 349.881 228.855 350.061 229.328 350.061C229.801 350.061 230.225 349.881 230.598 349.521C230.971 349.147 231.158 348.637 231.158 347.991C231.158 347.324 230.971 346.814 230.598 346.461C230.225 346.107 229.801 345.931 229.328 345.931C228.855 345.931 228.421 346.111 228.028 346.471C227.648 346.831 227.458 347.337 227.458 347.991C227.458 348.644 227.648 349.154 228.028 349.521ZM235.593 345.341C235.84 345.341 236.073 345.381 236.293 345.461C236.52 345.534 236.73 345.651 236.923 345.811C237.117 345.971 237.27 346.201 237.383 346.501C237.503 346.794 237.563 347.137 237.563 347.531V350.291C237.563 350.384 237.53 350.467 237.463 350.541C237.397 350.607 237.317 350.641 237.223 350.641C237.13 350.641 237.05 350.607 236.983 350.541C236.917 350.467 236.883 350.384 236.883 350.291V347.531C236.883 347.011 236.75 346.617 236.483 346.351C236.217 346.084 235.867 345.951 235.433 345.951C234.947 345.951 234.55 346.111 234.243 346.431C233.943 346.731 233.757 347.081 233.683 347.481V350.291C233.683 350.384 233.65 350.467 233.583 350.541C233.517 350.607 233.437 350.641 233.343 350.641C233.25 350.641 233.17 350.607 233.103 350.541C233.037 350.467 233.003 350.384 233.003 350.291V345.711C233.003 345.617 233.037 345.537 233.103 345.471C233.17 345.397 233.25 345.361 233.343 345.361C233.437 345.361 233.517 345.397 233.583 345.471C233.65 345.537 233.683 345.617 233.683 345.711V346.611C233.737 346.364 233.933 346.094 234.273 345.801C234.62 345.494 235.06 345.341 235.593 345.341ZM243.245 345.361C243.345 345.361 243.428 345.397 243.495 345.471C243.562 345.537 243.595 345.617 243.595 345.711V350.491C243.595 350.884 243.518 351.227 243.365 351.521C243.212 351.814 243.008 352.037 242.755 352.191C242.502 352.344 242.238 352.457 241.965 352.531C241.692 352.604 241.412 352.641 241.125 352.641C240.572 352.641 240.102 352.527 239.715 352.301C239.582 352.227 239.515 352.131 239.515 352.011C239.515 351.937 239.542 351.871 239.595 351.811C239.655 351.757 239.722 351.731 239.795 351.731C239.835 351.731 239.908 351.751 240.015 351.791C240.308 351.957 240.685 352.041 241.145 352.041C241.678 352.041 242.105 351.907 242.425 351.641C242.752 351.374 242.915 350.991 242.915 350.491V350.381C242.908 350.367 242.905 350.341 242.905 350.301V349.461C242.758 349.821 242.515 350.111 242.175 350.331C241.842 350.551 241.465 350.661 241.045 350.661C240.418 350.661 239.848 350.424 239.335 349.951C238.822 349.477 238.565 348.824 238.565 347.991C238.565 347.164 238.822 346.514 239.335 346.041C239.848 345.567 240.418 345.331 241.045 345.331C241.452 345.331 241.822 345.431 242.155 345.631C242.495 345.824 242.745 346.094 242.905 346.441V345.711C242.905 345.617 242.938 345.537 243.005 345.471C243.072 345.397 243.152 345.361 243.245 345.361ZM239.815 349.521C240.208 349.881 240.642 350.061 241.115 350.061C241.588 350.061 242.012 349.881 242.385 349.521C242.758 349.147 242.945 348.637 242.945 347.991C242.945 347.324 242.758 346.814 242.385 346.461C242.012 346.107 241.588 345.931 241.115 345.931C240.642 345.931 240.208 346.111 239.815 346.471C239.435 346.831 239.245 347.337 239.245 347.991C239.245 348.644 239.435 349.154 239.815 349.521ZM247.13 345.331C247.757 345.331 248.33 345.561 248.85 346.021C249.37 346.481 249.63 347.097 249.63 347.871C249.63 348.131 249.484 348.261 249.19 348.261H245.29C245.33 348.841 245.537 349.287 245.91 349.601C246.284 349.907 246.724 350.061 247.23 350.061C247.724 350.061 248.144 349.917 248.49 349.631C248.624 349.531 248.724 349.481 248.79 349.481C248.87 349.481 248.934 349.507 248.98 349.561C249.034 349.607 249.06 349.671 249.06 349.751C249.06 349.844 248.997 349.951 248.87 350.071C248.45 350.451 247.897 350.641 247.21 350.641C246.517 350.641 245.907 350.411 245.38 349.951C244.854 349.484 244.59 348.831 244.59 347.991C244.59 347.564 244.667 347.177 244.82 346.831C244.98 346.477 245.184 346.197 245.43 345.991C245.684 345.777 245.957 345.614 246.25 345.501C246.544 345.387 246.837 345.331 247.13 345.331ZM248.36 346.401C247.987 346.087 247.577 345.931 247.13 345.931C246.684 345.931 246.274 346.087 245.9 346.401C245.534 346.707 245.33 347.144 245.29 347.711H248.97C248.93 347.144 248.727 346.707 248.36 346.401ZM253.75 343.951C253.656 344.057 253.546 344.087 253.42 344.041C253.293 343.987 253.21 343.904 253.17 343.791C253.136 343.677 253.166 343.567 253.26 343.461C253.34 343.381 253.426 343.344 253.52 343.351C253.62 343.357 253.696 343.394 253.75 343.461C253.81 343.527 253.846 343.604 253.86 343.691C253.873 343.777 253.836 343.864 253.75 343.951ZM253.85 345.711V350.301C253.85 350.394 253.816 350.477 253.75 350.551C253.683 350.617 253.603 350.651 253.51 350.651C253.416 350.651 253.336 350.617 253.27 350.551C253.203 350.477 253.17 350.394 253.17 350.301V345.711C253.17 345.617 253.203 345.537 253.27 345.471C253.336 345.397 253.416 345.361 253.51 345.361C253.603 345.361 253.683 345.397 253.75 345.471C253.816 345.537 253.85 345.617 253.85 345.711ZM256.924 349.981C257.017 349.954 257.097 349.964 257.164 350.011C257.231 350.057 257.264 350.124 257.264 350.211C257.264 350.351 257.177 350.457 257.004 350.531C256.831 350.604 256.624 350.641 256.384 350.641C255.757 350.641 255.444 350.311 255.444 349.651V345.971H254.954C254.834 345.971 254.747 345.924 254.694 345.831C254.647 345.731 254.647 345.634 254.694 345.541C254.747 345.441 254.834 345.391 254.954 345.391H255.444V344.481C255.437 344.341 255.491 344.244 255.604 344.191C255.724 344.131 255.841 344.131 255.954 344.191C256.074 344.244 256.131 344.341 256.124 344.481V345.391H256.964C257.084 345.391 257.171 345.441 257.224 345.541C257.277 345.634 257.277 345.731 257.224 345.831C257.171 345.924 257.084 345.971 256.964 345.971H256.124V349.611C256.124 349.904 256.257 350.051 256.524 350.051C256.631 350.051 256.764 350.027 256.924 349.981Z" fill="black"/>
<path d="M68.75 348.825C68.5751 348.301 68.0086 348.018 67.4848 348.193L58.9482 351.044C58.4244 351.219 58.1416 351.786 58.3165 352.31C58.4915 352.833 59.058 353.116 59.5818 352.941L67.1698 350.407L69.704 357.995C69.879 358.519 70.4454 358.802 70.9693 358.627C71.4931 358.452 71.776 357.885 71.601 357.362L68.75 348.825ZM221.362 355.728C220.702 358.491 217.83 361.157 212.803 363.566C207.839 365.944 201.043 367.943 193.042 369.526C177.051 372.689 156.44 374.154 136.52 373.77C116.588 373.386 97.4422 371.153 84.3539 366.971C77.7896 364.873 72.8863 362.327 70.1345 359.392C68.7733 357.94 67.9672 356.424 67.7109 354.841C67.4553 353.263 67.7309 351.522 68.6962 349.589L66.9068 348.695C65.7898 350.932 65.4024 353.097 65.7366 355.161C66.0703 357.221 67.1072 359.087 68.6756 360.76C71.7831 364.074 77.0861 366.748 83.7451 368.876C97.1033 373.144 116.472 375.384 136.482 375.769C156.504 376.155 177.264 374.686 193.43 371.488C201.508 369.89 208.488 367.851 213.667 365.369C218.782 362.918 222.421 359.901 223.307 356.193L221.362 355.728Z" fill="#FFC062"/>
<path d="M48.0039 28.3269H45.8701C45.32 28.3269 44.874 27.8809 44.874 27.3308C44.874 26.7807 45.32 26.3347 45.8701 26.3347H48.0039C48.5541 26.3347 49 26.7807 49 27.3308C49 27.8809 48.5541 28.3269 48.0039 28.3269Z" fill="#FDB442"/>
<path d="M38.3734 48.7401H35.1299V44.4298C35.1299 43.8934 34.7177 43.4319 34.1819 43.4067C33.6099 43.3797 33.1377 43.8355 33.1377 44.4016V49.7362C33.1377 50.2863 33.5837 50.7323 34.1338 50.7323H38.4015C38.9676 50.7323 39.4234 50.2601 39.3964 49.6881C39.3712 49.1523 38.9097 48.7401 38.3734 48.7401Z" fill="#A54628"/>
<path d="M34.134 48.7401H30.8623V44.4016C30.8623 43.8515 30.4164 43.4055 29.8663 43.4055C29.3161 43.4055 28.8702 43.8515 28.8702 44.4016V48.7401H27.7324C27.1823 48.7401 26.7363 49.1861 26.7363 49.7362C26.7363 50.2863 27.1823 50.7323 27.7324 50.7323H34.134C34.6841 50.7323 35.1301 50.2863 35.1301 49.7362C35.1301 49.1861 34.6841 48.7401 34.134 48.7401Z" fill="#D26432"/>
<path d="M37.3348 45.3978H26.6655C26.1154 45.3978 25.6694 44.9518 25.6694 44.4017C25.6694 43.8516 26.1154 43.4056 26.6655 43.4056C30.2344 43.4056 33.1379 40.502 33.1379 36.9332V26.264C33.1379 25.9998 33.2429 25.7465 33.4297 25.5597C33.4297 25.5596 34.9606 24.0287 36.1874 22.8008C37.3311 21.6565 38.9159 21.0002 40.5356 21.0002C42.2052 21.0002 43.837 21.6763 45.0124 22.8548C46.2073 24.0465 46.8663 25.6365 46.8663 27.3299V35.8663L37.3348 45.3978Z" fill="#FDB442"/>
<path d="M40.5354 21C38.9157 21 37.3309 21.6563 36.1872 22.8006C35.8451 23.143 35.4794 23.5088 35.1299 23.8585V45.3976H37.3346L46.8661 35.8661V27.3296C46.8661 25.6362 46.207 24.0463 45.0122 22.8545C43.8367 21.676 42.2049 21 40.5354 21Z" fill="#FF8C28"/>
<path d="M40.5356 28.3269C41.0858 28.3269 41.5317 27.8809 41.5317 27.3308C41.5317 26.7807 41.0858 26.3347 40.5356 26.3347C39.9855 26.3347 39.5396 26.7807 39.5396 27.3308C39.5396 27.8809 39.9855 28.3269 40.5356 28.3269Z" fill="#78281E"/>
<path d="M26.6654 45.3977H15.9961C15.5932 45.3977 15.23 45.1551 15.0758 44.7828C14.9217 44.4106 15.0069 43.9821 15.2918 43.6972L35.13 23.8586V36.9331C35.13 41.6005 31.3328 45.3977 26.6654 45.3977Z" fill="#FADC5C"/>
<path d="M46.866 35.867V35.866C41.6102 35.866 37.3345 40.1413 37.3345 45.3974C42.5901 45.3974 46.866 41.1222 46.866 35.867Z" fill="#FDB442"/>
<path d="M63.3143 41.2C63.6976 41.1667 63.9976 41.2583 64.2143 41.475C64.4309 41.675 64.5393 41.975 64.5393 42.375C64.5393 42.925 64.2809 43.3583 63.7643 43.675C63.2643 43.975 62.5809 44.125 61.7143 44.125C60.6643 44.125 59.8309 43.85 59.2143 43.3C58.5976 42.7333 58.2893 41.6667 58.2893 40.1V33.575H57.5643C57.1643 33.575 56.8393 33.4583 56.5893 33.225C56.3559 32.9917 56.2393 32.6833 56.2393 32.3C56.2393 31.9167 56.3559 31.6083 56.5893 31.375C56.8393 31.125 57.1643 31 57.5643 31H58.2893V29.3C58.2893 28.85 58.4476 28.4667 58.7643 28.15C59.0976 27.8167 59.4893 27.65 59.9393 27.65C60.3893 27.65 60.7726 27.8167 61.0893 28.15C61.4059 28.4667 61.5643 28.85 61.5643 29.3V31H63.2143C63.6309 31 63.9559 31.1167 64.1893 31.35C64.4226 31.5833 64.5393 31.9 64.5393 32.3C64.5393 32.6833 64.4143 32.9917 64.1643 33.225C63.9309 33.4583 63.6143 33.575 63.2143 33.575H61.5643V40.2C61.5643 40.9333 61.8309 41.3 62.3643 41.3C62.4143 41.3 62.5726 41.2833 62.8393 41.25C63.1059 41.2167 63.2643 41.2 63.3143 41.2ZM72.4719 30.85C74.0552 30.85 75.5219 31.4 76.8719 32.5C77.5552 33.05 78.1052 33.7667 78.5219 34.65C78.9385 35.5333 79.1469 36.4917 79.1469 37.525C79.1469 38.5917 78.9302 39.5667 78.4969 40.45C78.0802 41.3167 77.5385 42.0167 76.8719 42.55C76.2052 43.0667 75.4885 43.4667 74.7219 43.75C73.9552 44.0333 73.2052 44.175 72.4719 44.175C71.4385 44.175 70.4302 43.9417 69.4469 43.475C68.4302 42.9917 67.5719 42.2333 66.8719 41.2C66.1552 40.1667 65.7969 38.9417 65.7969 37.525C65.7969 36.1083 66.1552 34.8833 66.8719 33.85C67.5719 32.85 68.4135 32.1 69.3969 31.6C70.3802 31.1 71.4052 30.85 72.4719 30.85ZM69.0469 37.525C69.0469 38.6917 69.3802 39.6167 70.0469 40.3C70.7302 40.9833 71.5385 41.325 72.4719 41.325C73.3885 41.325 74.1885 40.9833 74.8719 40.3C75.5552 39.5833 75.8969 38.6583 75.8969 37.525C75.8969 36.3583 75.5552 35.4333 74.8719 34.75C74.1885 34.05 73.3885 33.7 72.4719 33.7C71.5219 33.7 70.7135 34.05 70.0469 34.75C69.3802 35.4167 69.0469 36.3417 69.0469 37.525ZM92.065 26.15C92.515 26.15 92.9067 26.3167 93.24 26.65C93.5734 26.9667 93.74 27.3417 93.74 27.775V42.525C93.74 42.975 93.5734 43.3583 93.24 43.675C92.9067 43.9917 92.515 44.15 92.065 44.15C91.615 44.15 91.2234 43.9917 90.89 43.675C90.5734 43.3583 90.415 42.975 90.415 42.525V42.05C90.2817 42.5167 89.8817 42.9917 89.215 43.475C88.5484 43.9417 87.715 44.175 86.715 44.175C85.265 44.175 83.915 43.6417 82.665 42.575C81.3317 41.375 80.665 39.6833 80.665 37.5C80.665 36.1 80.9817 34.8833 81.615 33.85C82.265 32.8 83.04 32.0417 83.94 31.575C84.84 31.0917 85.765 30.85 86.715 30.85C87.565 30.85 88.3234 31.05 88.99 31.45C89.6734 31.85 90.1484 32.3583 90.415 32.975V32.55C90.415 32.4167 90.4234 32.325 90.44 32.275V27.775C90.44 27.3417 90.5984 26.9667 90.915 26.65C91.2484 26.3167 91.6317 26.15 92.065 26.15ZM87.315 41.35C88.1317 41.35 88.8817 41.0333 89.565 40.4C90.2317 39.75 90.565 38.7833 90.565 37.5C90.565 36.2 90.2317 35.2417 89.565 34.625C88.8984 33.975 88.1484 33.65 87.315 33.65C86.415 33.65 85.6234 33.9917 84.94 34.675C84.2734 35.3417 83.94 36.2833 83.94 37.5C83.94 38.7333 84.2734 39.6833 84.94 40.35C85.6067 41.0167 86.3984 41.35 87.315 41.35ZM102.916 30.85C104.5 30.85 105.966 31.4 107.316 32.5C108 33.05 108.55 33.7667 108.966 34.65C109.383 35.5333 109.591 36.4917 109.591 37.525C109.591 38.5917 109.375 39.5667 108.941 40.45C108.525 41.3167 107.983 42.0167 107.316 42.55C106.65 43.0667 105.933 43.4667 105.166 43.75C104.4 44.0333 103.65 44.175 102.916 44.175C101.883 44.175 100.875 43.9417 99.8912 43.475C98.8745 42.9917 98.0162 42.2333 97.3162 41.2C96.5995 40.1667 96.2412 38.9417 96.2412 37.525C96.2412 36.1083 96.5995 34.8833 97.3162 33.85C98.0162 32.85 98.8579 32.1 99.8412 31.6C100.825 31.1 101.85 30.85 102.916 30.85ZM99.4912 37.525C99.4912 38.6917 99.8245 39.6167 100.491 40.3C101.175 40.9833 101.983 41.325 102.916 41.325C103.833 41.325 104.633 40.9833 105.316 40.3C106 39.5833 106.341 38.6583 106.341 37.525C106.341 36.3583 106 35.4333 105.316 34.75C104.633 34.05 103.833 33.7 102.916 33.7C101.966 33.7 101.158 34.05 100.491 34.75C99.8245 35.4167 99.4912 36.3417 99.4912 37.525ZM117.784 30.85C119.368 30.85 120.834 31.4 122.184 32.5C122.868 33.05 123.418 33.7667 123.834 34.65C124.251 35.5333 124.459 36.4917 124.459 37.525C124.459 38.5917 124.243 39.5667 123.809 40.45C123.393 41.3167 122.851 42.0167 122.184 42.55C121.518 43.0667 120.801 43.4667 120.034 43.75C119.268 44.0333 118.518 44.175 117.784 44.175C116.751 44.175 115.743 43.9417 114.759 43.475C113.743 42.9917 112.884 42.2333 112.184 41.2C111.468 40.1667 111.109 38.9417 111.109 37.525C111.109 36.1083 111.468 34.8833 112.184 33.85C112.884 32.85 113.726 32.1 114.709 31.6C115.693 31.1 116.718 30.85 117.784 30.85ZM114.359 37.525C114.359 38.6917 114.693 39.6167 115.359 40.3C116.043 40.9833 116.851 41.325 117.784 41.325C118.701 41.325 119.501 40.9833 120.184 40.3C120.868 39.5833 121.209 38.6583 121.209 37.525C121.209 36.3583 120.868 35.4333 120.184 34.75C119.501 34.05 118.701 33.7 117.784 33.7C116.834 33.7 116.026 34.05 115.359 34.75C114.693 35.4167 114.359 36.3417 114.359 37.525ZM132.653 30.85C134.236 30.85 135.703 31.4 137.053 32.5C137.736 33.05 138.286 33.7667 138.703 34.65C139.119 35.5333 139.328 36.4917 139.328 37.525C139.328 38.5917 139.111 39.5667 138.678 40.45C138.261 41.3167 137.719 42.0167 137.053 42.55C136.386 43.0667 135.669 43.4667 134.903 43.75C134.136 44.0333 133.386 44.175 132.653 44.175C131.619 44.175 130.611 43.9417 129.628 43.475C128.611 42.9917 127.753 42.2333 127.053 41.2C126.336 40.1667 125.978 38.9417 125.978 37.525C125.978 36.1083 126.336 34.8833 127.053 33.85C127.753 32.85 128.594 32.1 129.578 31.6C130.561 31.1 131.586 30.85 132.653 30.85ZM129.228 37.525C129.228 38.6917 129.561 39.6167 130.228 40.3C130.911 40.9833 131.719 41.325 132.653 41.325C133.569 41.325 134.369 40.9833 135.053 40.3C135.736 39.5833 136.078 38.6583 136.078 37.525C136.078 36.3583 135.736 35.4333 135.053 34.75C134.369 34.05 133.569 33.7 132.653 33.7C131.703 33.7 130.894 34.05 130.228 34.75C129.561 35.4167 129.228 36.3417 129.228 37.525ZM145.796 30.85C146.662 30.85 147.471 31.0167 148.221 31.35C148.971 31.6667 149.546 32.1083 149.946 32.675C150.212 33.0583 150.346 33.425 150.346 33.775C150.346 34.1583 150.229 34.4583 149.996 34.675C149.762 34.8917 149.454 35 149.071 35C148.521 35 148.062 34.7667 147.696 34.3C147.196 33.7333 146.596 33.45 145.896 33.45C145.412 33.45 145.029 33.5583 144.746 33.775C144.479 33.9917 144.346 34.275 144.346 34.625C144.346 35.2083 144.779 35.625 145.646 35.875L147.171 36.325C148.387 36.6583 149.304 37.1167 149.921 37.7C150.537 38.2667 150.846 39.05 150.846 40.05C150.846 41.35 150.337 42.3583 149.321 43.075C148.321 43.775 147.112 44.125 145.696 44.125C143.796 44.125 142.362 43.525 141.396 42.325C140.946 41.7083 140.721 41.1833 140.721 40.75C140.721 40.4167 140.829 40.125 141.046 39.875C141.279 39.625 141.587 39.5 141.971 39.5C142.437 39.5 142.887 39.7667 143.321 40.3C143.937 41.0667 144.729 41.45 145.696 41.45C146.279 41.45 146.737 41.3417 147.071 41.125C147.421 40.8917 147.596 40.5917 147.596 40.225C147.596 39.625 147.104 39.1833 146.121 38.9L144.696 38.475C142.312 37.7917 141.121 36.5167 141.121 34.65C141.121 33.4667 141.579 32.5417 142.496 31.875C143.429 31.1917 144.529 30.85 145.796 30.85Z" fill="#FF8C28"/>
<path d="M34.9 140.091H34.35V139H33.25V140.091H27.75V139H26.65V140.091H26.1C25.495 140.091 25 140.582 25 141.182V149.909C25 150.509 25.495 151 26.1 151H34.9C35.505 151 36 150.509 36 149.909V141.182C36 140.582 35.505 140.091 34.9 140.091ZM34.9 149.909H26.1V142.818H34.9V149.909Z" fill="#646464"/>
<path d="M42.78 139.9H48.422C48.526 139.9 48.617 139.939 48.695 140.017C48.7817 140.095 48.825 140.186 48.825 140.29C48.825 140.403 48.7817 140.498 48.695 140.576C48.617 140.654 48.526 140.693 48.422 140.693H46.056V148.584C46.056 148.705 46.0127 148.814 45.926 148.909C45.8393 149.004 45.7353 149.052 45.614 149.052C45.484 149.052 45.3757 149.009 45.289 148.922C45.2023 148.827 45.159 148.714 45.159 148.584V140.693H42.78C42.676 140.693 42.585 140.654 42.507 140.576C42.429 140.498 42.39 140.403 42.39 140.29C42.39 140.186 42.429 140.095 42.507 140.017C42.585 139.939 42.676 139.9 42.78 139.9ZM49.515 142.383C49.8877 142.244 50.2733 142.175 50.672 142.175C51.0793 142.175 51.4737 142.244 51.855 142.383C52.2363 142.513 52.5917 142.73 52.921 143.033C53.259 143.328 53.532 143.687 53.74 144.112C53.948 144.563 54.052 145.065 54.052 145.62C54.052 146.175 53.948 146.682 53.74 147.141C53.3673 147.956 52.7347 148.532 51.842 148.87C51.3307 149.035 50.815 149.1 50.295 149.065C49.775 149.03 49.268 148.844 48.774 148.506C48.28 148.159 47.903 147.704 47.643 147.141C47.435 146.682 47.331 146.175 47.331 145.62C47.331 145.065 47.435 144.563 47.643 144.112C48.007 143.306 48.631 142.73 49.515 142.383ZM52.401 143.657C51.8983 143.18 51.3263 142.942 50.685 142.942C50.0437 142.942 49.4717 143.18 48.969 143.657C48.4663 144.125 48.215 144.779 48.215 145.62C48.215 146.469 48.4663 147.132 48.969 147.609C49.4717 148.077 50.0437 148.311 50.685 148.311C51.3263 148.311 51.8983 148.077 52.401 147.609C52.9123 147.124 53.168 146.461 53.168 145.62C53.168 144.779 52.9123 144.125 52.401 143.657ZM61.8929 140.173V148.623C61.8929 148.744 61.8453 148.853 61.7499 148.948C61.6633 149.035 61.5593 149.078 61.4379 149.078C61.3253 149.078 61.2213 149.035 61.1259 148.948C61.0393 148.853 60.9959 148.744 60.9959 148.623V147.531C60.8053 147.999 60.4889 148.376 60.0469 148.662C59.6136 148.948 59.1239 149.091 58.5779 149.091C57.7633 149.091 57.0223 148.783 56.3549 148.168C55.6876 147.553 55.3539 146.703 55.3539 145.62C55.3539 144.545 55.6876 143.7 56.3549 143.085C57.0223 142.47 57.7633 142.162 58.5779 142.162C59.1066 142.162 59.5876 142.292 60.0209 142.552C60.4629 142.803 60.7879 143.154 60.9959 143.605V142.656C60.9959 142.595 61.0003 142.561 61.0089 142.552V140.173C61.0089 140.052 61.0523 139.948 61.1389 139.861C61.2256 139.766 61.3296 139.718 61.4509 139.718C61.5723 139.718 61.6763 139.766 61.7629 139.861C61.8496 139.948 61.8929 140.052 61.8929 140.173ZM56.9789 147.609C57.4903 148.077 58.0536 148.311 58.6689 148.311C59.2843 148.311 59.8346 148.077 60.3199 147.609C60.8053 147.124 61.0479 146.461 61.0479 145.62C61.0479 144.753 60.8053 144.09 60.3199 143.631C59.8346 143.172 59.2843 142.942 58.6689 142.942C58.0536 142.942 57.4903 143.176 56.9789 143.644C56.4849 144.112 56.2379 144.771 56.2379 145.62C56.2379 146.469 56.4849 147.132 56.9789 147.609ZM66.931 142.162C67.4596 142.162 67.9406 142.292 68.374 142.552C68.816 142.803 69.141 143.154 69.349 143.605V142.656C69.349 142.535 69.3923 142.431 69.479 142.344C69.5656 142.249 69.6696 142.201 69.791 142.201C69.921 142.201 70.0293 142.249 70.116 142.344C70.2026 142.431 70.246 142.535 70.246 142.656V148.623C70.246 148.744 70.1983 148.853 70.103 148.948C70.0163 149.035 69.9123 149.078 69.791 149.078C69.6783 149.078 69.5743 149.035 69.479 148.948C69.3923 148.853 69.349 148.744 69.349 148.623V147.531C69.1583 147.999 68.842 148.376 68.4 148.662C67.9666 148.948 67.477 149.091 66.931 149.091C66.1163 149.091 65.3753 148.783 64.708 148.168C64.0406 147.553 63.707 146.703 63.707 145.62C63.707 144.545 64.0406 143.7 64.708 143.085C65.3753 142.47 66.1163 142.162 66.931 142.162ZM65.332 147.609C65.8433 148.077 66.4066 148.311 67.022 148.311C67.6373 148.311 68.1876 148.077 68.673 147.609C69.1583 147.124 69.401 146.461 69.401 145.62C69.401 144.753 69.1583 144.09 68.673 143.631C68.1876 143.172 67.6373 142.942 67.022 142.942C66.4066 142.942 65.8433 143.176 65.332 143.644C64.838 144.112 64.591 144.771 64.591 145.62C64.591 146.469 64.838 147.132 65.332 147.609ZM77.4091 142.201C77.5217 142.201 77.6171 142.244 77.6951 142.331C77.7817 142.409 77.8251 142.504 77.8251 142.617C77.8251 142.678 77.8077 142.738 77.7731 142.799L74.1591 151.249C74.0811 151.44 73.9424 151.535 73.7431 151.535C73.6304 151.535 73.5351 151.492 73.4571 151.405C73.3877 151.327 73.3531 151.232 73.3531 151.119C73.3531 151.102 73.3661 151.041 73.3921 150.937L74.3151 148.779L71.7151 142.799C71.6891 142.695 71.6761 142.634 71.6761 142.617C71.6761 142.504 71.7151 142.409 71.7931 142.331C71.8797 142.244 71.9794 142.201 72.0921 142.201C72.2914 142.201 72.4301 142.296 72.5081 142.487L74.7441 147.765L76.9931 142.487C77.0711 142.296 77.2097 142.201 77.4091 142.201Z" fill="#646464"/>
<path d="M42.78 163.9H48.422C48.526 163.9 48.617 163.939 48.695 164.017C48.7817 164.095 48.825 164.186 48.825 164.29C48.825 164.403 48.7817 164.498 48.695 164.576C48.617 164.654 48.526 164.693 48.422 164.693H46.056V172.584C46.056 172.705 46.0127 172.814 45.926 172.909C45.8393 173.004 45.7353 173.052 45.614 173.052C45.484 173.052 45.3757 173.009 45.289 172.922C45.2023 172.827 45.159 172.714 45.159 172.584V164.693H42.78C42.676 164.693 42.585 164.654 42.507 164.576C42.429 164.498 42.39 164.403 42.39 164.29C42.39 164.186 42.429 164.095 42.507 164.017C42.585 163.939 42.676 163.9 42.78 163.9ZM49.515 166.383C49.8877 166.244 50.2733 166.175 50.672 166.175C51.0793 166.175 51.4737 166.244 51.855 166.383C52.2363 166.513 52.5917 166.73 52.921 167.033C53.259 167.328 53.532 167.687 53.74 168.112C53.948 168.563 54.052 169.065 54.052 169.62C54.052 170.175 53.948 170.682 53.74 171.141C53.3673 171.956 52.7347 172.532 51.842 172.87C51.3307 173.035 50.815 173.1 50.295 173.065C49.775 173.03 49.268 172.844 48.774 172.506C48.28 172.159 47.903 171.704 47.643 171.141C47.435 170.682 47.331 170.175 47.331 169.62C47.331 169.065 47.435 168.563 47.643 168.112C48.007 167.306 48.631 166.73 49.515 166.383ZM52.401 167.657C51.8983 167.18 51.3263 166.942 50.685 166.942C50.0437 166.942 49.4717 167.18 48.969 167.657C48.4663 168.125 48.215 168.779 48.215 169.62C48.215 170.469 48.4663 171.132 48.969 171.609C49.4717 172.077 50.0437 172.311 50.685 172.311C51.3263 172.311 51.8983 172.077 52.401 171.609C52.9123 171.124 53.168 170.461 53.168 169.62C53.168 168.779 52.9123 168.125 52.401 167.657ZM64.0379 166.175C64.3586 166.175 64.6619 166.227 64.9479 166.331C65.2339 166.426 65.5026 166.578 65.7539 166.786C66.0139 166.994 66.2176 167.293 66.3649 167.683C66.5123 168.064 66.5859 168.511 66.5859 169.022V172.61C66.5859 172.731 66.5426 172.84 66.4559 172.935C66.3693 173.022 66.2653 173.065 66.1439 173.065C66.0313 173.065 65.9273 173.022 65.8319 172.935C65.7453 172.84 65.7019 172.731 65.7019 172.61V169.022C65.7019 168.346 65.5286 167.835 65.1819 167.488C64.8353 167.141 64.3846 166.968 63.8299 166.968C63.1886 166.968 62.6686 167.176 62.2699 167.592C61.8799 167.982 61.6373 168.437 61.5419 168.957V169.022V172.61C61.5419 172.731 61.4986 172.84 61.4119 172.935C61.3253 173.022 61.2213 173.065 61.0999 173.065C60.9786 173.065 60.8746 173.022 60.7879 172.935C60.7013 172.84 60.6579 172.731 60.6579 172.61V169.022C60.6579 168.346 60.4846 167.835 60.1379 167.488C59.7913 167.141 59.3363 166.968 58.7729 166.968C58.1403 166.968 57.6246 167.176 57.2259 167.592C56.8359 167.982 56.5933 168.437 56.4979 168.957V172.61C56.4979 172.731 56.4546 172.84 56.3679 172.935C56.2813 173.022 56.1773 173.065 56.0559 173.065C55.9346 173.065 55.8306 173.022 55.7439 172.935C55.6573 172.84 55.6139 172.731 55.6139 172.61V166.656C55.6139 166.535 55.6573 166.431 55.7439 166.344C55.8306 166.249 55.9346 166.201 56.0559 166.201C56.1773 166.201 56.2813 166.249 56.3679 166.344C56.4546 166.431 56.4979 166.535 56.4979 166.656V167.826C56.5673 167.505 56.8229 167.154 57.2649 166.773C57.7156 166.374 58.2876 166.175 58.9809 166.175C59.5529 166.175 60.0556 166.322 60.4889 166.617C60.9223 166.903 61.2213 167.332 61.3859 167.904C61.6113 167.401 61.9536 166.99 62.4129 166.669C62.8809 166.34 63.4226 166.175 64.0379 166.175ZM70.5882 166.383C70.9609 166.244 71.3466 166.175 71.7452 166.175C72.1526 166.175 72.5469 166.244 72.9282 166.383C73.3096 166.513 73.6649 166.73 73.9942 167.033C74.3322 167.328 74.6052 167.687 74.8132 168.112C75.0212 168.563 75.1252 169.065 75.1252 169.62C75.1252 170.175 75.0212 170.682 74.8132 171.141C74.4406 171.956 73.8079 172.532 72.9152 172.87C72.4039 173.035 71.8882 173.1 71.3682 173.065C70.8482 173.03 70.3412 172.844 69.8472 172.506C69.3532 172.159 68.9762 171.704 68.7162 171.141C68.5082 170.682 68.4042 170.175 68.4042 169.62C68.4042 169.065 68.5082 168.563 68.7162 168.112C69.0802 167.306 69.7042 166.73 70.5882 166.383ZM73.4742 167.657C72.9716 167.18 72.3996 166.942 71.7582 166.942C71.1169 166.942 70.5449 167.18 70.0422 167.657C69.5396 168.125 69.2882 168.779 69.2882 169.62C69.2882 170.469 69.5396 171.132 70.0422 171.609C70.5449 172.077 71.1169 172.311 71.7582 172.311C72.3996 172.311 72.9716 172.077 73.4742 171.609C73.9856 171.124 74.2412 170.461 74.2412 169.62C74.2412 168.779 73.9856 168.125 73.4742 167.657ZM79.9502 166.175C80.1148 166.175 80.2448 166.214 80.3402 166.292C80.4355 166.37 80.4832 166.474 80.4832 166.604C80.4832 166.89 80.2838 167.033 79.8852 167.033C79.2698 167.033 78.7498 167.232 78.3252 167.631C77.9005 168.012 77.6492 168.454 77.5712 168.957V172.61C77.5712 172.731 77.5278 172.84 77.4412 172.935C77.3545 173.022 77.2505 173.065 77.1292 173.065C77.0078 173.065 76.9038 173.022 76.8172 172.935C76.7305 172.84 76.6872 172.731 76.6872 172.61V166.656C76.6872 166.535 76.7305 166.431 76.8172 166.344C76.9038 166.249 77.0078 166.201 77.1292 166.201C77.2505 166.201 77.3545 166.249 77.4412 166.344C77.5278 166.431 77.5712 166.535 77.5712 166.656V167.826C77.6232 167.523 77.8745 167.172 78.3252 166.773C78.7758 166.374 79.3175 166.175 79.9502 166.175ZM85.434 166.175C85.5987 166.175 85.7287 166.214 85.824 166.292C85.9193 166.37 85.967 166.474 85.967 166.604C85.967 166.89 85.7677 167.033 85.369 167.033C84.7537 167.033 84.2337 167.232 83.809 167.631C83.3843 168.012 83.133 168.454 83.055 168.957V172.61C83.055 172.731 83.0117 172.84 82.925 172.935C82.8383 173.022 82.7343 173.065 82.613 173.065C82.4917 173.065 82.3877 173.022 82.301 172.935C82.2143 172.84 82.171 172.731 82.171 172.61V166.656C82.171 166.535 82.2143 166.431 82.301 166.344C82.3877 166.249 82.4917 166.201 82.613 166.201C82.7343 166.201 82.8383 166.249 82.925 166.344C83.0117 166.431 83.055 166.535 83.055 166.656V167.826C83.107 167.523 83.3583 167.172 83.809 166.773C84.2597 166.374 84.8013 166.175 85.434 166.175ZM88.6394 166.383C89.0121 166.244 89.3978 166.175 89.7964 166.175C90.2038 166.175 90.5981 166.244 90.9794 166.383C91.3608 166.513 91.7161 166.73 92.0454 167.033C92.3834 167.328 92.6564 167.687 92.8644 168.112C93.0724 168.563 93.1764 169.065 93.1764 169.62C93.1764 170.175 93.0724 170.682 92.8644 171.141C92.4918 171.956 91.8591 172.532 90.9664 172.87C90.4551 173.035 89.9394 173.1 89.4194 173.065C88.8994 173.03 88.3924 172.844 87.8984 172.506C87.4044 172.159 87.0274 171.704 86.7674 171.141C86.5594 170.682 86.4554 170.175 86.4554 169.62C86.4554 169.065 86.5594 168.563 86.7674 168.112C87.1314 167.306 87.7554 166.73 88.6394 166.383ZM91.5254 167.657C91.0228 167.18 90.4508 166.942 89.8094 166.942C89.1681 166.942 88.5961 167.18 88.0934 167.657C87.5908 168.125 87.3394 168.779 87.3394 169.62C87.3394 170.469 87.5908 171.132 88.0934 171.609C88.5961 172.077 89.1681 172.311 89.8094 172.311C90.4508 172.311 91.0228 172.077 91.5254 171.609C92.0368 171.124 92.2924 170.461 92.2924 169.62C92.2924 168.779 92.0368 168.125 91.5254 167.657ZM103.162 166.201C103.275 166.201 103.37 166.244 103.448 166.331C103.535 166.409 103.578 166.504 103.578 166.617C103.578 166.643 103.569 166.678 103.552 166.721C103.543 166.764 103.539 166.795 103.539 166.812L101.563 172.688C101.476 172.913 101.338 173.026 101.147 173.026C100.956 173.026 100.818 172.913 100.731 172.688L98.7032 167.579L96.6752 172.688C96.5885 172.913 96.4498 173.026 96.2592 173.026C96.0685 173.026 95.9298 172.913 95.8432 172.688L93.8672 166.812C93.8325 166.734 93.8152 166.669 93.8152 166.617C93.8152 166.504 93.8542 166.409 93.9322 166.331C94.0188 166.244 94.1185 166.201 94.2312 166.201C94.4392 166.201 94.5735 166.283 94.6342 166.448L96.3112 171.635L98.2872 166.487C98.3478 166.296 98.4865 166.201 98.7032 166.201C98.9112 166.201 99.0455 166.296 99.1062 166.487L101.095 171.635L102.759 166.448C102.811 166.283 102.945 166.201 103.162 166.201Z" fill="#646464"/>
<path d="M28.6667 168.4H27.4444V169.6H28.6667V168.4ZM31.1111 168.4H29.8889V169.6H31.1111V168.4ZM33.5556 168.4H32.3333V169.6H33.5556V168.4ZM34.7778 164.2H34.1667V163H32.9444V164.2H28.0556V163H26.8333V164.2H26.2222C25.5439 164.2 25.0061 164.74 25.0061 165.4L25 173.8C25 174.46 25.5439 175 26.2222 175H34.7778C35.45 175 36 174.46 36 173.8V165.4C36 164.74 35.45 164.2 34.7778 164.2ZM34.7778 173.8H26.2222V167.2H34.7778V173.8Z" fill="#646464"/>
<path d="M42.78 188.9H48.422C48.526 188.9 48.617 188.939 48.695 189.017C48.7817 189.095 48.825 189.186 48.825 189.29C48.825 189.403 48.7817 189.498 48.695 189.576C48.617 189.654 48.526 189.693 48.422 189.693H46.056V197.584C46.056 197.705 46.0127 197.814 45.926 197.909C45.8393 198.004 45.7353 198.052 45.614 198.052C45.484 198.052 45.3757 198.009 45.289 197.922C45.2023 197.827 45.159 197.714 45.159 197.584V189.693H42.78C42.676 189.693 42.585 189.654 42.507 189.576C42.429 189.498 42.39 189.403 42.39 189.29C42.39 189.186 42.429 189.095 42.507 189.017C42.585 188.939 42.676 188.9 42.78 188.9ZM51.2779 189.368C51.1566 189.507 51.0136 189.546 50.8489 189.485C50.6843 189.416 50.5759 189.307 50.5239 189.16C50.4806 189.013 50.5196 188.87 50.6409 188.731C50.7449 188.627 50.8576 188.579 50.9789 188.588C51.1089 188.597 51.2086 188.644 51.2779 188.731C51.3559 188.818 51.4036 188.917 51.4209 189.03C51.4383 189.143 51.3906 189.255 51.2779 189.368ZM51.4079 191.656V197.623C51.4079 197.744 51.3646 197.853 51.2779 197.948C51.1913 198.035 51.0873 198.078 50.9659 198.078C50.8446 198.078 50.7406 198.035 50.6539 197.948C50.5673 197.853 50.5239 197.744 50.5239 197.623V191.656C50.5239 191.535 50.5673 191.431 50.6539 191.344C50.7406 191.249 50.8446 191.201 50.9659 191.201C51.0873 191.201 51.1913 191.249 51.2779 191.344C51.3646 191.431 51.4079 191.535 51.4079 191.656ZM61.9305 191.175C62.2512 191.175 62.5545 191.227 62.8405 191.331C63.1265 191.426 63.3952 191.578 63.6465 191.786C63.9065 191.994 64.1102 192.293 64.2575 192.683C64.4049 193.064 64.4785 193.511 64.4785 194.022V197.61C64.4785 197.731 64.4352 197.84 64.3485 197.935C64.2619 198.022 64.1579 198.065 64.0365 198.065C63.9239 198.065 63.8199 198.022 63.7245 197.935C63.6379 197.84 63.5945 197.731 63.5945 197.61V194.022C63.5945 193.346 63.4212 192.835 63.0745 192.488C62.7279 192.141 62.2772 191.968 61.7225 191.968C61.0812 191.968 60.5612 192.176 60.1625 192.592C59.7725 192.982 59.5299 193.437 59.4345 193.957V194.022V197.61C59.4345 197.731 59.3912 197.84 59.3045 197.935C59.2179 198.022 59.1139 198.065 58.9925 198.065C58.8712 198.065 58.7672 198.022 58.6805 197.935C58.5939 197.84 58.5505 197.731 58.5505 197.61V194.022C58.5505 193.346 58.3772 192.835 58.0305 192.488C57.6839 192.141 57.2289 191.968 56.6655 191.968C56.0329 191.968 55.5172 192.176 55.1185 192.592C54.7285 192.982 54.4859 193.437 54.3905 193.957V197.61C54.3905 197.731 54.3472 197.84 54.2605 197.935C54.1739 198.022 54.0699 198.065 53.9485 198.065C53.8272 198.065 53.7232 198.022 53.6365 197.935C53.5499 197.84 53.5065 197.731 53.5065 197.61V191.656C53.5065 191.535 53.5499 191.431 53.6365 191.344C53.7232 191.249 53.8272 191.201 53.9485 191.201C54.0699 191.201 54.1739 191.249 54.2605 191.344C54.3472 191.431 54.3905 191.535 54.3905 191.656V192.826C54.4599 192.505 54.7155 192.154 55.1575 191.773C55.6082 191.374 56.1802 191.175 56.8735 191.175C57.4455 191.175 57.9482 191.322 58.3815 191.617C58.8149 191.903 59.1139 192.332 59.2785 192.904C59.5039 192.401 59.8462 191.99 60.3055 191.669C60.7735 191.34 61.3152 191.175 61.9305 191.175ZM69.5988 191.162C70.4135 191.162 71.1588 191.461 71.8348 192.059C72.5108 192.657 72.8488 193.459 72.8488 194.464C72.8488 194.802 72.6581 194.971 72.2768 194.971H67.2068C67.2588 195.725 67.5275 196.306 68.0128 196.713C68.4981 197.112 69.0701 197.311 69.7288 197.311C70.3701 197.311 70.9161 197.125 71.3668 196.752C71.5401 196.622 71.6701 196.557 71.7568 196.557C71.8608 196.557 71.9431 196.592 72.0038 196.661C72.0731 196.722 72.1078 196.804 72.1078 196.908C72.1078 197.029 72.0255 197.168 71.8608 197.324C71.3148 197.818 70.5955 198.065 69.7028 198.065C68.8015 198.065 68.0085 197.766 67.3238 197.168C66.6391 196.561 66.2968 195.712 66.2968 194.62C66.2968 194.065 66.3965 193.563 66.5958 193.112C66.8038 192.653 67.0681 192.289 67.3888 192.02C67.7181 191.743 68.0735 191.53 68.4548 191.383C68.8361 191.236 69.2175 191.162 69.5988 191.162ZM71.1978 192.553C70.7125 192.146 70.1795 191.942 69.5988 191.942C69.0181 191.942 68.4851 192.146 67.9998 192.553C67.5231 192.952 67.2588 193.519 67.2068 194.256H71.9908C71.9388 193.519 71.6745 192.952 71.1978 192.553ZM77.6777 191.175C77.8424 191.175 77.9724 191.214 78.0677 191.292C78.163 191.37 78.2107 191.474 78.2107 191.604C78.2107 191.89 78.0114 192.033 77.6127 192.033C76.9974 192.033 76.4774 192.232 76.0527 192.631C75.628 193.012 75.3767 193.454 75.2987 193.957V197.61C75.2987 197.731 75.2554 197.84 75.1687 197.935C75.082 198.022 74.978 198.065 74.8567 198.065C74.7354 198.065 74.6314 198.022 74.5447 197.935C74.458 197.84 74.4147 197.731 74.4147 197.61V191.656C74.4147 191.535 74.458 191.431 74.5447 191.344C74.6314 191.249 74.7354 191.201 74.8567 191.201C74.978 191.201 75.082 191.249 75.1687 191.344C75.2554 191.431 75.2987 191.535 75.2987 191.656V192.826C75.3507 192.523 75.602 192.172 76.0527 191.773C76.5034 191.374 77.045 191.175 77.6777 191.175Z" fill="#646464"/>
<rect x="20" y="206" width="150" height="22" rx="4" fill="#F2F2F2"/>
<path d="M43.69 213.329V221.194H47.772C47.876 221.194 47.967 221.233 48.045 221.311C48.1317 221.389 48.175 221.484 48.175 221.597C48.175 221.71 48.1317 221.805 48.045 221.883C47.967 221.961 47.876 222 47.772 222H43.274C43.1353 222 43.0183 221.952 42.923 221.857C42.8277 221.762 42.78 221.645 42.78 221.506V213.329C42.78 213.199 42.8233 213.091 42.91 213.004C42.9967 212.909 43.105 212.861 43.235 212.861C43.3563 212.861 43.4603 212.909 43.547 213.004C43.6423 213.091 43.69 213.199 43.69 213.329ZM50.694 213.368C50.5726 213.507 50.4296 213.546 50.265 213.485C50.1003 213.416 49.992 213.307 49.94 213.16C49.8966 213.013 49.9356 212.87 50.057 212.731C50.161 212.627 50.2736 212.579 50.395 212.588C50.525 212.597 50.6246 212.644 50.694 212.731C50.772 212.818 50.8196 212.917 50.837 213.03C50.8543 213.143 50.8066 213.255 50.694 213.368ZM50.824 215.656V221.623C50.824 221.744 50.7806 221.853 50.694 221.948C50.6073 222.035 50.5033 222.078 50.382 222.078C50.2606 222.078 50.1566 222.035 50.07 221.948C49.9833 221.853 49.94 221.744 49.94 221.623V215.656C49.94 215.535 49.9833 215.431 50.07 215.344C50.1566 215.249 50.2606 215.201 50.382 215.201C50.5033 215.201 50.6073 215.249 50.694 215.344C50.7806 215.431 50.824 215.535 50.824 215.656ZM55.0805 215.162C56.0859 215.162 56.8095 215.526 57.2515 216.254C57.3555 216.445 57.3815 216.614 57.3295 216.761C57.2775 216.9 57.1649 216.969 56.9915 216.969C56.8355 216.969 56.6882 216.861 56.5495 216.644C56.2202 216.159 55.7262 215.916 55.0675 215.916C54.6342 215.916 54.2919 216.016 54.0405 216.215C53.7979 216.414 53.6765 216.674 53.6765 216.995C53.6765 217.515 54.0622 217.875 54.8335 218.074L55.6655 218.295C56.3329 218.46 56.8269 218.685 57.1475 218.971C57.4769 219.248 57.6415 219.625 57.6415 220.102C57.6415 220.717 57.3902 221.198 56.8875 221.545C56.4022 221.892 55.7955 222.065 55.0675 222.065C54.5302 222.065 54.0449 221.957 53.6115 221.74C53.1869 221.523 52.9009 221.242 52.7535 220.895C52.6495 220.687 52.5975 220.54 52.5975 220.453C52.5975 220.184 52.7189 220.05 52.9615 220.05C53.1435 220.05 53.2779 220.154 53.3645 220.362C53.6245 220.977 54.1922 221.285 55.0675 221.285C55.5702 221.285 55.9775 221.185 56.2895 220.986C56.6102 220.787 56.7705 220.509 56.7705 220.154C56.7705 219.634 56.3762 219.274 55.5875 219.075L54.5475 218.802C53.3862 218.499 52.8055 217.901 52.8055 217.008C52.8055 216.471 53.0179 216.029 53.4425 215.682C53.8672 215.335 54.4132 215.162 55.0805 215.162ZM61.5607 221.207C61.6821 221.172 61.7861 221.185 61.8727 221.246C61.9594 221.307 62.0027 221.393 62.0027 221.506C62.0027 221.688 61.8901 221.827 61.6647 221.922C61.4394 222.017 61.1707 222.065 60.8587 222.065C60.0441 222.065 59.6367 221.636 59.6367 220.778V215.994H58.9997C58.8437 215.994 58.7311 215.933 58.6617 215.812C58.6011 215.682 58.6011 215.556 58.6617 215.435C58.7311 215.305 58.8437 215.24 58.9997 215.24H59.6367V214.057C59.6281 213.875 59.6974 213.749 59.8447 213.68C60.0007 213.602 60.1524 213.602 60.2997 213.68C60.4557 213.749 60.5294 213.875 60.5207 214.057V215.24H61.6127C61.7687 215.24 61.8814 215.305 61.9507 215.435C62.0201 215.556 62.0201 215.682 61.9507 215.812C61.8814 215.933 61.7687 215.994 61.6127 215.994H60.5207V220.726C60.5207 221.107 60.6941 221.298 61.0407 221.298C61.1794 221.298 61.3527 221.268 61.5607 221.207ZM65.6674 215.162C66.6727 215.162 67.3964 215.526 67.8384 216.254C67.9424 216.445 67.9684 216.614 67.9164 216.761C67.8644 216.9 67.7517 216.969 67.5784 216.969C67.4224 216.969 67.2751 216.861 67.1364 216.644C66.8071 216.159 66.3131 215.916 65.6544 215.916C65.2211 215.916 64.8787 216.016 64.6274 216.215C64.3847 216.414 64.2634 216.674 64.2634 216.995C64.2634 217.515 64.6491 217.875 65.4204 218.074L66.2524 218.295C66.9197 218.46 67.4137 218.685 67.7344 218.971C68.0637 219.248 68.2284 219.625 68.2284 220.102C68.2284 220.717 67.9771 221.198 67.4744 221.545C66.9891 221.892 66.3824 222.065 65.6544 222.065C65.1171 222.065 64.6317 221.957 64.1984 221.74C63.7737 221.523 63.4877 221.242 63.3404 220.895C63.2364 220.687 63.1844 220.54 63.1844 220.453C63.1844 220.184 63.3057 220.05 63.5484 220.05C63.7304 220.05 63.8647 220.154 63.9514 220.362C64.2114 220.977 64.7791 221.285 65.6544 221.285C66.1571 221.285 66.5644 221.185 66.8764 220.986C67.1971 220.787 67.3574 220.509 67.3574 220.154C67.3574 219.634 66.9631 219.274 66.1744 219.075L65.1344 218.802C63.9731 218.499 63.3924 217.901 63.3924 217.008C63.3924 216.471 63.6047 216.029 64.0294 215.682C64.4541 215.335 65.0001 215.162 65.6674 215.162Z" fill="#633EDA"/>
<path d="M36 188.3L33.24 186L32.466 186.912L35.226 189.212L36 188.3ZM27.528 186.912L26.76 186L24 188.294L24.774 189.206L27.528 186.912ZM30.3 189.658H29.4V193.233L32.25 194.931L32.7 194.199L30.3 192.786V189.658ZM30 187.275C27.018 187.275 24.6 189.676 24.6 192.638C24.6 195.599 27.012 198 30 198C32.982 198 35.4 195.599 35.4 192.638C35.4 189.676 32.982 187.275 30 187.275ZM30 196.808C27.678 196.808 25.8 194.943 25.8 192.638C25.8 190.332 27.678 188.467 30 188.467C32.322 188.467 34.2 190.332 34.2 192.638C34.2 194.943 32.322 196.808 30 196.808Z" fill="#646464"/>
<path d="M166 195.06L162.91 192L166 188.94L165.049 188L161 192L165.049 196L166 195.06Z" fill="#7D7D7D"/>
<path d="M165.06 214L162 217.09L158.94 214L158 214.951L162 219L166 214.951L165.06 214Z" fill="#7D7D7D"/>
<path d="M31.875 210H26.375C25.6187 210 25.0069 210.63 25.0069 211.4L25 222.6C25 223.37 25.6119 224 26.3681 224H34.625C35.3813 224 36 223.37 36 222.6V214.2L31.875 210ZM33.25 221.2H27.75V219.8H33.25V221.2ZM33.25 218.4H27.75V217H33.25V218.4ZM31.1875 214.9V211.05L34.9688 214.9H31.1875Z" fill="#633EDA"/>
<rect x="51" y="237" width="6" height="6" rx="2" fill="#A900FF"/>
<rect x="51" y="267" width="6" height="6" rx="2" fill="#F51111"/>
<rect x="51" y="297" width="6" height="6" rx="2" fill="#FFCA00"/>
<rect x="51" y="320" width="6" height="6" rx="2" fill="#63F010"/>
<rect x="51" y="342" width="6" height="6" rx="2" fill="#FFAE30"/>
<path d="M66.572 237.3H71.39C71.456 237.3 71.5147 237.326 71.566 237.377C71.6173 237.421 71.643 237.476 71.643 237.542C71.643 237.615 71.6173 237.678 71.566 237.729C71.5147 237.773 71.456 237.795 71.39 237.795H69.267V244.747C69.267 244.828 69.2377 244.897 69.179 244.956C69.1277 245.007 69.0653 245.033 68.992 245.033C68.9113 245.033 68.8417 245.007 68.783 244.956C68.7317 244.897 68.706 244.828 68.706 244.747V237.795H66.572C66.506 237.795 66.4473 237.773 66.396 237.729C66.352 237.678 66.33 237.615 66.33 237.542C66.33 237.476 66.352 237.421 66.396 237.377C66.4473 237.326 66.506 237.3 66.572 237.3ZM75.134 239.995C75.7206 240.516 76.014 241.231 76.014 242.14C76.014 243.049 75.7206 243.768 75.134 244.296C74.5546 244.817 73.9093 245.077 73.198 245.077C72.4866 245.077 71.8376 244.817 71.251 244.296C70.6716 243.768 70.382 243.049 70.382 242.14C70.382 241.223 70.6716 240.508 71.251 239.995C71.8376 239.474 72.4866 239.214 73.198 239.214C73.902 239.214 74.5473 239.474 75.134 239.995ZM75.464 242.14C75.464 241.37 75.2293 240.772 74.76 240.347C74.2906 239.922 73.77 239.709 73.198 239.709C72.626 239.709 72.1053 239.922 71.636 240.347C71.1666 240.772 70.932 241.37 70.932 242.14C70.932 242.917 71.1666 243.519 71.636 243.944C72.1053 244.369 72.626 244.582 73.198 244.582C73.77 244.582 74.2906 244.369 74.76 243.944C75.2293 243.519 75.464 242.917 75.464 242.14ZM82.5839 237.432V244.78C82.5839 244.897 82.5362 244.978 82.4409 245.022C82.3529 245.066 82.2612 245.066 82.1659 245.022C82.0779 244.978 82.0339 244.897 82.0339 244.78V243.691C81.8212 244.131 81.5205 244.472 81.1319 244.714C80.7432 244.956 80.3179 245.077 79.8559 245.077C79.5405 245.077 79.2252 245.015 78.9099 244.89C78.5945 244.765 78.3012 244.586 78.0299 244.351C77.7585 244.116 77.5385 243.808 77.3699 243.427C77.2012 243.038 77.1169 242.609 77.1169 242.14C77.1169 241.231 77.3992 240.516 77.9639 239.995C78.5432 239.474 79.1739 239.214 79.8559 239.214C80.3252 239.214 80.7542 239.328 81.1429 239.555C81.5389 239.782 81.8359 240.105 82.0339 240.523V237.432C82.0339 237.315 82.0779 237.234 82.1659 237.19C82.2612 237.139 82.3529 237.139 82.4409 237.19C82.5362 237.234 82.5839 237.315 82.5839 237.432ZM82.0669 242.14C82.0669 241.355 81.8469 240.754 81.4069 240.336C80.9669 239.918 80.4609 239.709 79.8889 239.709C79.3169 239.709 78.8035 239.922 78.3489 240.347C77.8942 240.78 77.6669 241.377 77.6669 242.14C77.6669 242.91 77.8942 243.511 78.3489 243.944C78.8035 244.369 79.3169 244.582 79.8889 244.582C80.4462 244.582 80.9485 244.366 81.3959 243.933C81.8432 243.508 82.0669 242.91 82.0669 242.14ZM86.8594 239.214C87.3287 239.214 87.7577 239.328 88.1464 239.555C88.5424 239.782 88.8394 240.105 89.0374 240.523V239.533C89.0374 239.452 89.063 239.386 89.1144 239.335C89.173 239.276 89.239 239.247 89.3124 239.247C89.393 239.247 89.459 239.276 89.5104 239.335C89.5617 239.386 89.5874 239.452 89.5874 239.533V244.78C89.5874 244.897 89.5397 244.978 89.4444 245.022C89.3564 245.066 89.2647 245.066 89.1694 245.022C89.0814 244.978 89.0374 244.897 89.0374 244.78V243.691C88.8247 244.131 88.524 244.472 88.1354 244.714C87.7467 244.956 87.3214 245.077 86.8594 245.077C86.544 245.077 86.2287 245.015 85.9134 244.89C85.598 244.765 85.3047 244.586 85.0334 244.351C84.762 244.116 84.542 243.808 84.3734 243.427C84.2047 243.038 84.1204 242.609 84.1204 242.14C84.1204 241.231 84.4027 240.516 84.9674 239.995C85.5467 239.474 86.1774 239.214 86.8594 239.214ZM89.0704 242.14C89.0704 241.355 88.8504 240.754 88.4104 240.336C87.9704 239.918 87.4644 239.709 86.8924 239.709C86.3204 239.709 85.807 239.922 85.3524 240.347C84.8977 240.78 84.6704 241.377 84.6704 242.14C84.6704 242.91 84.8977 243.511 85.3524 243.944C85.807 244.369 86.3204 244.582 86.8924 244.582C87.4497 244.582 87.952 244.366 88.3994 243.933C88.8467 243.508 89.0704 242.91 89.0704 242.14ZM95.595 239.247C95.6683 239.247 95.7307 239.273 95.782 239.324C95.8333 239.375 95.859 239.438 95.859 239.511C95.859 239.526 95.8517 239.562 95.837 239.621L92.713 246.98C92.669 247.09 92.5847 247.145 92.46 247.145C92.3867 247.145 92.328 247.119 92.284 247.068C92.24 247.017 92.218 246.954 92.218 246.881C92.218 246.866 92.2253 246.83 92.24 246.771L93.054 244.846L90.821 239.621C90.8063 239.562 90.799 239.526 90.799 239.511C90.799 239.438 90.8247 239.375 90.876 239.324C90.9273 239.273 90.9897 239.247 91.063 239.247C91.1877 239.247 91.272 239.302 91.316 239.412L93.329 244.186L95.342 239.412C95.386 239.302 95.4703 239.247 95.595 239.247Z" fill="#696565"/>
<path d="M66.572 261.3H71.39C71.456 261.3 71.5147 261.326 71.566 261.377C71.6173 261.421 71.643 261.476 71.643 261.542C71.643 261.615 71.6173 261.678 71.566 261.729C71.5147 261.773 71.456 261.795 71.39 261.795H69.267V268.747C69.267 268.828 69.2377 268.897 69.179 268.956C69.1277 269.007 69.0653 269.033 68.992 269.033C68.9113 269.033 68.8417 269.007 68.783 268.956C68.7317 268.897 68.706 268.828 68.706 268.747V261.795H66.572C66.506 261.795 66.4473 261.773 66.396 261.729C66.352 261.678 66.33 261.615 66.33 261.542C66.33 261.476 66.352 261.421 66.396 261.377C66.4473 261.326 66.506 261.3 66.572 261.3ZM75.134 263.995C75.7206 264.516 76.014 265.231 76.014 266.14C76.014 267.049 75.7206 267.768 75.134 268.296C74.5546 268.817 73.9093 269.077 73.198 269.077C72.4866 269.077 71.8376 268.817 71.251 268.296C70.6716 267.768 70.382 267.049 70.382 266.14C70.382 265.223 70.6716 264.508 71.251 263.995C71.8376 263.474 72.4866 263.214 73.198 263.214C73.902 263.214 74.5473 263.474 75.134 263.995ZM75.464 266.14C75.464 265.37 75.2293 264.772 74.76 264.347C74.2906 263.922 73.77 263.709 73.198 263.709C72.626 263.709 72.1053 263.922 71.636 264.347C71.1666 264.772 70.932 265.37 70.932 266.14C70.932 266.917 71.1666 267.519 71.636 267.944C72.1053 268.369 72.626 268.582 73.198 268.582C73.77 268.582 74.2906 268.369 74.76 267.944C75.2293 267.519 75.464 266.917 75.464 266.14ZM82.5839 261.432V268.78C82.5839 268.897 82.5362 268.978 82.4409 269.022C82.3529 269.066 82.2612 269.066 82.1659 269.022C82.0779 268.978 82.0339 268.897 82.0339 268.78V267.691C81.8212 268.131 81.5205 268.472 81.1319 268.714C80.7432 268.956 80.3179 269.077 79.8559 269.077C79.5405 269.077 79.2252 269.015 78.9099 268.89C78.5945 268.765 78.3012 268.586 78.0299 268.351C77.7585 268.116 77.5385 267.808 77.3699 267.427C77.2012 267.038 77.1169 266.609 77.1169 266.14C77.1169 265.231 77.3992 264.516 77.9639 263.995C78.5432 263.474 79.1739 263.214 79.8559 263.214C80.3252 263.214 80.7542 263.328 81.1429 263.555C81.5389 263.782 81.8359 264.105 82.0339 264.523V261.432C82.0339 261.315 82.0779 261.234 82.1659 261.19C82.2612 261.139 82.3529 261.139 82.4409 261.19C82.5362 261.234 82.5839 261.315 82.5839 261.432ZM82.0669 266.14C82.0669 265.355 81.8469 264.754 81.4069 264.336C80.9669 263.918 80.4609 263.709 79.8889 263.709C79.3169 263.709 78.8035 263.922 78.3489 264.347C77.8942 264.78 77.6669 265.377 77.6669 266.14C77.6669 266.91 77.8942 267.511 78.3489 267.944C78.8035 268.369 79.3169 268.582 79.8889 268.582C80.4462 268.582 80.9485 268.366 81.3959 267.933C81.8432 267.508 82.0669 266.91 82.0669 266.14ZM86.8594 263.214C87.3287 263.214 87.7577 263.328 88.1464 263.555C88.5424 263.782 88.8394 264.105 89.0374 264.523V263.533C89.0374 263.452 89.063 263.386 89.1144 263.335C89.173 263.276 89.239 263.247 89.3124 263.247C89.393 263.247 89.459 263.276 89.5104 263.335C89.5617 263.386 89.5874 263.452 89.5874 263.533V268.78C89.5874 268.897 89.5397 268.978 89.4444 269.022C89.3564 269.066 89.2647 269.066 89.1694 269.022C89.0814 268.978 89.0374 268.897 89.0374 268.78V267.691C88.8247 268.131 88.524 268.472 88.1354 268.714C87.7467 268.956 87.3214 269.077 86.8594 269.077C86.544 269.077 86.2287 269.015 85.9134 268.89C85.598 268.765 85.3047 268.586 85.0334 268.351C84.762 268.116 84.542 267.808 84.3734 267.427C84.2047 267.038 84.1204 266.609 84.1204 266.14C84.1204 265.231 84.4027 264.516 84.9674 263.995C85.5467 263.474 86.1774 263.214 86.8594 263.214ZM89.0704 266.14C89.0704 265.355 88.8504 264.754 88.4104 264.336C87.9704 263.918 87.4644 263.709 86.8924 263.709C86.3204 263.709 85.807 263.922 85.3524 264.347C84.8977 264.78 84.6704 265.377 84.6704 266.14C84.6704 266.91 84.8977 267.511 85.3524 267.944C85.807 268.369 86.3204 268.582 86.8924 268.582C87.4497 268.582 87.952 268.366 88.3994 267.933C88.8467 267.508 89.0704 266.91 89.0704 266.14ZM95.595 263.247C95.6683 263.247 95.7307 263.273 95.782 263.324C95.8333 263.375 95.859 263.438 95.859 263.511C95.859 263.526 95.8517 263.562 95.837 263.621L92.713 270.98C92.669 271.09 92.5847 271.145 92.46 271.145C92.3867 271.145 92.328 271.119 92.284 271.068C92.24 271.017 92.218 270.954 92.218 270.881C92.218 270.866 92.2253 270.83 92.24 270.771L93.054 268.846L90.821 263.621C90.8063 263.562 90.799 263.526 90.799 263.511C90.799 263.438 90.8247 263.375 90.876 263.324C90.9273 263.273 90.9897 263.247 91.063 263.247C91.1877 263.247 91.272 263.302 91.316 263.412L93.329 268.186L95.342 263.412C95.386 263.302 95.4703 263.247 95.595 263.247ZM97.1848 263.489H97.1188C96.9575 263.489 96.9062 263.423 96.9648 263.291L97.6248 261.509C97.6688 261.37 97.7568 261.3 97.8888 261.3H98.1748C98.3142 261.3 98.3508 261.366 98.2848 261.498L97.4268 263.346C97.3828 263.441 97.3022 263.489 97.1848 263.489ZM99.9573 263.214C100.815 263.214 101.428 263.533 101.794 264.171C101.846 264.266 101.871 264.351 101.871 264.424C101.871 264.49 101.846 264.545 101.794 264.589C101.75 264.633 101.692 264.655 101.618 264.655C101.523 264.655 101.42 264.567 101.31 264.391C101.024 263.936 100.562 263.709 99.9243 263.709C99.5136 263.709 99.1909 263.804 98.9563 263.995C98.7216 264.178 98.6043 264.424 98.6043 264.732C98.6043 265.231 98.9709 265.572 99.7043 265.755L100.419 265.931C100.999 266.07 101.424 266.261 101.695 266.503C101.967 266.738 102.102 267.049 102.102 267.438C102.102 267.937 101.893 268.333 101.475 268.626C101.057 268.912 100.551 269.055 99.9573 269.055C99.4879 269.055 99.0663 268.96 98.6923 268.769C98.3256 268.571 98.0836 268.318 97.9663 268.01C97.9149 267.878 97.8893 267.783 97.8893 267.724C97.8893 267.636 97.9113 267.566 97.9553 267.515C98.0066 267.464 98.0653 267.438 98.1313 267.438C98.2559 267.438 98.3439 267.519 98.3953 267.68C98.4979 267.959 98.6849 268.175 98.9563 268.329C99.2349 268.476 99.5686 268.549 99.9573 268.549C100.419 268.549 100.801 268.454 101.101 268.263C101.409 268.072 101.563 267.808 101.563 267.471C101.563 267.2 101.472 266.987 101.288 266.833C101.112 266.679 100.837 266.554 100.463 266.459L99.5173 266.217C98.5493 265.96 98.0653 265.469 98.0653 264.743C98.0653 264.303 98.2413 263.94 98.5933 263.654C98.9379 263.361 99.3926 263.214 99.9573 263.214ZM66.957 274.3H68.629C69.8097 274.3 70.7373 274.641 71.412 275.323C72.094 276.005 72.435 276.955 72.435 278.172C72.435 279.367 72.094 280.306 71.412 280.988C70.7373 281.663 69.8097 282 68.629 282H66.957C66.869 282 66.7957 281.974 66.737 281.923C66.6857 281.864 66.66 281.791 66.66 281.703V274.597C66.66 274.509 66.6857 274.439 66.737 274.388C66.7957 274.329 66.869 274.3 66.957 274.3ZM67.221 281.505H68.629C69.663 281.505 70.4623 281.219 71.027 280.647C71.599 280.068 71.885 279.243 71.885 278.172C71.885 277.079 71.6027 276.243 71.038 275.664C70.4733 275.085 69.6703 274.795 68.629 274.795H67.221V281.505ZM73.975 274.322C73.975 274.205 74.0227 274.124 74.118 274.08C74.2133 274.036 74.3087 274.036 74.404 274.08C74.4993 274.124 74.547 274.205 74.547 274.322C74.547 274.447 74.4993 274.535 74.404 274.586C74.3087 274.63 74.2133 274.63 74.118 274.586C74.0227 274.535 73.975 274.447 73.975 274.322ZM74.536 276.533V281.78C74.536 281.897 74.4883 281.978 74.393 282.022C74.305 282.073 74.2133 282.073 74.118 282.022C74.03 281.978 73.986 281.897 73.986 281.78V276.533C73.986 276.416 74.03 276.335 74.118 276.291C74.2133 276.24 74.305 276.24 74.393 276.291C74.4883 276.335 74.536 276.416 74.536 276.533ZM78.0986 276.214C78.9566 276.214 79.569 276.533 79.9356 277.171C79.987 277.266 80.0126 277.351 80.0126 277.424C80.0126 277.49 79.987 277.545 79.9356 277.589C79.8916 277.633 79.833 277.655 79.7596 277.655C79.6643 277.655 79.5616 277.567 79.4516 277.391C79.1656 276.936 78.7036 276.709 78.0656 276.709C77.655 276.709 77.3323 276.804 77.0976 276.995C76.863 277.178 76.7456 277.424 76.7456 277.732C76.7456 278.231 77.1123 278.572 77.8456 278.755L78.5606 278.931C79.14 279.07 79.5653 279.261 79.8366 279.503C80.108 279.738 80.2436 280.049 80.2436 280.438C80.2436 280.937 80.0346 281.333 79.6166 281.626C79.1986 281.912 78.6926 282.055 78.0986 282.055C77.6293 282.055 77.2076 281.96 76.8336 281.769C76.467 281.571 76.225 281.318 76.1076 281.01C76.0563 280.878 76.0306 280.783 76.0306 280.724C76.0306 280.636 76.0526 280.566 76.0966 280.515C76.148 280.464 76.2066 280.438 76.2726 280.438C76.3973 280.438 76.4853 280.519 76.5366 280.68C76.6393 280.959 76.8263 281.175 77.0976 281.329C77.3763 281.476 77.71 281.549 78.0986 281.549C78.5606 281.549 78.942 281.454 79.2426 281.263C79.5506 281.072 79.7046 280.808 79.7046 280.471C79.7046 280.2 79.613 279.987 79.4296 279.833C79.2536 279.679 78.9786 279.554 78.6046 279.459L77.6586 279.217C76.6906 278.96 76.2066 278.469 76.2066 277.743C76.2066 277.303 76.3826 276.94 76.7346 276.654C77.0793 276.361 77.534 276.214 78.0986 276.214ZM83.3742 281.483C83.4622 281.454 83.5392 281.461 83.6052 281.505C83.6712 281.542 83.7042 281.597 83.7042 281.67C83.7042 281.927 83.4072 282.055 82.8132 282.055C82.2192 282.055 81.9222 281.758 81.9222 281.164V276.775H81.3172C81.1558 276.775 81.0752 276.691 81.0752 276.522C81.0752 276.361 81.1558 276.28 81.3172 276.28H81.9222V275.202C81.9222 275.092 81.9662 275.015 82.0542 274.971C82.1495 274.92 82.2412 274.92 82.3292 274.971C82.4245 275.015 82.4722 275.092 82.4722 275.202V276.28H83.4512C83.5172 276.28 83.5758 276.306 83.6272 276.357C83.6785 276.401 83.7042 276.456 83.7042 276.522C83.7042 276.691 83.6198 276.775 83.4512 276.775H82.4722V281.087C82.4722 281.41 82.6262 281.571 82.9342 281.571C83.0515 281.571 83.1982 281.542 83.3742 281.483ZM87.7858 276.225C88.0352 276.225 88.1598 276.317 88.1598 276.5C88.1598 276.683 88.0352 276.775 87.7858 276.775C87.2358 276.775 86.7702 276.955 86.3888 277.314C85.9928 277.688 85.7582 278.099 85.6848 278.546V281.769C85.6848 281.886 85.6372 281.967 85.5418 282.011C85.4538 282.062 85.3622 282.062 85.2668 282.011C85.1788 281.967 85.1348 281.886 85.1348 281.769V276.533C85.1348 276.416 85.1788 276.335 85.2668 276.291C85.3622 276.24 85.4538 276.24 85.5418 276.291C85.6372 276.335 85.6848 276.416 85.6848 276.533V277.644C85.7362 277.395 85.9598 277.094 86.3558 276.742C86.7445 276.397 87.2212 276.225 87.7858 276.225ZM91.3165 276.214C91.7858 276.214 92.2148 276.328 92.6035 276.555C92.9995 276.782 93.2965 277.105 93.4945 277.523V276.533C93.4945 276.452 93.5202 276.386 93.5715 276.335C93.6302 276.276 93.6962 276.247 93.7695 276.247C93.8502 276.247 93.9162 276.276 93.9675 276.335C94.0188 276.386 94.0445 276.452 94.0445 276.533V281.78C94.0445 281.897 93.9968 281.978 93.9015 282.022C93.8135 282.066 93.7218 282.066 93.6265 282.022C93.5385 281.978 93.4945 281.897 93.4945 281.78V280.691C93.2818 281.131 92.9812 281.472 92.5925 281.714C92.2038 281.956 91.7785 282.077 91.3165 282.077C91.0012 282.077 90.6858 282.015 90.3705 281.89C90.0552 281.765 89.7618 281.586 89.4905 281.351C89.2192 281.116 88.9992 280.808 88.8305 280.427C88.6618 280.038 88.5775 279.609 88.5775 279.14C88.5775 278.231 88.8598 277.516 89.4245 276.995C90.0038 276.474 90.6345 276.214 91.3165 276.214ZM93.5275 279.14C93.5275 278.355 93.3075 277.754 92.8675 277.336C92.4275 276.918 91.9215 276.709 91.3495 276.709C90.7775 276.709 90.2642 276.922 89.8095 277.347C89.3548 277.78 89.1275 278.377 89.1275 279.14C89.1275 279.91 89.3548 280.511 89.8095 280.944C90.2642 281.369 90.7775 281.582 91.3495 281.582C91.9068 281.582 92.4092 281.366 92.8565 280.933C93.3038 280.508 93.5275 279.91 93.5275 279.14ZM100.355 280.537C100.428 280.537 100.487 280.559 100.531 280.603C100.582 280.647 100.608 280.706 100.608 280.779C100.608 280.823 100.579 280.896 100.52 280.999C100.285 281.336 99.981 281.597 99.607 281.78C99.233 281.963 98.8296 282.055 98.397 282.055C98.067 282.055 97.737 281.993 97.407 281.868C97.0843 281.743 96.7836 281.567 96.505 281.34C96.2336 281.105 96.01 280.797 95.834 280.416C95.6653 280.035 95.581 279.609 95.581 279.14C95.581 278.223 95.8706 277.508 96.45 276.995C97.0366 276.474 97.6856 276.214 98.397 276.214C98.8296 276.214 99.233 276.306 99.607 276.489C99.981 276.672 100.285 276.933 100.52 277.27C100.579 277.373 100.608 277.446 100.608 277.49C100.608 277.563 100.582 277.622 100.531 277.666C100.487 277.71 100.428 277.732 100.355 277.732C100.252 277.732 100.161 277.67 100.08 277.545C99.904 277.281 99.6656 277.076 99.365 276.929C99.0716 276.782 98.7563 276.709 98.419 276.709C97.8323 276.709 97.3043 276.922 96.835 277.347C96.3656 277.772 96.131 278.37 96.131 279.14C96.131 279.903 96.3656 280.497 96.835 280.922C97.3043 281.347 97.8323 281.56 98.419 281.56C98.7563 281.56 99.0716 281.487 99.365 281.34C99.6656 281.193 99.904 280.988 100.08 280.724C100.161 280.599 100.252 280.537 100.355 280.537ZM104.008 281.483C104.096 281.454 104.173 281.461 104.239 281.505C104.305 281.542 104.338 281.597 104.338 281.67C104.338 281.927 104.041 282.055 103.447 282.055C102.853 282.055 102.556 281.758 102.556 281.164V276.775H101.951C101.79 276.775 101.709 276.691 101.709 276.522C101.709 276.361 101.79 276.28 101.951 276.28H102.556V275.202C102.556 275.092 102.6 275.015 102.688 274.971C102.784 274.92 102.875 274.92 102.963 274.971C103.059 275.015 103.106 275.092 103.106 275.202V276.28H104.085C104.151 276.28 104.21 276.306 104.261 276.357C104.313 276.401 104.338 276.456 104.338 276.522C104.338 276.691 104.254 276.775 104.085 276.775H103.106V281.087C103.106 281.41 103.26 281.571 103.568 281.571C103.686 281.571 103.832 281.542 104.008 281.483ZM105.769 274.322C105.769 274.205 105.817 274.124 105.912 274.08C106.007 274.036 106.103 274.036 106.198 274.08C106.293 274.124 106.341 274.205 106.341 274.322C106.341 274.447 106.293 274.535 106.198 274.586C106.103 274.63 106.007 274.63 105.912 274.586C105.817 274.535 105.769 274.447 105.769 274.322ZM106.33 276.533V281.78C106.33 281.897 106.282 281.978 106.187 282.022C106.099 282.073 106.007 282.073 105.912 282.022C105.824 281.978 105.78 281.897 105.78 281.78V276.533C105.78 276.416 105.824 276.335 105.912 276.291C106.007 276.24 106.099 276.24 106.187 276.291C106.282 276.335 106.33 276.416 106.33 276.533ZM112.631 276.995C113.218 277.516 113.511 278.231 113.511 279.14C113.511 280.049 113.218 280.768 112.631 281.296C112.052 281.817 111.407 282.077 110.695 282.077C109.984 282.077 109.335 281.817 108.748 281.296C108.169 280.768 107.879 280.049 107.879 279.14C107.879 278.223 108.169 277.508 108.748 276.995C109.335 276.474 109.984 276.214 110.695 276.214C111.399 276.214 112.045 276.474 112.631 276.995ZM112.961 279.14C112.961 278.37 112.727 277.772 112.257 277.347C111.788 276.922 111.267 276.709 110.695 276.709C110.123 276.709 109.603 276.922 109.133 277.347C108.664 277.772 108.429 278.37 108.429 279.14C108.429 279.917 108.664 280.519 109.133 280.944C109.603 281.369 110.123 281.582 110.695 281.582C111.267 281.582 111.788 281.369 112.257 280.944C112.727 280.519 112.961 279.917 112.961 279.14ZM117.551 276.225C118.138 276.225 118.648 276.412 119.08 276.786C119.52 277.16 119.74 277.754 119.74 278.568V281.769C119.74 281.886 119.693 281.967 119.597 282.011C119.509 282.055 119.418 282.055 119.322 282.011C119.234 281.967 119.19 281.886 119.19 281.769V278.568C119.19 277.959 119.033 277.501 118.717 277.193C118.402 276.885 117.988 276.731 117.474 276.731C116.917 276.731 116.448 276.914 116.066 277.281C115.692 277.648 115.465 278.069 115.384 278.546V281.769C115.384 281.886 115.337 281.967 115.241 282.011C115.153 282.055 115.062 282.055 114.966 282.011C114.878 281.967 114.834 281.886 114.834 281.769V276.533C114.834 276.416 114.878 276.335 114.966 276.291C115.062 276.24 115.153 276.24 115.241 276.291C115.337 276.335 115.384 276.416 115.384 276.533V277.644C115.436 277.387 115.659 277.083 116.055 276.731C116.444 276.394 116.943 276.225 117.551 276.225ZM123.298 276.214C124.156 276.214 124.768 276.533 125.135 277.171C125.186 277.266 125.212 277.351 125.212 277.424C125.212 277.49 125.186 277.545 125.135 277.589C125.091 277.633 125.032 277.655 124.959 277.655C124.864 277.655 124.761 277.567 124.651 277.391C124.365 276.936 123.903 276.709 123.265 276.709C122.854 276.709 122.532 276.804 122.297 276.995C122.062 277.178 121.945 277.424 121.945 277.732C121.945 278.231 122.312 278.572 123.045 278.755L123.76 278.931C124.339 279.07 124.765 279.261 125.036 279.503C125.307 279.738 125.443 280.049 125.443 280.438C125.443 280.937 125.234 281.333 124.816 281.626C124.398 281.912 123.892 282.055 123.298 282.055C122.829 282.055 122.407 281.96 122.033 281.769C121.666 281.571 121.424 281.318 121.307 281.01C121.256 280.878 121.23 280.783 121.23 280.724C121.23 280.636 121.252 280.566 121.296 280.515C121.347 280.464 121.406 280.438 121.472 280.438C121.597 280.438 121.685 280.519 121.736 280.68C121.839 280.959 122.026 281.175 122.297 281.329C122.576 281.476 122.909 281.549 123.298 281.549C123.76 281.549 124.141 281.454 124.442 281.263C124.75 281.072 124.904 280.808 124.904 280.471C124.904 280.2 124.812 279.987 124.629 279.833C124.453 279.679 124.178 279.554 123.804 279.459L122.858 279.217C121.89 278.96 121.406 278.469 121.406 277.743C121.406 277.303 121.582 276.94 121.934 276.654C122.279 276.361 122.733 276.214 123.298 276.214Z" fill="#696565"/>
<path d="M72.237 297.267C72.3103 297.267 72.3727 297.296 72.424 297.355C72.4827 297.406 72.512 297.469 72.512 297.542V302.085C72.512 303.009 72.2443 303.739 71.709 304.274C71.181 304.809 70.4807 305.077 69.608 305.077C68.7353 305.077 68.035 304.813 67.507 304.285C66.979 303.75 66.715 303.016 66.715 302.085V297.542C66.715 297.469 66.7407 297.406 66.792 297.355C66.8507 297.296 66.9167 297.267 66.99 297.267C67.0707 297.267 67.1367 297.296 67.188 297.355C67.2467 297.406 67.276 297.469 67.276 297.542V302.074C67.276 302.859 67.4813 303.475 67.892 303.922C68.31 304.362 68.882 304.582 69.608 304.582C70.334 304.582 70.906 304.362 71.324 303.922C71.742 303.475 71.951 302.859 71.951 302.074V297.542C71.951 297.469 71.9767 297.406 72.028 297.355C72.0867 297.296 72.1563 297.267 72.237 297.267ZM74.6155 297.245C74.6888 297.245 74.7512 297.274 74.8025 297.333C74.8612 297.384 74.8905 297.45 74.8905 297.531V304.769C74.8905 304.85 74.8612 304.919 74.8025 304.978C74.7512 305.029 74.6888 305.055 74.6155 305.055C74.5348 305.055 74.4652 305.029 74.4065 304.978C74.3552 304.919 74.3295 304.85 74.3295 304.769V297.531C74.3295 297.45 74.3552 297.384 74.4065 297.333C74.4652 297.274 74.5348 297.245 74.6155 297.245Z" fill="#696565"/>
<path d="M72.237 320.267C72.3103 320.267 72.3727 320.296 72.424 320.355C72.4827 320.406 72.512 320.469 72.512 320.542V325.085C72.512 326.009 72.2443 326.739 71.709 327.274C71.181 327.809 70.4807 328.077 69.608 328.077C68.7353 328.077 68.035 327.813 67.507 327.285C66.979 326.75 66.715 326.016 66.715 325.085V320.542C66.715 320.469 66.7407 320.406 66.792 320.355C66.8507 320.296 66.9167 320.267 66.99 320.267C67.0707 320.267 67.1367 320.296 67.188 320.355C67.2467 320.406 67.276 320.469 67.276 320.542V325.074C67.276 325.859 67.4813 326.475 67.892 326.922C68.31 327.362 68.882 327.582 69.608 327.582C70.334 327.582 70.906 327.362 71.324 326.922C71.742 326.475 71.951 325.859 71.951 325.074V320.542C71.951 320.469 71.9767 320.406 72.028 320.355C72.0867 320.296 72.1563 320.267 72.237 320.267ZM74.4285 328.033C74.3112 328.033 74.2305 327.985 74.1865 327.89C74.1498 327.787 74.1645 327.688 74.2305 327.593L76.7825 324.018L74.4175 320.707C74.3515 320.612 74.3368 320.516 74.3735 320.421C74.4175 320.318 74.4982 320.267 74.6155 320.267C74.7108 320.267 74.7952 320.315 74.8685 320.41L77.1015 323.567L79.3345 320.41C79.4078 320.315 79.4922 320.267 79.5875 320.267C79.7048 320.267 79.7818 320.318 79.8185 320.421C79.8625 320.516 79.8515 320.612 79.7855 320.707L77.4205 324.018L79.9725 327.593C80.0385 327.688 80.0495 327.787 80.0055 327.89C79.9688 327.985 79.8918 328.033 79.7745 328.033C79.6718 328.033 79.5875 327.985 79.5215 327.89L77.1015 324.469L74.6815 327.89C74.6155 327.985 74.5312 328.033 74.4285 328.033Z" fill="#696565"/>
<path d="M69.33 341.826L71.877 347.721C71.889 347.769 71.895 347.802 71.895 347.82C71.895 347.88 71.874 347.934 71.832 347.982C71.79 348.024 71.739 348.045 71.679 348.045C71.571 348.045 71.496 347.997 71.454 347.901L70.689 346.137H67.521L66.756 347.901C66.714 347.997 66.639 348.045 66.531 348.045C66.471 348.045 66.42 348.024 66.378 347.982C66.336 347.934 66.315 347.88 66.315 347.82C66.315 347.802 66.321 347.769 66.333 347.721L68.88 341.826C68.934 341.712 69.009 341.655 69.105 341.655C69.201 341.655 69.276 341.712 69.33 341.826ZM69.105 342.456L67.683 345.75H70.527L69.105 342.456ZM76.8619 341.808V347.82C76.8619 347.916 76.8229 347.982 76.7449 348.018C76.6729 348.054 76.5979 348.054 76.5199 348.018C76.4479 347.982 76.4119 347.916 76.4119 347.82V346.929C76.2379 347.289 75.9919 347.568 75.6739 347.766C75.3559 347.964 75.0079 348.063 74.6299 348.063C74.3719 348.063 74.1139 348.012 73.8559 347.91C73.5979 347.808 73.3579 347.661 73.1359 347.469C72.9139 347.277 72.7339 347.025 72.5959 346.713C72.4579 346.395 72.3889 346.044 72.3889 345.66C72.3889 344.916 72.6199 344.331 73.0819 343.905C73.5559 343.479 74.0719 343.266 74.6299 343.266C75.0139 343.266 75.3649 343.359 75.6829 343.545C76.0069 343.731 76.2499 343.995 76.4119 344.337V341.808C76.4119 341.712 76.4479 341.646 76.5199 341.61C76.5979 341.568 76.6729 341.568 76.7449 341.61C76.8229 341.646 76.8619 341.712 76.8619 341.808ZM76.4389 345.66C76.4389 345.018 76.2589 344.526 75.8989 344.184C75.5389 343.842 75.1249 343.671 74.6569 343.671C74.1889 343.671 73.7689 343.845 73.3969 344.193C73.0249 344.547 72.8389 345.036 72.8389 345.66C72.8389 346.29 73.0249 346.782 73.3969 347.136C73.7689 347.484 74.1889 347.658 74.6569 347.658C75.1129 347.658 75.5239 347.481 75.8899 347.127C76.2559 346.779 76.4389 346.29 76.4389 345.66ZM82.5921 341.808V347.82C82.5921 347.916 82.5531 347.982 82.4751 348.018C82.4031 348.054 82.3281 348.054 82.2501 348.018C82.1781 347.982 82.1421 347.916 82.1421 347.82V346.929C81.9681 347.289 81.7221 347.568 81.4041 347.766C81.0861 347.964 80.7381 348.063 80.3601 348.063C80.1021 348.063 79.8441 348.012 79.5861 347.91C79.3281 347.808 79.0881 347.661 78.8661 347.469C78.6441 347.277 78.4641 347.025 78.3261 346.713C78.1881 346.395 78.1191 346.044 78.1191 345.66C78.1191 344.916 78.3501 344.331 78.8121 343.905C79.2861 343.479 79.8021 343.266 80.3601 343.266C80.7441 343.266 81.0951 343.359 81.4131 343.545C81.7371 343.731 81.9801 343.995 82.1421 344.337V341.808C82.1421 341.712 82.1781 341.646 82.2501 341.61C82.3281 341.568 82.4031 341.568 82.4751 341.61C82.5531 341.646 82.5921 341.712 82.5921 341.808ZM82.1691 345.66C82.1691 345.018 81.9891 344.526 81.6291 344.184C81.2691 343.842 80.8551 343.671 80.3871 343.671C79.9191 343.671 79.4991 343.845 79.1271 344.193C78.7551 344.547 78.5691 345.036 78.5691 345.66C78.5691 346.29 78.7551 346.782 79.1271 347.136C79.4991 347.484 79.9191 347.658 80.3871 347.658C80.8431 347.658 81.2541 347.481 81.6201 347.127C81.9861 346.779 82.1691 346.29 82.1691 345.66ZM88.7002 343.266C89.0842 343.266 89.4352 343.359 89.7532 343.545C90.0772 343.731 90.3202 343.995 90.4822 344.337V343.527C90.4822 343.461 90.5032 343.407 90.5452 343.365C90.5932 343.317 90.6472 343.293 90.7072 343.293C90.7732 343.293 90.8272 343.317 90.8692 343.365C90.9112 343.407 90.9322 343.461 90.9322 343.527V347.82C90.9322 347.916 90.8932 347.982 90.8152 348.018C90.7432 348.054 90.6682 348.054 90.5902 348.018C90.5182 347.982 90.4822 347.916 90.4822 347.82V346.929C90.3082 347.289 90.0622 347.568 89.7442 347.766C89.4262 347.964 89.0782 348.063 88.7002 348.063C88.4422 348.063 88.1842 348.012 87.9262 347.91C87.6682 347.808 87.4282 347.661 87.2062 347.469C86.9842 347.277 86.8042 347.025 86.6662 346.713C86.5282 346.395 86.4592 346.044 86.4592 345.66C86.4592 344.916 86.6902 344.331 87.1522 343.905C87.6262 343.479 88.1422 343.266 88.7002 343.266ZM90.5092 345.66C90.5092 345.018 90.3292 344.526 89.9692 344.184C89.6092 343.842 89.1952 343.671 88.7272 343.671C88.2592 343.671 87.8392 343.845 87.4672 344.193C87.0952 344.547 86.9092 345.036 86.9092 345.66C86.9092 346.29 87.0952 346.782 87.4672 347.136C87.8392 347.484 88.2592 347.658 88.7272 347.658C89.1832 347.658 89.5942 347.481 89.9602 347.127C90.3262 346.779 90.5092 346.29 90.5092 345.66ZM95.4293 341.799V347.811C95.4293 347.907 95.3903 347.973 95.3123 348.009C95.2403 348.045 95.1653 348.045 95.0873 348.009C95.0153 347.973 94.9793 347.907 94.9793 347.811V341.799C94.9793 341.709 95.0153 341.646 95.0873 341.61C95.1653 341.568 95.2403 341.568 95.3123 341.61C95.3903 341.646 95.4293 341.709 95.4293 341.799ZM96.8686 341.718C96.8686 341.622 96.9076 341.556 96.9856 341.52C97.0636 341.484 97.1416 341.484 97.2196 341.52C97.2976 341.556 97.3366 341.622 97.3366 341.718C97.3366 341.82 97.2976 341.892 97.2196 341.934C97.1416 341.97 97.0636 341.97 96.9856 341.934C96.9076 341.892 96.8686 341.82 96.8686 341.718ZM97.3276 343.527V347.82C97.3276 347.916 97.2886 347.982 97.2106 348.018C97.1386 348.06 97.0636 348.06 96.9856 348.018C96.9136 347.982 96.8776 347.916 96.8776 347.82V343.527C96.8776 343.431 96.9136 343.365 96.9856 343.329C97.0636 343.287 97.1386 343.287 97.2106 343.329C97.2886 343.365 97.3276 343.431 97.3276 343.527ZM100.242 343.266C100.944 343.266 101.445 343.527 101.745 344.049C101.787 344.127 101.808 344.196 101.808 344.256C101.808 344.31 101.787 344.355 101.745 344.391C101.709 344.427 101.661 344.445 101.601 344.445C101.523 344.445 101.439 344.373 101.349 344.229C101.115 343.857 100.737 343.671 100.215 343.671C99.8795 343.671 99.6155 343.749 99.4235 343.905C99.2315 344.055 99.1355 344.256 99.1355 344.508C99.1355 344.916 99.4355 345.195 100.035 345.345L100.62 345.489C101.094 345.603 101.442 345.759 101.664 345.957C101.886 346.149 101.997 346.404 101.997 346.722C101.997 347.13 101.826 347.454 101.484 347.694C101.142 347.928 100.728 348.045 100.242 348.045C99.8585 348.045 99.5135 347.967 99.2075 347.811C98.9075 347.649 98.7095 347.442 98.6135 347.19C98.5715 347.082 98.5505 347.004 98.5505 346.956C98.5505 346.884 98.5685 346.827 98.6045 346.785C98.6465 346.743 98.6945 346.722 98.7485 346.722C98.8505 346.722 98.9225 346.788 98.9645 346.92C99.0485 347.148 99.2015 347.325 99.4235 347.451C99.6515 347.571 99.9245 347.631 100.242 347.631C100.62 347.631 100.932 347.553 101.178 347.397C101.43 347.241 101.556 347.025 101.556 346.749C101.556 346.527 101.481 346.353 101.331 346.227C101.187 346.101 100.962 345.999 100.656 345.921L99.8825 345.723C99.0905 345.513 98.6945 345.111 98.6945 344.517C98.6945 344.157 98.8385 343.86 99.1265 343.626C99.4085 343.386 99.7805 343.266 100.242 343.266ZM104.559 347.577C104.631 347.553 104.694 347.559 104.748 347.595C104.802 347.625 104.829 347.67 104.829 347.73C104.829 347.94 104.586 348.045 104.1 348.045C103.614 348.045 103.371 347.802 103.371 347.316V343.725H102.876C102.744 343.725 102.678 343.656 102.678 343.518C102.678 343.386 102.744 343.32 102.876 343.32H103.371V342.438C103.371 342.348 103.407 342.285 103.479 342.249C103.557 342.207 103.632 342.207 103.704 342.249C103.782 342.285 103.821 342.348 103.821 342.438V343.32H104.622C104.676 343.32 104.724 343.341 104.766 343.383C104.808 343.419 104.829 343.464 104.829 343.518C104.829 343.656 104.76 343.725 104.622 343.725H103.821V347.253C103.821 347.517 103.947 347.649 104.199 347.649C104.295 347.649 104.415 347.625 104.559 347.577ZM106.314 347.505C106.452 347.643 106.455 347.778 106.323 347.91C106.191 348.042 106.056 348.039 105.918 347.901C105.78 347.763 105.777 347.628 105.909 347.496C106.041 347.364 106.176 347.367 106.314 347.505ZM107.817 347.505C107.955 347.643 107.958 347.778 107.826 347.91C107.694 348.042 107.559 348.039 107.421 347.901C107.283 347.763 107.28 347.628 107.412 347.496C107.544 347.364 107.679 347.367 107.817 347.505ZM109.32 347.505C109.458 347.643 109.461 347.778 109.329 347.91C109.197 348.042 109.062 348.039 108.924 347.901C108.786 347.763 108.783 347.628 108.915 347.496C109.047 347.364 109.182 347.367 109.32 347.505Z" fill="#B3B3B3"/>
<defs>
<filter id="filter0_i" x="0" y="0" width="474" height="408" filterUnits="userSpaceOnUse" color-interpolation-filters="sRGB">
<feFlood flood-opacity="0" result="BackgroundImageFix"/>
<feBlend mode="normal" in="SourceGraphic" in2="BackgroundImageFix" result="shape"/>
<feColorMatrix in="SourceAlpha" type="matrix" values="0 0 0 0 0 0 0 0 0 0 0 0 0 0 0 0 0 0 127 0" result="hardAlpha"/>
<feOffset dy="4"/>
<feGaussianBlur stdDeviation="2"/>
<feComposite in2="hardAlpha" operator="arithmetic" k2="-1" k3="1"/>
<feColorMatrix type="matrix" values="0 0 0 0 0 0 0 0 0 0 0 0 0 0 0 0 0 0 0.25 0"/>
<feBlend mode="normal" in2="shape" result="effect1_innerShadow"/>
</filter>
</defs>
</svg>
