<svg width="68" height="53" viewBox="0 0 68 53" fill="none" xmlns="http://www.w3.org/2000/svg">
<circle cx="62.5" cy="49.5" r="1.5" fill="#F9DD96"/>
<path d="M58.2421 12.9297H54.4766C53.5058 12.9297 52.7188 12.1426 52.7188 11.1718C52.7188 10.2011 53.5058 9.41403 54.4766 9.41403H58.2421C59.2129 9.41403 60 10.2011 60 11.1718C60 12.1426 59.213 12.9297 58.2421 12.9297Z" fill="#FDB442"/>
<path d="M41.2472 48.953H35.5234V41.3465C35.5234 40.3999 34.7961 39.5855 33.8506 39.5409C32.8411 39.4934 32.0078 40.2977 32.0078 41.2968V50.7108C32.0078 51.6816 32.7948 52.4686 33.7656 52.4686H41.2968C42.2958 52.4686 43.1002 51.6353 43.0526 50.6258C43.0081 49.6804 42.1936 48.953 41.2472 48.953Z" fill="#A54628"/>
<path d="M33.7656 48.953H27.9921V41.2968C27.9921 40.326 27.2051 39.5389 26.2343 39.5389C25.2636 39.5389 24.4765 40.326 24.4765 41.2968V48.953H22.4687C21.498 48.953 20.7109 49.74 20.7109 50.7108C20.7109 51.6816 21.498 52.4686 22.4687 52.4686H33.7656C34.7364 52.4686 35.5234 51.6816 35.5234 50.7108C35.5234 49.74 34.7364 48.953 33.7656 48.953Z" fill="#D26432"/>
<path d="M39.4141 43.0546H20.5859C19.6152 43.0546 18.8281 42.2675 18.8281 41.2968C18.8281 40.326 19.6152 39.5389 20.5859 39.5389C26.8839 39.5389 32.0078 34.415 32.0078 28.117V9.28911C32.0078 8.82282 32.193 8.37586 32.5227 8.04622C32.5227 8.0461 35.2243 5.34446 37.3893 3.17766C39.4075 1.15829 42.2043 0.00012207 45.0625 0.00012207C48.009 0.00012207 50.8885 1.19309 52.9629 3.27293C55.0714 5.37586 56.2344 8.18168 56.2344 11.1701V26.2343L39.4141 43.0546Z" fill="#FDB442"/>
<path d="M45.0625 0C42.2043 0 39.4075 1.15816 37.3893 3.17754C36.7857 3.78176 36.1403 4.42734 35.5234 5.04445V43.0546H39.4141L56.2343 26.2343V11.1698C56.2343 8.18145 55.0714 5.37574 52.9628 3.2727C50.8884 1.19297 48.0088 0 45.0625 0Z" fill="#FF8C28"/>
<path d="M45.0625 12.9297C46.0333 12.9297 46.8203 12.1427 46.8203 11.1718C46.8203 10.201 46.0333 9.41403 45.0625 9.41403C44.0917 9.41403 43.3047 10.201 43.3047 11.1718C43.3047 12.1427 44.0917 12.9297 45.0625 12.9297Z" fill="#78281E"/>
<path d="M20.586 43.0546H1.75779C1.04682 43.0546 0.4058 42.6264 0.133808 41.9694C-0.138184 41.3126 0.0121676 40.5565 0.514902 40.0538L35.5235 5.04446V28.117C35.5235 36.3537 28.8226 43.0546 20.586 43.0546Z" fill="#FADC5C"/>
<path d="M56.2346 26.2362V26.2343C46.9598 26.2343 39.4143 33.779 39.4143 43.0546C48.689 43.0546 56.2346 35.5099 56.2346 26.2362Z" fill="#FDB442"/>
<circle cx="60.5" cy="50.5" r="1.5" fill="#FAE7B6"/>
<circle cx="65.5" cy="49.5" r="1.5" fill="#F4DC9E"/>
<circle cx="63.5" cy="48.5" r="1.5" fill="#FEEDC0"/>
<circle cx="63.5" cy="50.5" r="1.5" fill="#FAE7B6"/>
<circle cx="66.5" cy="50.5" r="1.5" fill="#FAE7B6"/>
</svg>
